<svg xmlns="http://www.w3.org/2000/svg" viewBox="0 0 425.2 340.16"><defs><linearGradient id="a" x1="1146.13" x2="1167.05" y1="293.56" y2="293.56" gradientTransform="translate(-769.46)" gradientUnits="userSpaceOnUse"><stop offset="0" stop-color="#d0307a"/><stop offset="1" stop-color="#d3382b"/></linearGradient><linearGradient id="b" x1="1112.17" x2="1158.76" y1="298.11" y2="298.11" gradientTransform="translate(-769.46)" gradientUnits="userSpaceOnUse"><stop offset="0" stop-color="#ce2f56"/><stop offset=".45" stop-color="#d1343d"/><stop offset=".78" stop-color="#d3362f"/></linearGradient></defs><g data-name=" 1"><path fill="#efc297" d="M166.87,163.33c5.65-3.28,10.32-7,10.48-14.67.13-6.85-.2-13.33-.39-20.16-.37-14.19,11.54-23.24,21.36-25.54,4.07-1,9.87-1.27,12.83,3.64,2,3.28,1.55,7.28,2.31,11,1.31,6.34,7.41,8.09,8.19,14.73.82,7-1.73,13.45,2.41,19.76a42.48,42.48,0,0,0,8.86,10.14c.36.28,5.35,12.11,3.53,13.83-11.46,10.79-28.65,18-43.56,15.14-9.73-1.85-23.89-9.42-27.18-21.88a24,24,0,0,1-.75-3.56c.75-.26,1.24-2,2-1.88"/><path d="M187.23,140.06c1.48-4.79,33.64-14.4,34.42-7.76.82,7-1.73,13.45,2.41,19.76a43.29,43.29,0,0,0,8.64,10c.43.34,5.57,12.28,3.75,14C236.45,176,181.2,159.38,187.23,140.06Z" style="mix-blend-mode:multiply" fill="#efc297" opacity=".3"/><path fill="#efc297" d="M229.4,95.66c1.2-8.43,2.25-15.84-1.25-24.41-2.36-5.8-5.09-11.41-10.88-14.52a33.38,33.38,0,0,0-12.51-3.47l-.18,0h-.1a52.61,52.61,0,0,0-7.52-.12h-.14c-.48,0-1,0-1.43.09-18.91,1.49-22.68,12.25-25.67,24a68.48,68.48,0,0,0,.61,16.41c-.26,7.74-1,14.65.64,21.18,2.55,10.19,8.21,22.42,11.24,26.54,3.65,5,11.52,9.75,16.92,9.73s13.64-5.56,17-9.84a13,13,0,0,0,1.3-1.54,3,3,0,0,0,.32-.69,1.4,1.4,0,0,1,.1-.16c2.31-3.1,4.4-5.52,9.72-21.76a12.65,12.65,0,0,0,.44-2,62.81,62.81,0,0,0,.78-9.33A61.47,61.47,0,0,0,229.4,95.66Z"/><path fill="#e1a87f" d="M206.06,99.33c.85-1.5,2.48-4,4.53-4.64a22.9,22.9,0,0,1,8.08.81,2.73,2.73,0,0,1,2,3c.56.78-1.89.85-6.09,1.54-2.45.39-5.37-.16-6.75-.09S205.76,99.86,206.06,99.33Z"/><path fill="#ece7c9" d="M218.63,98.59a12.11,12.11,0,0,0-9.1-.74c-1.28.4-2.65,1.27-.73,1.79a19.29,19.29,0,0,0,5,.33,10.89,10.89,0,0,0,5.25-1.06Z"/><path fill="#7d5628" d="M215.87,97.36c0-.38-4.85-.53-4.85,0,0,.94.2,2.22,1,2.62h1.39c.49,0,1.76,0,1.76,0C215.81,99.49,215.87,98.21,215.87,97.36Z"/><path fill="#532b12" d="M212.4,98.64a1.08,1.08,0,0,0,1.08,1.06,1.07,1.07,0,0,0,0-2.13A1.08,1.08,0,0,0,212.4,98.64Z"/><path fill="#532b12" d="M193.7,95.41c.34-1.09-2.69-3.24-4.14-3.65s-6.35-.63-7.93-1-3.71-.9-4.89-.21-3.26,1.59-3.74,3-1.24,3.55.28,2.64,3.5-2.92,6.52-2.92a24.26,24.26,0,0,1,6,1.11c1.87.62,4.08,1.72,5,2S193.48,96.14,193.7,95.41Z"/><path fill="#532b12" d="M202.72,95.41c-.35-1.09,2.68-3.24,4.13-3.65s6.35-.63,7.94-1,4.19-1.08,5.36-.39,2.78,1.77,3.26,3.15,1.25,3.55-.26,2.64-3.48-2.5-4.74-2.92c-2.18-.72-6,.49-7.83,1.11s-4.07,1.72-5,2S202.94,96.14,202.72,95.41Z"/><path d="M189.39,92.87c-1.44-1.34-3.39-1.39-5.32-1.16-.12.88.87,1.7,1.53,1.93s1.79.68,2.64,1c-.24.09-.49.16-.73.24s-1.18.23-1.11.65,1,.72,1.24.84a7.55,7.55,0,0,1,2.19,1.52,15.11,15.11,0,0,1,2.53,2.72,3.65,3.65,0,0,1,.16,3.12,15,15,0,0,0-1.13,6.26c0,1.18,0,2.66-.1,3.82s-1.13,1.43-1.44,2.5-.36,3.44.47,4.23a7.09,7.09,0,0,0,5.07,1c-.27-.51-2.91-1.61-3.29-2a3.2,3.2,0,0,1-.3-3.57c.39-.69,1.38-2.55,2.15-1.84l-.15,1.08a11.27,11.27,0,0,0,.08,3.71c.2.86.94,2.68,2,2.62s-.31-1.73-.57-2.16c-.81-1.34-.08-1.9.68-3,.89-1.26.55-2.46.25-3.89s.18-11.41.32-12.93c.39-4.12-3.6-3.54-5.46-5.75C190.89,93.58,189.63,93.1,189.39,92.87Z" style="mix-blend-mode:multiply" fill="#b77849" opacity=".2"/><path d="M211.53,97.94c0,.43.21.77.47.77s.46-.34.46-.77-.21-.76-.46-.76S211.53,97.52,211.53,97.94Z" style="mix-blend-mode:screen" fill="#f6f7f7" opacity=".6"/><path fill="#532b12" d="M206.06,99.69a7.09,7.09,0,0,1,4.15-2.44,20.12,20.12,0,0,1,8.14.6,10.59,10.59,0,0,1,2.28,1.34c.56.48-1.11-.7-3.87-1.39a16.59,16.59,0,0,0-5.29-.35C210.09,97.49,205.76,100,206.06,99.69Z"/><path fill="#e1a87f" d="M191.42,99.89c-.85-1.5-2.63-4.36-4.68-4.94-1.1-.32-6,.36-7.84,1.09a2.87,2.87,0,0,0-2.05,3.06c-.56.77,2.36,1.45,6.56,2.13,2.45.4,4.9-.76,6.28-.69S191.73,100.42,191.42,99.89Z"/><path fill="#ece7c9" d="M178.86,99a12.11,12.11,0,0,1,9.1-.74c1.27.4,2.64,1.27.72,1.8a19.68,19.68,0,0,1-5,.32,10.85,10.85,0,0,1-5.24-1.06Z"/><path fill="#7d5628" d="M181.61,97.92c0-.38,4.85-.52,4.85,0,0,.81-.11,2-.72,2.42H184l-1.42,0A2.75,2.75,0,0,1,181.61,97.92Z"/><path fill="#532b12" d="M185.12,99A1.11,1.11,0,1,1,184,97.85,1.11,1.11,0,0,1,185.12,99Z"/><path d="M184.81,98.24c0,.43.21.76.47.76s.46-.33.46-.76-.21-.76-.46-.76S184.81,97.82,184.81,98.24Z" style="mix-blend-mode:screen" fill="#f6f7f7" opacity=".6"/><path fill="#532b12" d="M191.42,100a7.09,7.09,0,0,0-4.15-2.44,20.13,20.13,0,0,0-8.14.6,10.59,10.59,0,0,0-2.28,1.34c-.56.48,1.1-.7,3.87-1.39a17,17,0,0,1,5.29-.36C187.39,97.84,191.73,100.37,191.42,100Z"/><path fill="#cc9f7f" d="M202.56,119.75a2.32,2.32,0,0,1,2.44,0c-.88,2.44-2.45,1-3.93,2s-3.14,1.76-4.95.32c-.81-.65-.84-1.83-1.83-2.37-.53-.29-2.15-.66-2.19.43s1.56,1.19,2.13,1.32a6.64,6.64,0,0,1,2.46.74,4.15,4.15,0,0,0,4.67-.3C201.83,121.46,202,120.51,202.56,119.75Z"/><path d="M186.64,96.81c-2.24-.7-4.65-.14-6.84.43-.76.2-4.9,1.25-2.88-.51s4.56-.94,6.79-1.42c3.2-.69.75-2.45-1.31-2.38-1,0-5.67,1.45-5.77-.61-.15-3.35,12.09.38,13.53,1.16a9.88,9.88,0,0,1,4.44,4.37c.86,2.1-.51,3.59-1.74,5.16-.28.36-.52,1.5-.8,1.87-1.17-1.32.77-3.73-.17-4.73A13.52,13.52,0,0,0,186.64,96.81Z" style="mix-blend-mode:multiply" fill="#b77849" opacity=".2"/><path d="M210.39,96.4c2.24-.71,4.65-.15,6.84.43.75.2,4.9,1.24,2.88-.51s-4.57-.94-6.79-1.42c-3.21-.69-.69-1.94,1.3-2.38,1-.23,5.68,1.45,5.78-.62.16-3.35-12.09.39-13.54,1.17a9.93,9.93,0,0,0-4.44,4.37c-.86,2.09.52,3.59,1.74,5.16.29.36.56.72.83,1.09,1.18-1.32-1.32-2.91-.29-3.81A19.18,19.18,0,0,1,210.39,96.4Z" style="mix-blend-mode:multiply" fill="#b77849" opacity=".2"/><path fill="#e29287" d="M187.43,129.71c1-.12,2-.49,3-.64a37.49,37.49,0,0,1,5.43-.21h6.58a37.57,37.57,0,0,1,5.44.21c1,.15,2,.52,3,.64.07.8-2,.48-2.55.72.44,1-3.34,2.8-4.16,3.14-1.31.52-8.69.52-10,0-.82-.34-4.6-2.16-4.16-3.14C189.38,130.19,187.36,130.51,187.43,129.71Z"/><path d="M189.74,130.37a31,31,0,0,1,5.31-.45,18.44,18.44,0,0,0,3.86.32,15.48,15.48,0,0,0,3.9-.42c.55-.11,5.66.55,5.66.55-3.14.75-6.06-.55-7.76.25a4.32,4.32,0,0,1-3.39,0C195.34,129.76,191.84,130.93,189.74,130.37Z" style="mix-blend-mode:multiply" fill="#e29287" opacity=".3"/><path d="M192.53,131.66c1.65,2.3,4.7,1.19,6.6,1.27s4.94,1.49,5.89-1.31c.47-1.39-3.47.36-5.06.38C195.5,132.06,191.12,129.7,192.53,131.66Z" style="mix-blend-mode:screen" fill="#e29287" opacity=".3"/><path fill="#f1b480" d="M228,97.05c.26-1,.3-4.13,1.7-5.69,1.61-1.77,2.87-1.08,2.87,1.61,0,2.48-.27,5.49-.47,7.94-.22,2.7.44,8.46-1.13,10.45-1.95,2.48-3.4-1.5-3.4-1.5Z"/><path fill="#f1b480" d="M171.38,97.05c-.26-1-.29-4.13-1.7-5.69-1.6-1.77-2.86-1.08-2.87,1.61,0,2.48.28,5.49.48,7.94.21,2.7-.45,8.46,1.12,10.45,2,2.48,2.18-1,2.18-1Z"/><path fill="#10afaf" d="M324.88,278.25c-4-.72-.48-4.16-3.17-9.89-3.44-7.33-4.77-12.36-5.16-25.16-.67-21.34-19.34-60.58-32.34-66-14.31-6-49.3-14.58-49.3-14.58s-1.57,3.73-6.78,6c-10.26,4.45-24.55,14.7-44,5.67s-19.44-9.9-19.44-9.9c-12.93,5.64-39,8.51-53.48,18-17.49,11.42-22.93,52.76-26.91,72.88-3.08,15.61-10.5,51.2-8,57.92s47.55,13.25,54-6.84c1-2.95,1.71-5.8,2.31-8.55.27-9.29.34-19,0-27.51a10.33,10.33,0,0,0-2.31-4c-4.17-4,2.8-7.33,2.31-11.33s.62-4.39,1.47-6-1.8,13-1.47,21.38h0c2,5.59,2.61,15.46,0,27.51-.4,13.57-1.23,26.23-1.84,32.9H273.37c-1.07-19.46-2.36-41.18-3.54-41.52-1.85-.55-3.8-14.75-5.78-18.75s1-24.33,1.68-20.53c1.47,8.08,7.9,41.59,10.13,58.64,1.5,11.57,55.06,3.5,50.71-7.39S330.81,279.31,324.88,278.25Z"/><path fill="#147291" d="M132.69,270.22c.34,8.51.27,18.22,0,27.51C135.3,285.68,134.69,275.81,132.69,270.22Z"/><g style="mix-blend-mode:multiply" opacity=".3"><path fill="#147291" d="M145.89,327.63c-2.49-3-1.49-5.67-2-9.42-.89-6.59-2.21-11.22,0-18,1.59-5,4.92-9.08,8.27-13,2.67-3.11,3.92-4.37.33-6.94-2.16-1.55-5.45-4.63-3.26-8.32,1.84-3.12,6.13-1.23,9.09-1.08,3.72.19,7.93-.42,10.83-2.68-3.51-2.41-8.65-2.06-12.66-3a19.36,19.36,0,0,1-8.26-5,37,37,0,0,1-9.57-17.72c-.6-3.1-.74-6.24-4.68-4.28-3.09,1.54-2.68,5.9-5.06,7.7-6.13,4.62-13.57-10.53-19.29-11.31-1.18,5.24,7,7.9,8.37,12.88.65,2.31.91,6.44-1.5,8-1.54,1-3.8.16-5.55.79,1.44,5,14.08,11.43,8,16.94-1.89,1.7-8.45,3.35-8.93,6.07s6.3,5.9,7.19,9c2.73,9.53-6.86,16.78-12.93,21.91-4.37,3.7-9.39,5.54-12.83,8.79,14.51,2.12,34.8.26,39-12.73,1-2.94,1.71-5.8,2.31-8.54-.4,13.56-1.23,26.22-1.84,32.89h19.64A10.79,10.79,0,0,1,145.89,327.63Zm-13.2-57.41a10.33,10.33,0,0,0-2.31-4c-4.17-4,2.8-7.33,2.31-11.33s.62-4.39,1.47-6S132.36,261.79,132.69,270.22Z"/><path fill="#147291" d="M324.88,278.25c-2.79-.5-1.92-2.33-2.05-5.33a15.34,15.34,0,0,1-4.2,7.39c-3.16,3-12.79,7.23-11.7,12.53,4.93.92,8.61-4.91,12.63-6.2,4.64-1.48,4.6,5,.66,6.58-5.2,2.15-9.56.22-14.69-.6-4.21-.67-8.7.85-8.94,5.54,5.7,2.29,24.53-.24,28.84,7.13,1.25-1.32,1.72-2.74,1.14-4.21C322.21,290.19,330.81,279.31,324.88,278.25Z" opacity=".3"/><path fill="#147291" d="M312.55,242.13a112.93,112.93,0,0,1-5.93,14.51c-.94,2.05-4.25,7.51-2.76,9.93,2.51,4.08,12.34-.35,16,1a5,5,0,0,1,2,1.31c-.07-.17-.12-.33-.21-.51-3.44-7.33-4.77-12.36-5.16-25.16-.2-6.17-1.9-13.84-4.53-21.75C312.75,228.28,314.65,235.07,312.55,242.13Z" opacity=".3"/><path fill="#147291" d="M256.89,291.22c2.28,2.85,2.31,7.46,2.66,10.92.47,4.78,2.35,8.79,4.35,12.81-.43-14.37-1-26.62-1.84-26.87-1.85-.55,4-13.72,2-17.72s1-24.33,1.68-20.53c1,5.3,4.06,21.54,6.71,36.89-.08-4.79.2-9.55.42-13.49.7-12.2,3.48-26.06-.65-38-1.19-3.42-6.37-17.2-10.36-17.63-1.33,5-.65,10.33-1,15.5-.34,5.4-1.55,10.71-2.08,16.08s.47,9.36-3.25,13.66c-2.43,2.81-9.18,6.47-9.63,10.28,3.83,2.26,14.47-.7,12.3,7.15-1.62,5.83-13.3,2.21-14.31,8.2C248.1,288.72,253.93,287.54,256.89,291.22Z" opacity=".3"/><path fill="#147291" d="M296.7,313.93c-2.45-.61-4.49-1.16-5.84-1.45-6.47-1.42-12.73-2.71-15.67-9.32,0-.11-.08-.23-.13-.34.3,2,.57,3.93.8,5.65C276.48,313.26,286,314.68,296.7,313.93Z"/></g><path fill="#efc297" d="M215.6,306.08c-2.37,1.36-5.63,1.59-4.87,5s3.74,4.49,6.72,5.53,6.2,2.75,9.29,3.62,4.7-.84,7.39-1.94c3-1.24,9.43,3.31,11.4.89,2.89-3.56,7.84-.87,12.54-.58,6.34.41,13.78-8,11.25-14.25-1.54-3.8-6.3-4.31-9.71-5.46-3.66-1.21-7-3.1-10.6-4.53-7.64-3.06-13.53-7.7-22-5.92-4.24.89-6.09-2.63-10,6-1.72,3.81-4,6.82-.27,11.59"/><path d="M245.53,319.21c2.45-3-.26-4.08-.08-8.14a2.83,2.83,0,0,0-.56-.13,18.63,18.63,0,0,1-2.36,5.28s-1.08,3.34-8.23,0c0,0-5.63,2.91-6.84-.63-.47-1.36-5.29,0-6.48-3.15-.48-1.28.21-3.76-1.08-4-1.13,3.08-2.27,3.28-5.36,3.09-.89-.05-2.45-.64-3.85-.83,0,.13,0,.24,0,.38.76,3.49,3.74,4.49,6.72,5.53s6.2,2.75,9.29,3.62,4.7-.84,7.39-1.94C237.15,317.08,243.56,321.63,245.53,319.21Z" style="mix-blend-mode:multiply" fill="#e7ab94" opacity=".3"/><path fill="#e7ab94" d="M227.74,309.08l.07-.19a1.46,1.46,0,0,0,.17-.49c.06-.19.1-.48.17-.77s.11-.66.17-1,.13-.79.24-1.24.26-.89.4-1.36a9.21,9.21,0,0,0,.34-1.49,11.86,11.86,0,0,0,.09-1.58,10.73,10.73,0,0,1,.09-1.6,12.66,12.66,0,0,1,.33-1.56,4.37,4.37,0,0,1,.25-.72,4.65,4.65,0,0,1,.3-.69c.23-.4.46-.76.68-1.09l.6-.89a6.05,6.05,0,0,0,.43-.69c.2-.39.35-.64.35-.64l.1,0a6.17,6.17,0,0,1,0,.76,3.54,3.54,0,0,1-.2.85,8.75,8.75,0,0,1-.38,1c-.16.36-.33.76-.53,1.17s-.33.8-.49,1.24-.32.91-.45,1.4L230,301a11.81,11.81,0,0,0-.35,1.54,7.91,7.91,0,0,0-.09,1.53,11.7,11.7,0,0,1,0,1.46,9.32,9.32,0,0,1-.28,1.26,8.39,8.39,0,0,1-.38,1.05,4.34,4.34,0,0,1-.46.78,1.64,1.64,0,0,1-.4.4l-.16.12Z" opacity=".3"/><path fill="#e7ab94" d="M235.89,312.15a10.12,10.12,0,0,1,.29-2.44,11.51,11.51,0,0,1,.32-1.13l.48-1.22a7,7,0,0,0,.43-1.32,11,11,0,0,0,.2-1.45c.07-.49.13-1,.24-1.44s.22-.92.33-1.36a7.62,7.62,0,0,1,.4-1.25c.16-.39.33-.75.49-1.08a15.85,15.85,0,0,1,.87-1.57c.23-.37.38-.57.38-.57l.11,0s0,.26-.08.68-.18,1-.36,1.72c-.09.35-.19.73-.32,1.12s-.24.82-.4,1.24-.33.87-.49,1.31-.39.89-.6,1.34a8.67,8.67,0,0,0-.45,1.36,6.8,6.8,0,0,0-.18,1.4,10.71,10.71,0,0,1-.13,1.33,11.47,11.47,0,0,1-.35,1.12,10.7,10.7,0,0,1-1.08,2.21Z" opacity=".3"/><path fill="#07a5a0" d="M267.18,296.55c-2.91,3.33-10.27-2.94-14.07-.36h0s13.5,6.43,14.7,12.24-4.22,8.71-9.12,10.44c4.1,1.24,11-.18,15.18,1.64,7.06,3.1,11.38,9.48,18.67,10,11.22.85,22.38-4.91,29.85-13.07,13.48-14.73-.91-23.07-10.56-28.26C295.9,280.66,278,284.09,267.18,296.55Z"/><g style="mix-blend-mode:multiply" opacity=".4"><path fill="#07a5a0" d="M318.54,309.35c-2.2,4.5-6.73,5.81-11.42,6-5.46.2-10.9-.69-16.36-.64-6.54.08-12.94,1.78-19.44,2.34-2.43.21-4.7-.49-7.07-.81a24.33,24.33,0,0,1-5.56,2.66c4.1,1.24,11-.18,15.18,1.64,7.06,3.1,11.38,9.48,18.67,10,11.22.85,22.38-4.91,29.85-13.07C335.87,302.75,320.24,305.9,318.54,309.35Z" opacity=".25"/><path fill="#106173" d="M271.38,308.2a41.18,41.18,0,0,0,1.11,4.92c.88-2.36,1.64-4.79.74-7.27-1-2.64-3.24-4.45-4.83-6.68a5.32,5.32,0,0,1-1.06-2.8c0,.06-.11.11-.16.18-1.94,2.21-5.84.19-9.35-.66C263.68,298.58,269.55,301.27,271.38,308.2Z"/></g><path fill="#e7ab94" d="M220.66,304.66a4,4,0,0,1,0-.62c0-.39,0-.94.08-1.58a10.32,10.32,0,0,1,.17-1,7.7,7.7,0,0,1,.42-1.12c.15-.39.29-.79.41-1.2a6.9,6.9,0,0,0,.25-1.31,12.2,12.2,0,0,1,.3-1.26c.13-.41.25-.81.38-1.2a20.05,20.05,0,0,1,.82-2,12.69,12.69,0,0,1,1.11-1.91l.11,0a11.64,11.64,0,0,1-.3,2.19,10.22,10.22,0,0,1-.68,2.13l-.54,1.14c-.18.39-.42.76-.64,1.14a6.26,6.26,0,0,0-.48,1.17,3.51,3.51,0,0,0-.17,1.24,11,11,0,0,1-.05,1.17,7.39,7.39,0,0,1-.2,1,7.15,7.15,0,0,1-.54,1.5,4.63,4.63,0,0,1-.3.54Z" opacity=".3"/><path fill="#efc297" d="M187.31,313.31c-2.88-3.17-2.44-9.13-11.85-10.85-7.49-1.38-12.43,6.21-18.71-.3-3.24-3.35-4.24-20.78-4.24-20.78,5-.57,31.14-2.58,34.43-3.1s17.59,5.52,20.94,11.61,9.69,19.27,8.56,22.49S196.68,323.67,187.31,313.31Z"/><path fill="#137887" d="M159.21,280.75a1.94,1.94,0,0,0-1.6,2c.24,5-2.59,12.15.48,17.55.87,1.52,5.33,4.88,4.08,4.94l-22.27,1c-1.24.06-1.06-1.34-1.15-3.09l-1-19.87c-.08-1.73-1.65-2.89-.43-3.18C145.31,278.25,159.21,280.75,159.21,280.75Z"/><path fill="#07a5a0" d="M132.07,278.83c4.27,2.24.83.45,5.79,1.7l2.22,1.79s.53,7.88,1.25,13.77,2.26,9.51,8.11,9.6c-4,2.48-11.88,3.34-15.69,6.38-6.49,5.18-17.68,15.59-23.65,13.65-11.88-3.87-18.86.18-29.38-1.1-8.15-1-12-34-.55-36.41C99.26,284.27,116.13,270.48,132.07,278.83Z"/><path fill="#532b12" d="M228.34,111.78a.88.88,0,0,1,.16.28c.05-.24-.12-.46-.19-.69v0a2.46,2.46,0,0,0,0-.26.31.31,0,0,1,.14.25,1.93,1.93,0,0,0-.18-.77l0-.23a.65.65,0,0,0,.16.17c0-.12.32-2.31.26-2.43a24.39,24.39,0,0,1-.11-3.19l-.16-6.64c-.09.42-.88,2.31-1,2.73l0,0a5.49,5.49,0,0,1-.11.8c0,.11-.06.24-.08.36a2.06,2.06,0,0,1-.16-.15,2.29,2.29,0,0,1,0,.74s0,.06,0,.09c-.13-.13-.19-.12-.33,0a.92.92,0,0,1,.24.46c0,.19-.07.39-.1.59l-.08,0a6,6,0,0,1-.05.75.3.3,0,0,1,0,.1s-.14-.09-.17-.13a2.48,2.48,0,0,0,.06.77c0,.08,0,.16,0,.23a1.12,1.12,0,0,1-.22-.09,1,1,0,0,1,.14.54c0,.13,0,.25-.07.38a.88.88,0,0,1-.17-.06,1.62,1.62,0,0,1,.07.44c0,.08,0,.17,0,.26l-.13-.07a1.48,1.48,0,0,1,.1.27,5.14,5.14,0,0,0-.06.55H226a1,1,0,0,1,.13.47,2,2,0,0,1,0,.24.63.63,0,0,0-.2-.09,2.17,2.17,0,0,1,.15.4c0,.16-.05.31-.08.48h-.06c0,.18,0,.34,0,.51a3.2,3.2,0,0,1-.07.33,1.55,1.55,0,0,1-.23-.21c0,.35-.34.73,0,1a.71.71,0,0,0-.24-.22,1.89,1.89,0,0,0,.21.93.1.1,0,0,1,0,0,10.17,10.17,0,0,0-.14,1.25.31.31,0,0,0-.1,0,2.36,2.36,0,0,1-.06,1.09,1.34,1.34,0,0,1-.23-.13,5.39,5.39,0,0,1,.24.68h0a.19.19,0,0,0,0,.08h0a.31.31,0,0,0-.38-.12c.06.27.27.52.25.85a.34.34,0,0,0-.4-.17,2.84,2.84,0,0,1,.27.9c0,.15-.05.29-.08.43a1.21,1.21,0,0,0-.19-.08,7.25,7.25,0,0,0,0,.93.39.39,0,0,0-.29-.37,9.29,9.29,0,0,0,.08,1.08.36.36,0,0,0,0,.09c-.44-.28-.31.29-.28.51a2.14,2.14,0,0,1,0,.34s0,.12-.06.18l-.13.27a2.63,2.63,0,0,0,0-.49c0,.24-.21.43-.23.66a.78.78,0,0,0,0,.34.67.67,0,0,1-.06.12.46.46,0,0,0-.19-.2v.56c-.05.09-.11.19-.15.28l-.08-.09a1.22,1.22,0,0,0-.24.7,2.39,2.39,0,0,1-.12.22.39.39,0,0,0-.28-.06,3.91,3.91,0,0,1,0,.51l-.22.41a.29.29,0,0,0-.22-.1,2.29,2.29,0,0,1,0,.45l-.17.24a.64.64,0,0,1,0-.07c-.39.07-.47.35-.48.64h0a.22.22,0,0,0-.25-.21c0,.15,0,.28.06.42l-.12.13-.15.14a.48.48,0,0,1-.08-.16,1.55,1.55,0,0,1-.17.4s0,0,0,0a.24.24,0,0,0,0-.08.91.91,0,0,0-.08.13l-.19.18a1.11,1.11,0,0,0-.22.2l0,0-.65.59a2.35,2.35,0,0,0-.42.21,2.25,2.25,0,0,0-.76.8l-.6.45a2.2,2.2,0,0,0-.56.34,1.12,1.12,0,0,0-.21.29.53.53,0,0,1-.15.12v0l0,.06-.17.07-.15.1h0a4.52,4.52,0,0,0-.68.52,1.92,1.92,0,0,0-.38.53,11.34,11.34,0,0,0-1.11,2.34,12.26,12.26,0,0,0-.65,3.41.91.91,0,0,1-.22-.11,5.81,5.81,0,0,0,.12,1c-.08-.07-.19,0-.27-.08a6.7,6.7,0,0,1,0,1.55c-.07-.14-.16-.17-.26-.3,0,.41.29.7.32,1a.25.25,0,0,1,0,.08.79.79,0,0,1-.39-.16c0,.29.14.57.05.84,0,0,0-.08,0-.13a.65.65,0,0,0-.34,0c.14.2.36.36.43.6-.1.16-.08.34-.17.49a3,3,0,0,0-.06-.32c-.07.21-.17.39-.39.38a1,1,0,0,1,.09.41l-.24,0c0,.19.13.37.16.56a.22.22,0,0,1-.05.08.61.61,0,0,1-.3,0c0-.05,0-.13,0-.18a2.46,2.46,0,0,1-.24,1l-.12-.15a.37.37,0,0,0-.15.43c-.13,0-.26.07-.38.09s-.06-.17-.06-.2a.82.82,0,0,1-.24.55c0-.11-.08-.06-.09-.23a5.7,5.7,0,0,1-.16.55,1.32,1.32,0,0,0-.18-.22.7.7,0,0,1-.39.51c-.1-.41-.3,0-.46.17h0c0-.18-.09-.24-.29-.21,0,.09-.06.14-.07.23a.33.33,0,0,0-.39.16h-.08a2.09,2.09,0,0,1,0-.25,1.26,1.26,0,0,1-.42.34l-.13,0c0-.09-.07-.14-.08-.22,0,.1-.12.17-.16.27h0c-.11-.14-.19-.24-.28-.37-.14.19-.1.12-.29.13a.68.68,0,0,0-.12.24s-.09,0-.09,0v0l0,0-.1,0a.33.33,0,0,0-.26-.09.22.22,0,0,1,0,.11,1.93,1.93,0,0,0-.41.06h0s0-.08,0-.13a.4.4,0,0,0-.19.07s0,.09,0,.14l-.1.07c0-.07.07-.13.1-.21a.56.56,0,0,0-.23.25,1,1,0,0,0-.06-.24.74.74,0,0,1-.22.29l-.22,0h-.05c.07-.1.08-.2.18-.28a3.49,3.49,0,0,0-.33.21.66.66,0,0,0-.43-.31.54.54,0,0,1-.13.44h-.08a1.67,1.67,0,0,1-.13-.2,2.8,2.8,0,0,0-.56.32h-.08a.75.75,0,0,1,.13-.39.47.47,0,0,0-.43.3.94.94,0,0,0-.49-.3.4.4,0,0,1-.1.61,2.54,2.54,0,0,0-.44-.48.35.35,0,0,0-.16.35s0,0,0,0c-.2-.23-.51-.27-.54.11a1.06,1.06,0,0,0-.32-.28c0,.11-.15.16-.19.24,0-.11-.13-.22-.16-.29a3.78,3.78,0,0,1-.48.38,1.24,1.24,0,0,1,0-.18.58.58,0,0,0-.37.29.51.51,0,0,1,0-.13.35.35,0,0,0-.18.22.47.47,0,0,0-.29.16.86.86,0,0,1-.07-.34c0,.2-.1.4-.14.6a2.92,2.92,0,0,0-.34-.65c.11.08-.13.46-.12.67,0-.24-.12-.49-.18-.74a1.34,1.34,0,0,0-.24.83,2,2,0,0,1-.22-.57,1.6,1.6,0,0,0-.05.21,2.6,2.6,0,0,1-.15-.28.9.9,0,0,1,0,.16.44.44,0,0,0-.15,0v0h0v-.3a.89.89,0,0,0-.14.24.58.58,0,0,0-.39-.32,1.24,1.24,0,0,1,0,.18,3.19,3.19,0,0,1-.48-.38c0,.07-.13.18-.16.29,0-.08-.14-.13-.19-.24a1.06,1.06,0,0,0-.32.28c0-.38-.34-.34-.54-.11,0,0,0,0,0,0,0-.17,0-.24-.15-.35a3,3,0,0,0-.45.48.4.4,0,0,1-.1-.61.94.94,0,0,0-.49.3.46.46,0,0,0-.43-.3.75.75,0,0,1,.13.39h-.07a2.88,2.88,0,0,0-.57-.32.67.67,0,0,1-.13.2h-.08a.54.54,0,0,1-.12-.44.65.65,0,0,0-.44.31,3.45,3.45,0,0,0-.32-.21c.1.08.11.18.17.28h0l-.23,0a.85.85,0,0,1-.22-.29,2.08,2.08,0,0,0-.06.24.54.54,0,0,0-.22-.25,1.36,1.36,0,0,0,.1.21l-.11-.07a.65.65,0,0,0,0-.14.44.44,0,0,0-.19-.07.59.59,0,0,1,0,.13h0a1.84,1.84,0,0,0-.41-.06s0-.08,0-.11a.3.3,0,0,0-.25.09l-.11,0,0,0h0s-.07.06-.09,0a.68.68,0,0,0-.12-.24c-.19,0-.14.06-.29-.13l-.27.37h0a1.91,1.91,0,0,1-.16-.27c0,.08-.07.13-.09.22l-.13,0a1.14,1.14,0,0,1-.41-.34c0,.08,0,.17,0,.25h-.07a.35.35,0,0,0-.41-.16c0-.09-.06-.14-.06-.23-.2,0-.26,0-.29.21h0c-.15-.16-.35-.57-.45-.17a.69.69,0,0,1-.4-.51,2.11,2.11,0,0,0-.17.22,2.85,2.85,0,0,1-.16-.55c0,.17-.05.12-.1.23a.87.87,0,0,1-.24-.55,1.93,1.93,0,0,0-.05.2c-.12,0-.26-.07-.4-.09a.34.34,0,0,0-.15-.43l-.11.15a2.88,2.88,0,0,1-.24-1v.18a.75.75,0,0,1-.31,0l0-.09c0-.19.13-.37.16-.56l-.24,0a1.12,1.12,0,0,1,.09-.41c-.22,0-.32-.17-.38-.38a1.65,1.65,0,0,0-.06.32c-.1-.15-.08-.33-.19-.49.07-.24.31-.4.43-.6a.62.62,0,0,0-.33,0c0,.05,0,.09,0,.13-.1-.27.06-.55.05-.84a.83.83,0,0,1-.4.16.19.19,0,0,0,0-.08c0-.34.34-.62.33-1-.11.13-.2.16-.27.3a7.3,7.3,0,0,1,0-1.55c-.08,0-.19,0-.27.08a5.8,5.8,0,0,0,.13-1,1.2,1.2,0,0,1-.23.11,11.91,11.91,0,0,0-.65-3.41,11.34,11.34,0,0,0-1.11-2.34,1.92,1.92,0,0,0-.38-.53,4.06,4.06,0,0,0-.68-.52s0,0,0,0l-.15-.1-.17-.07,0-.06v0a.71.71,0,0,1-.15-.12,1.37,1.37,0,0,0-.2-.29,2.13,2.13,0,0,0-.57-.33c-.19-.16-.39-.31-.6-.46a2.32,2.32,0,0,0-.75-.8,2.46,2.46,0,0,0-.43-.21l-.65-.59s0,0,0,0a1.11,1.11,0,0,0-.22-.2l-.19-.18a.38.38,0,0,0-.09-.13.36.36,0,0,1,0,.07h0s0-.06,0-.09l0,0s0,0,0-.06v0a1.32,1.32,0,0,1-.12-.31.78.78,0,0,1-.1.15l-.14-.13a1.42,1.42,0,0,1-.12-.13c0-.14.05-.27.06-.42a.22.22,0,0,0-.24.21h0c0-.29-.09-.57-.48-.64a.64.64,0,0,1,0,.07l-.16-.24a3.46,3.46,0,0,1,0-.45.25.25,0,0,0-.21.1c-.08-.14-.16-.27-.23-.41a2.67,2.67,0,0,1,0-.51.41.41,0,0,0-.29.06l-.12-.22a1.15,1.15,0,0,0-.24-.7l-.07.09c-.06-.09-.1-.19-.15-.28s0-.38,0-.56a.48.48,0,0,0-.2.2l-.06-.13a.88.88,0,0,0,.05-.33c0-.23-.21-.42-.24-.66,0,.15,0,.32,0,.48l-.13-.26c0-.06,0-.13,0-.2a2.11,2.11,0,0,1,0-.32c0-.22.16-.79-.29-.51l0-.09a9.33,9.33,0,0,0,.07-1.08.38.38,0,0,0-.28.37c0-.31-.05-.62-.06-.93a1.21,1.21,0,0,0-.19.08c0-.14-.06-.28-.08-.42a3.09,3.09,0,0,1,.27-.91.33.33,0,0,0-.39.17,2.55,2.55,0,0,1,.25-.85.32.32,0,0,0-.39.12h0v-.08h0c.08-.24.15-.48.24-.68,0,.06-.17.09-.22.13a2.37,2.37,0,0,1-.07-1.09.31.31,0,0,0-.1,0,10.17,10.17,0,0,0-.14-1.25v0a2,2,0,0,0,.2-.93.82.82,0,0,0-.24.22c.33-.29,0-.67,0-1a1.21,1.21,0,0,1-.23.22c0-.12-.05-.23-.07-.34s0-.34,0-.51h-.06c0-.17-.05-.32-.08-.48a2.17,2.17,0,0,1,.15-.4c-.11,0-.16,0-.19.09a2,2,0,0,1,0-.24,1.36,1.36,0,0,1,.12-.47h-.17l-.06-.55a1,1,0,0,1,.09-.27l-.13.07c0-.08,0-.17,0-.26a2.13,2.13,0,0,1,.07-.44.88.88,0,0,1-.17.06c0-.13,0-.25-.07-.38a1.06,1.06,0,0,1,.14-.54,1.12,1.12,0,0,1-.22.09,2.23,2.23,0,0,0,0-.23,2.51,2.51,0,0,0,.06-.77s-.13.09-.17.13a.37.37,0,0,0,0-.09c0-.25,0-.5-.05-.76l-.08,0c0-.2-.06-.4-.1-.59a.92.92,0,0,1,.24-.46c-.14-.09-.19-.1-.32,0a.36.36,0,0,1,0-.1,2.25,2.25,0,0,1,0-.73.75.75,0,0,1-.16.15c0-.12-.05-.25-.07-.37a5.19,5.19,0,0,1-.12-.79l0,0c-.09-.42-.16-.84-.26-1.26l-.25,7.39a24.46,24.46,0,0,1-.29,3.05,1.94,1.94,0,0,0-.18.35.65.65,0,0,0,.16-.17l0,.23a1.93,1.93,0,0,0-.18.77.33.33,0,0,1,.13-.25c0,.08,0,.17,0,.25a.11.11,0,0,1,0,0,1.91,1.91,0,0,0-.18.68.91.91,0,0,1,.17-.28c0,.34-.1.64-.07,1,0-.07,0-.19.11-.23.06.35-.24.64,0,1a2,2,0,0,1,.09-.22.86.86,0,0,0,0,.16,1.8,1.8,0,0,0,.1,1.14c0,.06,0,.13,0,.2a1.34,1.34,0,0,0-.26.52,2.85,2.85,0,0,0,0,.72,3.24,3.24,0,0,1,.15-.74l0,0a3.89,3.89,0,0,0,0,.68c-.08.24-.2.59-.07.8a1.9,1.9,0,0,1,.18-.42.34.34,0,0,1,0,.1c0,.25-.06.82.18,1a2,2,0,0,1,0-.32.61.61,0,0,0,0,.14,1.25,1.25,0,0,0,0,.58,2.56,2.56,0,0,0,.11,1,1.18,1.18,0,0,1,.08-.52.36.36,0,0,0,0,.1.61.61,0,0,0,0,.33,1.26,1.26,0,0,0,0,.86.67.67,0,0,0,0,.49,1.78,1.78,0,0,1,.11-.52.57.57,0,0,0,0,.14,1.79,1.79,0,0,1-.1.35c-.2.33-.37.71-.18.95a3.38,3.38,0,0,1,.11-.34,2.13,2.13,0,0,0,.14.59,2.09,2.09,0,0,1,0-.35.82.82,0,0,0,.06.34c0,.1,0,.21,0,.3a1.33,1.33,0,0,0,.25,1.11.74.74,0,0,1,0-.21.54.54,0,0,0,.16.22v-.1s0,.07,0,.11a1.25,1.25,0,0,0,0,.69c0-.13,0-.29.07-.44,0,.06,0,.12,0,.19a1.65,1.65,0,0,0-.06.74,1.28,1.28,0,0,0,.12-.39,2.51,2.51,0,0,0,.22.56s0,0,0-.06a1.13,1.13,0,0,0,.25.7c0-.25-.08-.49-.08-.74,0-.1,0-.22,0-.34a0,0,0,0,0,0,0c0,.24.12.48.16.72a2.36,2.36,0,0,0,.21.83,1.9,1.9,0,0,0,0,.25,1.55,1.55,0,0,1,.07-.31.42.42,0,0,1,0,.1,1.09,1.09,0,0,0-.11.73c0-.09.07-.17.11-.26s0,0,0,.07c-.09.23-.14.45,0,.6a.92.92,0,0,1,.05-.28,1.37,1.37,0,0,0,.21.46c0,.3-.09.69.12.9l0-.28a1.06,1.06,0,0,0,.1.3.8.8,0,0,0,.07.34v-.09c.09.16.19.31.28.48a.78.78,0,0,1,0-.38,3.33,3.33,0,0,0,.1.55.82.82,0,0,0,0,.5,2,2,0,0,0,.12.5.43.43,0,0,1,.06-.22l.06.14a1.76,1.76,0,0,0,.18.92s0,0,0-.06v.07l-.56,0a1,1,0,0,0,.63.19c.05.11.09.22.15.34a1.2,1.2,0,0,1,.06-.33h0l.18.5c0-.06,0-.16,0-.27,0,0,0,.11,0,.15a1.11,1.11,0,0,0,.08.21s0,.05,0,.08a2.61,2.61,0,0,0,0,.39c0,.08.08.17.09.24,0-.14,0-.25,0-.39s0,0,0-.06a.79.79,0,0,0,.24.27,2.4,2.4,0,0,0-.07-.52.94.94,0,0,1,0,.16,1.55,1.55,0,0,1,0,.47c0,.18-.17.37-.15.55a.79.79,0,0,1,.2-.34.75.75,0,0,1,0,.15,2.25,2.25,0,0,0,.23,1.35,3.74,3.74,0,0,1,0-.58.9.9,0,0,0,.09.43s0-.08,0-.12a1.34,1.34,0,0,0,.45.84,1,1,0,0,1-.12-.73,2.1,2.1,0,0,0,.27.72,2.26,2.26,0,0,0,.13.33,1.29,1.29,0,0,0,.06.93,3.24,3.24,0,0,1,.06-.64.64.64,0,0,1,.09.21,1.38,1.38,0,0,1,.13-.54l0,.08c0,.18-.09.35-.11.51a2.62,2.62,0,0,0,.36,1.47c0-.21-.07-.43-.07-.65v-.43l0,.09a2.92,2.92,0,0,1,.12.49,4.78,4.78,0,0,1,0,.76,1.78,1.78,0,0,0,.51,1.31.67.67,0,0,1,.1-.53.3.3,0,0,0,0,.11c0,.48,0,1.14.39,1.41a6.11,6.11,0,0,1,0-.75l0,0c.08.21.15.77.4.81l0-.24,0,.19a.76.76,0,0,0,.12-.19,1.15,1.15,0,0,1,0,.19,2.39,2.39,0,0,0-.26.91,1.19,1.19,0,0,1,.27-.44c0,.39-.2.82,0,1.15a3.65,3.65,0,0,1,.24-.49,1.68,1.68,0,0,0,.21,1.11.85.85,0,0,1,0-.32,3.9,3.9,0,0,0,.52.69,2.68,2.68,0,0,1,0-.8h0l0,.11a2.54,2.54,0,0,1,.13.91c.07-.17.08-.38.14-.57a1.13,1.13,0,0,1,.13.2c.14.29.11.66.34.9,0-.15,0-.29,0-.42a.76.76,0,0,0,.12-.19,4.43,4.43,0,0,1,.2.45,3.18,3.18,0,0,0,.22.68c0-.1,0-.23.07-.33s.12-.17.2-.26a1.34,1.34,0,0,0,0,.49c0,.36.18.75.18,1a1.49,1.49,0,0,1,.19-.77,3.47,3.47,0,0,0,.06.9l0,.1a1.48,1.48,0,0,0-.1.27.49.49,0,0,0,.14-.15,1,1,0,0,0,.35.43,1.5,1.5,0,0,0,0-.2.58.58,0,0,0,.26.44,2.8,2.8,0,0,0,0-.4,3.35,3.35,0,0,1,.37.63,1.39,1.39,0,0,1-.18.49,1.6,1.6,0,0,0,.33-.38,1.19,1.19,0,0,0,.17.95.53.53,0,0,1,.14-.4,1.3,1.3,0,0,0,.36.85.76.76,0,0,0,.1.44,1.37,1.37,0,0,0,0-.28,4.59,4.59,0,0,0,.55.47,4.42,4.42,0,0,0-.13-.61l0,.15a1.67,1.67,0,0,1,.08.91,2.62,2.62,0,0,0,.19-.49,2,2,0,0,1,.12.29,4.84,4.84,0,0,0,.28,1.12c0-.25.12-.52.12-.75,0,0,0,0,0,0a2,2,0,0,0,.19.93c.15.25.37.44.52.69,0-.24-.11-.54,0-.77v0a1.15,1.15,0,0,0,.15.43,1.88,1.88,0,0,1,.05-.33c.14.33.36.65.48.95,0-.26,0-.53,0-.8v.05a1.62,1.62,0,0,0,0,.31c0-.07.07-.11.09-.17.08.1.14.21.23.31a1.18,1.18,0,0,0,.24.7.66.66,0,0,1,0-.24.83.83,0,0,0,0,.12c.07.29.11.66.37.85a4.1,4.1,0,0,0,0-.6,1.45,1.45,0,0,0,.23.34l0-.43c.13.29.34.59.45.89.15-.12.09-.46.1-.64.19,0,.33.43.46.57s.37.3.53.48a.68.68,0,0,1,0-.14h0l0-.23v-.06a3.4,3.4,0,0,1,.33,1.15,6.87,6.87,0,0,1,.27-.88h0a1,1,0,0,0,.11.58,1.13,1.13,0,0,1,.24.61,2.26,2.26,0,0,0,.22-.47c0-.13,0-.3,0-.43,0,0,0,.06.06.1s0,.12.05.18a.16.16,0,0,1,0-.06,1.61,1.61,0,0,1,.22.23,1.32,1.32,0,0,1,.31.64c.07-.22,0-.55.22-.73,0,.27,0,.54.16.77,0-.12.07-.26.1-.41a.47.47,0,0,1,.06.09c.06.07.12.25.16.28s.2,0,.34.07a.58.58,0,0,0-.08-.22.45.45,0,0,1,.06-.12,12.55,12.55,0,0,1,.53,1.17c0-.47-.37-.93-.31-1.38a.9.9,0,0,1,.21.27c0,.19-.07.4.08.56a.9.9,0,0,1,.07-.27c.09.24.15.5.21.71.06-.1.15-.25.22-.39a.47.47,0,0,0,.06.09s0-.11,0-.16a.44.44,0,0,0,.06-.23,1.61,1.61,0,0,0,.23.69.57.57,0,0,0,.35.26c0-.18,0-.46.1-.59.05.37.54.6.76.88,0-.17-.09-.5.13-.56,0,.19.21.31.29.48a3.3,3.3,0,0,0,.4-.67c.13.35.63.69.59,1.06.26-.29-.18-.81.07-1.17a4.73,4.73,0,0,0,.19.74,1,1,0,0,1,.25-.5,1.32,1.32,0,0,0,.57,1c0-.11,0-.22,0-.32a1.39,1.39,0,0,0,.19.15,4.37,4.37,0,0,1-.15-.58s0,0,0,0c.09.27.21.9.42,1.06a4.42,4.42,0,0,0,.1-.54,1.33,1.33,0,0,0,.09.21.07.07,0,0,1,0,0c.11.3.28.6.49.67a4.41,4.41,0,0,1,0-1,1.11,1.11,0,0,0,.09.19,1.16,1.16,0,0,1,.18.33,2.25,2.25,0,0,1,0,.69c.31-.26.21-.84.39-1.22a.59.59,0,0,0,0,.14l.06-.09a.7.7,0,0,0,.37.78,4.83,4.83,0,0,1,.15-.86,6.58,6.58,0,0,0,.26,1.35,3.47,3.47,0,0,0,.17-.85c0-.23.1-.46.15-.69a.51.51,0,0,0,.18.31,1.21,1.21,0,0,1,0,.19c0-.05,0-.1,0-.14h0a1.42,1.42,0,0,0,.11,1.11,1.38,1.38,0,0,1,.18-.76,1.38,1.38,0,0,0,.19.43,3.23,3.23,0,0,0,.06-1.08l0,0c0,.2.07.4.07.6a.54.54,0,0,0,.29-.33,2,2,0,0,1,.47.63,9.75,9.75,0,0,0,0-1c.1.16.21.29.31.31a1.08,1.08,0,0,0,0,.18l.07-.15a.3.3,0,0,0,.27.07c.1,0,.15-.11.19-.22a.65.65,0,0,0,.14-.36h0a.61.61,0,0,1,.14.35s0-.09.05-.13a1.43,1.43,0,0,1,.21.72c.34-.12.44-.54.45-.95a1.06,1.06,0,0,0,.15-.27,3.83,3.83,0,0,0,.4.67c.08-.17.28-.29.29-.48.22.06.18.39.13.56.22-.28.71-.51.76-.88.13.13.09.41.1.59a.54.54,0,0,0,.35-.26,1.49,1.49,0,0,0,.23-.69.56.56,0,0,0,.06.23s0,.12,0,.16l.06-.09c.06.14.15.29.2.39.07-.21.13-.47.23-.71a1.31,1.31,0,0,1,.06.27.62.62,0,0,0,.08-.56.9.9,0,0,1,.21-.27c.06.45-.35.91-.31,1.38a10.44,10.44,0,0,1,.54-1.17.43.43,0,0,1,0,.12.57.57,0,0,0-.07.22c.14-.05.23,0,.33-.07s.11-.21.16-.28a.47.47,0,0,0,.06-.09c0,.15.07.29.1.41.2-.23.14-.5.17-.77.18.18.14.51.22.73a1.31,1.31,0,0,1,.3-.64,2.44,2.44,0,0,1,.22-.23.16.16,0,0,1,0,.06l.06-.18.06-.1c0,.13,0,.3,0,.43a1.56,1.56,0,0,0,.22.47,1.2,1.2,0,0,1,.23-.61,1,1,0,0,0,.11-.58h0a6.82,6.82,0,0,1,.26.88,3.2,3.2,0,0,1,.34-1.15s0,0,0,0l0,.26h0a.7.7,0,0,1,0,.14,6.17,6.17,0,0,1,.54-.48c.13-.14.27-.54.46-.57,0,.18-.05.52.1.64.11-.3.31-.6.45-.9,0,.15,0,.29,0,.44a1.27,1.27,0,0,0,.23-.34c0,.19-.05.43,0,.6.27-.19.3-.56.37-.85a.56.56,0,0,0,0-.12.65.65,0,0,1,0,.24,1.11,1.11,0,0,0,.23-.7c.09-.1.15-.21.23-.31a.91.91,0,0,1,.09.17,1.62,1.62,0,0,0,0-.31s0,0,0,0a0,0,0,0,0,0,0c0,.27,0,.54,0,.8.11-.3.33-.61.46-.95a.77.77,0,0,1,.06.33,1.15,1.15,0,0,0,.15-.43s0,0,0,0c.07.23-.06.53-.05.77.15-.25.38-.44.52-.69a1.85,1.85,0,0,0,.19-.93h0c0,.23.1.5.13.75a5.4,5.4,0,0,0,.28-1.12,1.25,1.25,0,0,1,.11-.29,2.62,2.62,0,0,0,.19.49,1.68,1.68,0,0,1,.09-.91.83.83,0,0,1,0-.15,4.42,4.42,0,0,0-.13.61,3.93,3.93,0,0,0,.55-.47,1.37,1.37,0,0,0,0,.28.76.76,0,0,0,.11-.44,1.29,1.29,0,0,0,.35-.85.59.59,0,0,1,.15.4,1.23,1.23,0,0,0,.16-.95,1.87,1.87,0,0,0,.33.38,1.25,1.25,0,0,1-.17-.49,2.78,2.78,0,0,1,.36-.62,2.55,2.55,0,0,0,0,.39.62.62,0,0,0,.25-.45c0,.07,0,.14,0,.21a.92.92,0,0,0,.35-.43c0,.05.07.11.14.15a1.48,1.48,0,0,0-.1-.27,1,1,0,0,0,0-.1,2.77,2.77,0,0,0,.06-.9,1.32,1.32,0,0,1,.19.77c0-.3.15-.69.18-1.06a1.57,1.57,0,0,0,.05-.48c.07.09.15.13.2.26a1.91,1.91,0,0,1,.06.33,3.18,3.18,0,0,0,.22-.68,4.43,4.43,0,0,1,.2-.45.5.5,0,0,0,.13.19,2.94,2.94,0,0,0,0,.42c.22-.24.19-.61.33-.9a2.26,2.26,0,0,1,.13-.2c.06.19.07.4.14.57a2.54,2.54,0,0,1,.13-.91.21.21,0,0,0,0-.11,2.68,2.68,0,0,1,0,.8,3.85,3.85,0,0,0,.51-.69.69.69,0,0,1,0,.32,1.7,1.7,0,0,0,.21-1.12,3.74,3.74,0,0,1,.24.5c.22-.33.08-.76,0-1.15a1.07,1.07,0,0,1,.27.44,2.64,2.64,0,0,0-.26-.91c0-.07,0-.13,0-.19a.76.76,0,0,0,.12.19c0-.07,0-.13,0-.19s0,.16,0,.24c.26,0,.33-.6.42-.81l0,0a6.11,6.11,0,0,1,0,.75c.35-.27.38-.93.4-1.41a.61.61,0,0,0,0-.11.67.67,0,0,1,.1.53,1.79,1.79,0,0,0,.52-1.31,6.37,6.37,0,0,1,0-.76,3.72,3.72,0,0,1,.11-.48.53.53,0,0,0,.06-.1v.43c0,.22-.08.44-.07.65a2.54,2.54,0,0,0,.36-1.47,2.67,2.67,0,0,0-.12-.51.2.2,0,0,0,0-.08,1.58,1.58,0,0,1,.13.54,1.89,1.89,0,0,1,.09-.21,3.24,3.24,0,0,1,.06.64,1.24,1.24,0,0,0,.06-.93,2,2,0,0,0,.14-.34,2.25,2.25,0,0,0,.26-.71,1,1,0,0,1-.12.73,1.34,1.34,0,0,0,.45-.84.35.35,0,0,1,0,.12,1,1,0,0,0,.08-.43,5.56,5.56,0,0,1,0,.58,2.17,2.17,0,0,0,.22-1.35.75.75,0,0,0,0-.15.68.68,0,0,1,.19.34c0-.18-.12-.37-.14-.55a1.74,1.74,0,0,1,0-.55l0-.08a1.91,1.91,0,0,0-.07.52.89.89,0,0,0,.23-.27l.05.06a1.7,1.7,0,0,1,0,.39,1.7,1.7,0,0,0,.09-.24,2.57,2.57,0,0,0,0-.39V131c0-.08.06-.14.07-.21s0-.1,0-.16a1.43,1.43,0,0,1,0,.28c.06-.16.13-.33.18-.5h0a.92.92,0,0,1,.06.33,3.23,3.23,0,0,0,.15-.34,1,1,0,0,0,.63-.19l-.56,0a.13.13,0,0,0,0-.06.07.07,0,0,0,0,0,1.65,1.65,0,0,0,.18-.92l.06-.14a.57.57,0,0,1,.07.22,2,2,0,0,0,.11-.5.82.82,0,0,0,0-.5,3.33,3.33,0,0,0,.1-.55.91.91,0,0,1,0,.38c.08-.17.18-.32.26-.49,0,0,0,.07,0,.1a1,1,0,0,0,.08-.34,1.49,1.49,0,0,0,.09-.3h0l0,.28c.21-.21.16-.6.12-.9a1.37,1.37,0,0,0,.21-.46.94.94,0,0,1,.06.28c.13-.15.07-.37,0-.6,0,0,0,0,0-.07s.07.17.1.26a1.08,1.08,0,0,0-.1-.73.54.54,0,0,1,0-.1,1.55,1.55,0,0,1,.07.31.72.72,0,0,0,0-.25,2.21,2.21,0,0,0,.21-.83c0-.24.14-.48.17-.72v0c0,.11,0,.23,0,.33,0,.25-.07.49-.07.74a1.18,1.18,0,0,0,.24-.7V124a2.63,2.63,0,0,0,.22-.55,1.7,1.7,0,0,0,.12.38,1.8,1.8,0,0,0-.06-.74,1.29,1.29,0,0,0,0-.19c0,.15.05.31.08.44a1.35,1.35,0,0,0,0-.69l0-.11s0,.06,0,.1a.69.69,0,0,0,.17-.22v.21a1.3,1.3,0,0,0,.24-1.11,2.91,2.91,0,0,1,0-.3,1.26,1.26,0,0,0,0-.33,2,2,0,0,1,0,.34,1.82,1.82,0,0,0,.13-.59,2,2,0,0,1,.12.34c.2-.24,0-.62-.17-.95a1.29,1.29,0,0,1-.1-.35l0-.14a1.31,1.31,0,0,1,.11.52.72.72,0,0,0,.05-.49,1.33,1.33,0,0,0,0-.86.61.61,0,0,0,0-.33s0-.06,0-.1a1.36,1.36,0,0,1,.09.52,2.56,2.56,0,0,0,.09-1,1.13,1.13,0,0,0,.05-.58.61.61,0,0,0,0-.14c0,.11,0,.23.05.32.23-.16.19-.73.17-1a.34.34,0,0,1,0-.1,1.72,1.72,0,0,1,.18.42c.13-.21,0-.56-.07-.8a5,5,0,0,0,0-.67,0,0,0,0,0,0,0,3.24,3.24,0,0,1,.15.74,2.85,2.85,0,0,0,0-.72,1.47,1.47,0,0,0-.25-.52c0-.07,0-.13,0-.2a1.74,1.74,0,0,0,.1-1.14.86.86,0,0,0,0-.16c0,.06.06.16.09.22.21-.36-.09-.65,0-1,.08,0,.09.16.11.23C228.43,112.42,228.32,112.12,228.34,111.78Zm-2.85,14.45s0,0,0,0,0,0,0,0Zm-43.06,2.34Zm33.42,0h0Zm-.49,1.34a1.63,1.63,0,0,0-.11.17.71.71,0,0,1,.21-.41A1.54,1.54,0,0,0,215.36,129.9Zm-32.44,0a1.44,1.44,0,0,0-.09-.24.85.85,0,0,1,.21.41Zm-10.13-3.75v0s0,0,0,0Zm42.49,3.31a3.23,3.23,0,0,0,0,.62c0,.07-.1.13-.14.2a2,2,0,0,1,0-.42A3.17,3.17,0,0,1,215.28,129.46Zm-32.13.4a3.13,3.13,0,0,1,0,.42,2.43,2.43,0,0,1-.14-.2,4.34,4.34,0,0,0-.05-.63A3.39,3.39,0,0,1,183.15,129.86Zm-13-14.09a1,1,0,0,0,.06-.29.64.64,0,0,1,0,.07s0,0,0,0Zm4.94,17c0-.1,0-.2,0-.31a0,0,0,0,1,0,0s0,0,0,0A2,2,0,0,0,175.13,132.72Zm48-.24v0h0c0,.1,0,.2,0,.3A1.75,1.75,0,0,0,223.12,132.48Zm4.9-16.93s0,0,0-.07a2.46,2.46,0,0,0,.07.29l-.08-.18Z"/><path fill="#532b12" d="M223.21,130.74a6.25,6.25,0,0,0,4.34-1.1,19.15,19.15,0,0,1-6.06-.84c-.33-.14-.63-.28-.92-.42a5.85,5.85,0,0,0,1.1,0c-.22-.48-1.25-.55-1.7-.64l-.65-.11a6.45,6.45,0,0,0-2.95-2,9.56,9.56,0,0,0-1.82-1.58A7.08,7.08,0,0,0,211,123a9.33,9.33,0,0,0-3-1.08c-.8-.17-2.34-.58-3,.1l-.14.1h0a33,33,0,0,0-5.59,1.91,29.45,29.45,0,0,0-4.95-1.64s0,0,0,0l-.14-.1c-.68-.69-2.22-.27-3-.1a9.16,9.16,0,0,0-3,1.08,7.08,7.08,0,0,0-3.51,1.1,9.25,9.25,0,0,0-1.83,1.58,6.37,6.37,0,0,0-2.93,2c-.24,0-.46.07-.66.11-.46.08-1.48.15-1.7.63a5.83,5.83,0,0,0,1.1,0c-.29.14-.59.28-.92.42a18.86,18.86,0,0,1-6.06.83,6.24,6.24,0,0,0,4.34,1.11,6.88,6.88,0,0,1-4.09.87c2,.34,5.67.59,7.58-.08-.53.3-2.29.87-2.89,1.16a14.24,14.24,0,0,0,4.37.17c-.26.1-.52.19-.77.3a2.85,2.85,0,0,0,1.83-.54,7.8,7.8,0,0,0,1.08-.42,2.69,2.69,0,0,1-1,1,3.35,3.35,0,0,0,1-.53,11.14,11.14,0,0,0,5.71-1.92,11.46,11.46,0,0,0,1.4-1.86,4.5,4.5,0,0,1-2.76,2.93,21.47,21.47,0,0,0,3.64-1.13,13,13,0,0,0,2.09-1.77c-.2.86.12.79.62,1.59.24-1.37,1.52-.62,2.13-2.23,0,1-.24,1.49,1.22,2.2,0-.58-.18-.76.19-1.2s.46-.31.83-.88c0-.05-.38.83,1.16,1.55-.1-1.65.76-1.42.77-.31.08-.52.25-1.14.4-1.8a2.43,2.43,0,0,0,1,1.64,2,2,0,0,1-.24-1.25c.16.09.33.17.53.3.54.38.84.08,1.08,1.62a2,2,0,0,0,.42-2.14c.51,1.33,1.26,1.61,2.6,1.71-.55-.68-.5-.91-.43-1.32a28.54,28.54,0,0,0,2.68,2,21.08,21.08,0,0,0,3.63,1.13A4.42,4.42,0,0,1,209,128.9a10.07,10.07,0,0,0,1.4,1.86,11.07,11.07,0,0,0,5.7,1.92,3.24,3.24,0,0,0,1,.53,2.69,2.69,0,0,1-1-1,8.37,8.37,0,0,0,1.08.43,2.9,2.9,0,0,0,1.83.53c-.25-.11-.51-.2-.77-.29a14.24,14.24,0,0,0,4.37-.17c-.6-.29-2.36-.87-2.89-1.17,1.91.67,5.55.43,7.58.08A6.8,6.8,0,0,1,223.21,130.74Zm-6.3-4.44-.07,0,0-.05Zm-34.48.23s0,0-.05,0l.09-.1Zm.75,6.4a9.73,9.73,0,0,0,.77-.63,4.6,4.6,0,0,0,.54-.61c.31-.22.63-.46.95-.72a4.55,4.55,0,0,1,.65-.35C185.07,131.63,184.72,132.72,183.18,132.93Zm32.15-.89c.2.18.48.41.77.63-1.54-.21-1.88-1.3-2.91-2.32a4.07,4.07,0,0,1,.65.35c.32.27.64.51.95.73A5.34,5.34,0,0,0,215.33,132Z"/><path fill="#c3a492" d="M180,63.23a3.3,3.3,0,0,0-5.63,0,32.34,32.34,0,0,0-5,14.47,55.89,55.89,0,0,0-.17,10.83c.18,1.74.25,3.48.49,5.17.13.89.45,4,1,4.6.22-3.78.86-7.86,2.59-11.1a85,85,0,0,0,4.51-8.51,48.23,48.23,0,0,0,2.12-7.82C180.33,68.74,181.32,65.26,180,63.23Z"/><path fill="#c3a492" d="M219.05,61.65c1.59-2.14,3.8-.66,5,1.39,2.55,4.41,4.61,8.07,6,13.21a28.58,28.58,0,0,1,.5,11.26c-.28,1.73-.46,3.45-.82,5.13-.18.88-.69,4-1.24,4.53,0-3.79-.36-7.91-1.89-11.25-1.34-3-2.92-5.61-3.95-8.77A48.9,48.9,0,0,1,221,69.21C220.71,67.05,217.6,63.59,219.05,61.65Z"/><path fill="#532b12" d="M224.05,48.93c-1.61-5.18-1.09-9.34-8.17-11a22,22,0,0,0-9.13,0c-2.78.44-5.88-.2-8.61.53a6.9,6.9,0,0,0-2.66,1.41c-.34-.16-.71-.33-1.11-.49-5.41-2.24-12.09-.18-14.26,4.77-1.16,2.62-.14,3.94-4,4.26-2.68.22-4.37-.91-6.06,1.38-3,4,.61,8.44-5.51,10.79-2.73,1.06-4.53.9-5.42,3.65-.66,2,8.77,16.31,10.56,13,3.87-7.06,1.71.75,10.23-4,7.84-4.35,2.73-7.42,12.66-8.93,3.86-.58,5.64-2.54,6.53-5.08a6.21,6.21,0,0,0,1.57,1c1.44.24,2.61-1.48,3.19-1.52.41,0,.83.82,1.31.89.84.12,3.61-.63,4.18-.43s1.2,2.17,2.54,2.5a6.45,6.45,0,0,0,3-.21c1.48,2.24,2.7,2.13,5.13,1.89,2.61-.26,3,4.61,5.4,5.36,4.77,1.52,5.87-.32,7.73-4.66C237.35,54.32,225.46,53.42,224.05,48.93Z"/><path fill="#532b12" d="M223.4,68a30.22,30.22,0,0,1,2.53,1.68,21.5,21.5,0,0,0,2.49,1.65,4.38,4.38,0,0,0,1.45.39,7.22,7.22,0,0,0,.81,0l.42,0h.14s.21,0,.17,0a1.51,1.51,0,0,0,.49-.74,5.59,5.59,0,0,0,.3-1.34,8.6,8.6,0,0,0-.09-2.7,9.48,9.48,0,0,0-.57-2c-.2-.47-.34-.76-.34-.76l.15-.14a4.17,4.17,0,0,1,.73.5,6,6,0,0,1,1.47,1.87,6.9,6.9,0,0,1,.71,3.38,5,5,0,0,1-.55,2,2.92,2.92,0,0,1-2.06,1.6,1.76,1.76,0,0,1-.28,0h-.3l-.48,0a8.42,8.42,0,0,1-1-.18,5.57,5.57,0,0,1-1.8-.77,15.19,15.19,0,0,1-2.37-2.14c-.63-.65-1.18-1.16-1.56-1.53l-.6-.57Z"/><path fill="#532b12" d="M217.68,63.25l.2-.19a1.82,1.82,0,0,1,.79-.35,4.11,4.11,0,0,1,2.83.74,5.06,5.06,0,0,1,.79.57,3.86,3.86,0,0,1,.68.84,6.29,6.29,0,0,1,.53.9,10.71,10.71,0,0,1,.47,1c.29.7.51,1.43.76,2.14s.49,1.43.78,2.1c.14.34.33.64.49.95l.6,1c.41.61.81,1.16,1.22,1.68A10.09,10.09,0,0,0,229.05,76a3.42,3.42,0,0,0,.65.5l.32.23.35.16a6.68,6.68,0,0,0,.67.31c.23.07.45.12.66.2.41.15.86.21,1.16.3a5.29,5.29,0,0,0,.75.12l.27,0,.06.19-.26.14a3.14,3.14,0,0,1-.82.24,7,7,0,0,1-1.27.15,5.51,5.51,0,0,1-1.75-.16l-.49-.11-.49-.21a5.83,5.83,0,0,1-1-.53,7.45,7.45,0,0,1-1.71-1.61A13.29,13.29,0,0,1,225,73.85l-.49-1.06c-.15-.39-.33-.78-.44-1.17-.26-.78-.45-1.56-.62-2.3s-.32-1.47-.53-2.14a9.42,9.42,0,0,0-.31-.94,7.29,7.29,0,0,0-.41-.91,3.23,3.23,0,0,0-1.06-1.3,3.78,3.78,0,0,0-2.38-1,1.39,1.39,0,0,0-.67.18l-.23.16Z"/><path fill="#532b12" d="M183.44,70.53l-.18.25c-.08.16-.14.37-.26.7s-.23.72-.4,1.19a5.45,5.45,0,0,1-.34.78c-.13.24-.27.5-.42.76a7.3,7.3,0,0,1-1.24,1.66,8.42,8.42,0,0,1-1.9,1.25c-.72.35-1.38.78-2.08,1.19s-1.39.84-2.13,1.3a5.92,5.92,0,0,0-1.65,1.27,5.41,5.41,0,0,0-.9,1.65c-.13.4-.18.62-.26.93s-.16.67-.26,1a5.87,5.87,0,0,1-1,2l0,.06-.11.13-.09.07-.16.14-.17.14a2.93,2.93,0,0,1-.26.18,2.58,2.58,0,0,1-1,.37,9.3,9.3,0,0,1-1.31,0,3.08,3.08,0,0,0-.75.1l-.27.08-.13-.15.19-.24a2.28,2.28,0,0,1,.74-.56c.35-.18.77-.34,1.14-.53a1.51,1.51,0,0,0,.39-.32,1.78,1.78,0,0,0,.35-.51,5.65,5.65,0,0,0,.41-1.55c.07-.32.13-.67.23-1a5.55,5.55,0,0,1,.41-1.17,6.31,6.31,0,0,1,1.63-2.19,5.1,5.1,0,0,1,2.51-1,5.85,5.85,0,0,0,2.16-.78,6.39,6.39,0,0,0,1.7-1.48c.46-.6,1-1.2,1.31-1.64s.77-.94,1.12-1.41l.54-.67c.14-.18.3-.36.45-.56a10.66,10.66,0,0,1,.85-1c.15-.13.27-.25.4-.35a3.57,3.57,0,0,1,.35-.22l.29-.09Z"/><path fill="#532b12" d="M179.5,75.08a3.81,3.81,0,0,1-.48.57,7.74,7.74,0,0,1-1.45,1.1,5.87,5.87,0,0,1-1.07.49,6.16,6.16,0,0,1-1.34.21,3.86,3.86,0,0,0-1.38.36,5,5,0,0,0-1.23.81c-.38.31-.83.65-1.14.88a8,8,0,0,0-.91.78c-.25.28-.49.52-.68.75a3.08,3.08,0,0,0-.45.68,2.61,2.61,0,0,0-.25.71,2.25,2.25,0,0,1-.06.36c0,.12,0,.23,0,.33s0,.38,0,.51v.19l-.18.1-.16-.11a2.9,2.9,0,0,1-.41-.4,2.55,2.55,0,0,1-.48-.78,2.9,2.9,0,0,1-.2-1.27,3.62,3.62,0,0,1,.45-1.48,3.9,3.9,0,0,1,1.1-1.19,6.5,6.5,0,0,1,1.43-.75,6.09,6.09,0,0,1,1.51-.32,5.18,5.18,0,0,0,1.43-.36,4.1,4.1,0,0,0,1.2-.77,6.75,6.75,0,0,1,1.07-.85,5.85,5.85,0,0,1,1.09-.45,7.47,7.47,0,0,1,1.78-.31,3,3,0,0,1,.74,0Z"/><g style="mix-blend-mode:screen" opacity=".3"><path fill="#532b12" d="M211.75,37.45l-1.08,0a4.23,4.23,0,0,1,.08.69c.06,3.23-2.87,5.59-3.06,8.61,1.37-.64,2.12-2.92,2.71-4.15.83-1.71.9-3.38,1.34-5.16Z"/><path fill="#532b12" d="M197.17,60.85c-2.7-1.41-2.7-3.2-3.48-5.57a18.4,18.4,0,0,0-1.91-3.2,42.72,42.72,0,0,1-1.93-4.18c-.86-1.95-1.63-5-.88-7.1a5.25,5.25,0,0,1,1.94-2.27c-4.48-.41-9,1.65-10.77,5.53,1.94,1.67,3.22,4.85,4.24,6.52.59,1,1.3,2.56,2.53,2.83.3-1.23-.93-2.1-1.47-3.12s-1.11-2.4-1.56-3.51a7.16,7.16,0,0,1-.79-3.34c.26-1.67,1-.83,1.46.38.78,2.28,1.09,4.75,2.29,7,1.35,2.49,3.7,4.3,5.11,6.7C192.93,59.21,194.82,61.18,197.17,60.85Z"/><path fill="#532b12" d="M198.69,38.75c1.29,1.91.65,3.84.45,5.93a25,25,0,0,0,1,8.52c.25,1,.62,1.87.86,2.8.3,1.15-.34,1.78-.39,2.81,2.39-1,1.77-3.36,1.35-5.11-.63-2.6-.22-5.22,0-7.9a20.56,20.56,0,0,0-.24-6.92c-.08-.31-.16-.57-.24-.8a14.12,14.12,0,0,0-3.06.31C198.51,38.51,198.6,38.62,198.69,38.75Z"/><path fill="#532b12" d="M220.88,40.88c0-.1.05-.21.07-.32a9.38,9.38,0,0,0-5.07-2.63c-.57-.13-1.12-.22-1.65-.3l0,.15c.3,1.53-.09,3.18-.14,4.76,1,0,1.32-1.25,1.66-1.92.81,1.45.12,3.88-.55,5.27s-2.72,3-2.87,4.54c1.7-1.31,2.9-3.26,4.75-4.63A9.33,9.33,0,0,0,220.88,40.88Z"/><path fill="#532b12" d="M176,57c-.83-.77-4.23-5.67-2-6.2a10.23,10.23,0,0,0,3.14,3.63c.45-1.25-2-3.95-2.58-5.1a9,9,0,0,1-.45-1c-1.59-.11-2.81-.25-4,1.41a6.34,6.34,0,0,0-.74,1.3,9.07,9.07,0,0,1,2.27,2.55c1.36,1.95,1.8,3.63,4.11,5a14.79,14.79,0,0,0,6,2C180,60.39,177.21,58.19,176,57Z"/><path fill="#532b12" d="M173.64,67a38.4,38.4,0,0,1-8.36-2.49A18.83,18.83,0,0,0,159.72,63a5,5,0,0,0-.56,1.22,1.69,1.69,0,0,0,0,.7c2.76-.08,7.28,2,8.53,2.43,3.33,1.18,9.74,2.21,12.56-.45a28.16,28.16,0,0,1-3,.5A20.75,20.75,0,0,1,173.64,67Z"/></g><g style="mix-blend-mode:multiply" opacity=".3"><path fill="#532b12" d="M205.67,59.63c-.39-2.4-1.21-4.4-1.21-7,0-3,0-5.94,0-8.91-1.42,2.47,0,14.12-2.57,15.11-3,1.18-5.24-10.28-6.14-11.93-.32,4.26.8,6.8,1.75,10.68,1,4.17-2.2,4.66-5.77,4.84-.09.23,0,.44-.08.68-3,.48-6.64-.28-9.63.57,2,2.37,1.7,2.37-.36,4,.72,1.18,2,1,3.3,1,1.15-1.93,1.75-3.38,7.63-4.27,3.86-.58,5.64-2.54,6.53-5.08a6.21,6.21,0,0,0,1.57,1c1.44.24,2.61-1.48,3.19-1.52.41,0,.83.82,1.31.89Z"/><path fill="#532b12" d="M216.64,62.67c-1.61-1.86-1.55-2.69-1.73-5.28-1,1-1,3.91-2.32,4.4a8.07,8.07,0,0,0,2.34-.3,3.85,3.85,0,0,0,2.34,1.9Z"/><path fill="#532b12" d="M207.24,59.41a7.85,7.85,0,0,1,2.15-.21c.42.14.84,1.12,1.5,1.82-.21-1.12.93-3,1.39-3.84a29.12,29.12,0,0,1,3.24-5c1.39-1.53,4-3,4.4-5a28.64,28.64,0,0,0-9,5.22C209.67,53.62,208.7,57.76,207.24,59.41Z"/></g><path d="M204.78,101.22c1.7,2.45,3.75,3.39,8.94,3.47,11.43.18,12.35-2.46,10.57-8.55-.56-1.93-5.54-2.06-10.71-1.94C198.47,94.54,203,98.61,204.78,101.22Z" style="mix-blend-mode:screen" fill="#a2c0cc" opacity=".3"/><path d="M192.33,101c-1.64,2.39-3.65,3.27-8.85,3.19-11.43-.18-12.65-2.63-10.79-8.63.7-2.29,5.47-2.15,10.65-1.86C198.24,94.53,194.07,98.47,192.33,101Z" style="mix-blend-mode:screen" fill="#a2c0cc" opacity=".3"/><path d="M208.76,94.75c5.09,1.35,10.86,1.49,15.71,4.63,0,0-.17-2.91-1.13-3.57C220.21,93.63,208.76,94.75,208.76,94.75Z" style="mix-blend-mode:screen" fill="#fff" opacity=".2"/><path fill="#231f20" d="M170.38,96.92c0,.57.54,5.64,2.09,6.62,2.49,1.58,13.16,2.65,16.46,1.16,5.28-2.37,6.77-7,7.77-8.11a2.6,2.6,0,0,1,1.77-.55,2.76,2.76,0,0,1,1.79.6c1,1.14,2.63,5.83,8,8.37,3.35,1.59,14,.86,16.44-.64,1.52-.93,1.92-6,1.91-6.56s.58-3-1.17-4-16.71-.48-18.74-.34-7,.21-8.25.19-6.23-.26-8.27-.46-17-1.2-18.73-.24S170.37,96.34,170.38,96.92Zm43.17-2.73c5.18-.11,10.15,0,10.72,2,1.78,6.08.86,8.73-10.57,8.55-5.19-.09-7.25-1-8.94-3.48C202.94,98.6,198.44,94.53,213.55,94.19Zm-40.89,1.38c.71-2.28,5.47-2.14,10.65-1.86,14.91.81,10.74,4.75,9,7.31-1.64,2.39-3.66,3.27-8.85,3.19C172,104,170.81,101.57,172.66,95.57Z"/><path d="M177.23,93.89c5,1.47,11,2.52,14.66,5.81,0,0,1.47-3,.69-3.74C190,93.53,177.23,93.89,177.23,93.89Z" style="mix-blend-mode:screen" fill="#fff" opacity=".2"/><path d="M193.06,93.76c0,.31,9,.64,12,.21,5.68-.79,18.53.18,19.38-.16.35-.15-7.39-.59-16.43-.16C196.39,94.21,193.06,93.44,193.06,93.76Z" style="mix-blend-mode:screen" fill="#f6f7f7" opacity=".6"/><polygon fill="#191717" points="225.83 94.57 230.08 90.69 230.43 90.69 229.37 94.46 226.06 99.34 226.34 94.71 225.83 94.57"/><path fill="#179ea3" d="M134.16,248.84s.15-1.41.59-3.85c.22-1.22.49-2.7.86-4.37.19-.84.38-1.73.59-2.68a6,6,0,0,1,.51-1.37c.21-.45.39-.93.59-1.42,1.55-3.87,3.42-8.38,5.52-13.17,1.05-2.39,2.17-4.85,3.33-7.34s2.39-5,3.68-7.5,2.6-5,4-7.36a72.71,72.71,0,0,1,4.56-6.89L167,181.58c.31-.41.63-.81.91-1.23a5.29,5.29,0,0,1,.92-1.13c.69-.66,1.35-1.29,2-1.89l3.13-3.1c1.75-1.72,2.8-2.68,2.8-2.68s-.56,1.29-1.63,3.53c-.54,1.11-1.18,2.48-2,4l-1.29,2.4a5,5,0,0,1-.84,1.19c-.32.38-.62.79-.94,1.2-2.51,3.33-5.45,7.2-8.6,11.35a65.68,65.68,0,0,0-4.28,6.49c-1.37,2.3-2.67,4.72-3.92,7.16s-2.46,4.92-3.62,7.38-2.25,4.89-3.29,7.26c-2.08,4.74-3.93,9.2-5.47,13-.2.48-.39,1-.54,1.42a5.94,5.94,0,0,1-.57,1.34l-1.36,2.35c-.84,1.48-1.6,2.76-2.23,3.82L134.68,248Z"/><path fill="#14828d" d="M134.16,248.84s.37-1.34,1.11-3.66c.39-1.15.85-2.55,1.38-4.16.28-.8.57-1.66.87-2.56s.73-1.8,1.1-2.78c1.56-3.86,3.41-8.35,5.51-13.12,1.05-2.39,2.16-4.84,3.32-7.32s2.37-5,3.65-7.45,2.58-4.92,4-7.28a67.16,67.16,0,0,1,4.45-6.74c3.14-4.14,6.07-8,8.59-11.32.63-.83,1.21-1.64,1.81-2.38l1.71-2.08,2.7-3.44,2.36-3-2.07,3.21-2.42,3.66c-.48.7-1,1.44-1.54,2.22s-1.17,1.55-1.8,2.38l-8.59,11.34a66.75,66.75,0,0,0-4.38,6.63c-1.39,2.34-2.7,4.78-4,7.24s-2.47,5-3.63,7.42-2.26,4.91-3.31,7.29c-2.09,4.76-3.94,9.24-5.49,13.1-.39,1-.73,1.9-1.1,2.77l-1.08,2.47c-.66,1.55-1.24,2.91-1.71,4Z"/><path fill="#179ea3" d="M265.73,249.83l-.51-.89-1.44-2.53c-.61-1.08-1.36-2.4-2.19-3.92l-1.33-2.41a5.69,5.69,0,0,1-.55-1.37c-.15-.48-.34-1-.53-1.45-1.49-3.93-3.29-8.5-5.31-13.36-1-2.42-2.09-4.92-3.21-7.43s-2.29-5.06-3.51-7.57c-.6-1.26-1.24-2.5-1.87-3.73s-1.29-2.44-1.95-3.63a67.73,67.73,0,0,0-4.19-6.7l-8.45-11.73c-.31-.43-.6-.85-.92-1.25a5.54,5.54,0,0,1-.83-1.23l-1.25-2.46c-.78-1.57-1.4-3-1.93-4.12-1-2.28-1.58-3.61-1.58-3.61s1,1,2.77,2.8l3.09,3.23,2,2a5.27,5.27,0,0,1,.9,1.17c.28.42.59.84.9,1.27l8.43,11.7a71.73,71.73,0,0,1,4.44,7.09c.69,1.24,1.37,2.48,2,3.75s1.3,2.53,1.91,3.81c1.25,2.56,2.43,5.14,3.57,7.68s2.21,5.07,3.24,7.52c2,4.9,3.85,9.51,5.36,13.47.19.5.37,1,.57,1.45a6.17,6.17,0,0,1,.5,1.4c.19,1,.38,1.87.55,2.73.36,1.7.61,3.2.82,4.44C265.6,248.4,265.73,249.83,265.73,249.83Z"/><path fill="#14828d" d="M265.73,249.83s-.51-1.31-1.42-3.6c-.46-1.14-1-2.53-1.67-4.12l-1.05-2.53c-.36-.89-.69-1.84-1.07-2.83-1.5-3.94-3.3-8.53-5.33-13.4-1-2.43-2.09-4.94-3.22-7.47s-2.3-5.08-3.54-7.6c-.6-1.28-1.24-2.52-1.88-3.77s-1.3-2.47-2-3.67a69.19,69.19,0,0,0-4.29-6.85l-8.44-11.72c-.61-.86-1.23-1.66-1.76-2.46l-1.51-2.28c-.92-1.46-1.71-2.74-2.37-3.78l-2-3.31,2.32,3.11c.74,1,1.63,2.18,2.66,3.56l1.69,2.15c.59.76,1.15,1.6,1.78,2.45l8.43,11.71a71,71,0,0,1,4.35,7c.68,1.22,1.36,2.45,2,3.71s1.29,2.5,1.89,3.78c1.25,2.53,2.41,5.1,3.55,7.64s2.21,5.05,3.23,7.48c2,4.89,3.84,9.48,5.34,13.43.37,1,.76,1.93,1.07,2.84s.58,1.79.84,2.61l1.34,4.25C265.38,248.47,265.73,249.83,265.73,249.83Z"/><path fill="#179ea3" d="M197.81,179.78a45.29,45.29,0,0,1-6.38-.44,59,59,0,0,1-16.19-4.61c-2.33-1.08-10.09-5-12-9.82a3.5,3.5,0,1,1,6.5-2.6c.51,1.27,4,4,8.47,6.06a51.42,51.42,0,0,0,14.21,4c9.8,1.36,20.09-1,30.59-7.08.6-.34,1.27-.7,2-1.06,1.54-.8,4.11-2.14,4.58-3.14a3.5,3.5,0,1,1,6.34,3c-1.48,3.15-4.92,4.94-7.69,6.38-.61.32-1.2.62-1.72.91C216.8,177,207.19,179.78,197.81,179.78Z"/><path fill="#e0e0e0" d="M286.65,221.45H106.53a4.47,4.47,0,0,0-4.53,5.08l11.91,84.73a5,5,0,0,0,5,4.05H274.28a5.33,5.33,0,0,0,3.82-1.65,4.24,4.24,0,0,0,1.16-2.4l11.92-84.73A4.48,4.48,0,0,0,286.65,221.45Z"/><path d="M283.77,224.34H114.7c89.84,2.46,141.54,1.15,164.29,5.39,11.32,2.12.3,43.25-.78,79.18l9.84-79.82A4.21,4.21,0,0,0,283.77,224.34Z" style="mix-blend-mode:screen" fill="#eaeaea" opacity=".6"/><path d="M106.19,234.21c-2.16-2-4.51-10.46-4.19-7.68l11.91,84.73a5,5,0,0,0,5,4.05H274.28S184.52,304.88,106.19,234.21Z" style="mix-blend-mode:multiply" fill="#616161" opacity=".05"/><path fill="#8a8a8a" d="M278,318.62a2.28,2.28,0,0,1-2.31,1.86H117.52a2.27,2.27,0,0,1-2.3-1.86l-.2-1.77a1.77,1.77,0,0,1,1.91-1.88H276.24a1.77,1.77,0,0,1,1.91,1.88Z"/><path d="M278,318.13c-.05.45-1,.82-2.2.82H117.36c-1.16,0-2.15-.37-2.2-.82l-.08-.78c0-.46.85-.83,2-.83h159c1.16,0,2.07.37,2,.83Z" style="mix-blend-mode:screen" fill="#a9a9ab" opacity=".2"/><rect width="395.11" height="20.31" x="15.04" y="319.85" fill="#995949" rx="1.85"/><path d="M408.31,319.85H16.89A1.84,1.84,0,0,0,15,321.69H410.16A1.84,1.84,0,0,0,408.31,319.85Z" style="mix-blend-mode:screen" fill="#995949" opacity=".5"/><path d="M15,338.31a1.85,1.85,0,0,0,1.85,1.85H408.31a1.85,1.85,0,0,0,1.85-1.85Z" style="mix-blend-mode:multiply" fill="#995949" opacity=".5"/><path fill="#d0d0d0" d="M347,269.75c5.59,14.3,9.38,26.18,8.47,26.54s-6.18-11-11.77-25.25-7.18-20.54-6.27-20.9S341.45,255.45,347,269.75Z"/><path fill="#e9e9e9" d="M347,269.75c5.59,14.3,9.38,26.18,8.47,26.54s-5.61-12.85-11.21-27.15-7.74-18.64-6.83-19S341.45,255.45,347,269.75Z"/><path fill="url(#a)" d="M387.09,278.7c-4.81,2.57-2.76,6.85-.83,5.37,6.77-5.18,9.31.85,4.54,9.38-5.54,9.89-18,16.76-12.95,15.92,6.61-1.11,16.43-11.63,18.81-18C399.83,282.92,394.47,274.76,387.09,278.7Z"/><path d="M387.09,278.7c-4.81,2.57-3.59,8.16.7,3.42,5.46-6,11.31,2.4,5,12s-20,16.06-15,15.22c6.61-1.11,16.43-11.63,18.81-18C399.83,282.92,394.47,274.76,387.09,278.7Z" style="mix-blend-mode:screen" fill="#cf2d2d" opacity=".5"/><path fill="url(#b)" d="M344,276.1c-1.77,0-1.19,2.74-1.19,15.86s6.7,22.39,13.24,28.17h21A37.6,37.6,0,0,0,389.28,292c0-13.09.33-15.86-1.43-15.86Z"/><path d="M377.43,278.93s.6,6.84.6,20c0,9.13-1.26,15.58,2.34,13.36,2.51-1.55,3.71-4.33,3.71-17.58,0-13.09-.49-15.74-.49-15.74Z" style="mix-blend-mode:screen" fill="#d42724" opacity=".5"/><path d="M387.64,276.35c2.59,0-1.22.9-4,1-12.84.53-32.38-.34-32.38-.57s4.55-.09,16.48-.18C378.42,276.54,385.86,276.35,387.64,276.35Z" style="mix-blend-mode:screen" fill="#d42724" opacity=".2"/><path fill="#dcdcdc" d="M356.83,271.73l-.81.11a12,12,0,0,1-2.34.08,9,9,0,0,1-3.77-.92l-.56-.29-.54-.42a4.57,4.57,0,0,1-1-1.09,5.53,5.53,0,0,1-.89-3.07,8.19,8.19,0,0,1,.14-1.57,12.46,12.46,0,0,1,.41-1.48,13.3,13.3,0,0,1,1.32-2.74,27.34,27.34,0,0,1,4-4.77,49.34,49.34,0,0,0,4.26-4.83,25.52,25.52,0,0,0,1.82-2.7,8.63,8.63,0,0,0,1.12-2.79,1.85,1.85,0,0,0,0-.25v0l0-.21-.14-.82a3,3,0,0,0-.21-.69c-.09-.21-.13-.4-.24-.61a12.15,12.15,0,0,0-1.5-2.41,28.24,28.24,0,0,1-2-2.72,7.19,7.19,0,0,1-1.11-4,8,8,0,0,1,.34-2c.09-.3.18-.61.29-.89l.36-.8a9.21,9.21,0,0,1,.81-1.46l.43-.68.11-.16.05-.09.11-.15.22-.29.44-.55.58-.62a12.28,12.28,0,0,1,1.15-1.07c.76-.62,1.51-1.16,2.19-1.63a16.41,16.41,0,0,0,3.25-2.53,5.84,5.84,0,0,0,1.34-2.66,10.09,10.09,0,0,0,.28-2.14c0-.52.05-.8.05-.8l.37-.07.29.77a8.71,8.71,0,0,1,.51,2.34,6.85,6.85,0,0,1-.79,3.92,14.77,14.77,0,0,1-3.21,3.78c-.62.56-1.22,1.12-1.77,1.71-.26.3-.57.61-.77.88l-.35.43-.4.59a13.19,13.19,0,0,0-2,4.38,3.66,3.66,0,0,0,.39,2c.35.76,1,1.61,1.61,2.63a11.14,11.14,0,0,1,1.44,3.46,9.74,9.74,0,0,1,.19,2l0,.83v.21a1.69,1.69,0,0,1-.05.37,4,4,0,0,1-.14.57,12.84,12.84,0,0,1-1.95,3.07l-2.07,2.62a39.56,39.56,0,0,0-3.57,5.32c-1,1.81-1.89,3.59-2.69,5.18a13.4,13.4,0,0,0-1.56,4.28,2.74,2.74,0,0,0,1.14,2.67l.31.26.36.21a7.1,7.1,0,0,0,.7.41c.49.2.94.45,1.38.6l1.18.43.93.29.77.27Z" opacity=".2"/><path fill="#dcdcdc" d="M380,273.2s-.05-.32-.13-.92a4.08,4.08,0,0,0-.2-1.06,12.22,12.22,0,0,0-.43-1.3c-.34-1-1-2.12-1.56-3.67a9.61,9.61,0,0,1-.64-2.72,10.56,10.56,0,0,1,0-1.66c.06-.45.13-.92.19-1.39a16.83,16.83,0,0,1,.63-1.76,9.76,9.76,0,0,1,1-1.56,13.63,13.63,0,0,1,1.11-1.3c.33-.37.72-.73,1-1.09a23.29,23.29,0,0,0,3.26-5.37,6.23,6.23,0,0,0,.46-3.18,6,6,0,0,0-1.5-3,36.16,36.16,0,0,0-5.69-4.87c-2-1.53-4.1-3-6-4.77a40.88,40.88,0,0,1-5.19-5.65,17.25,17.25,0,0,1-1.9-3.38l-.37-.9-.09-.22-.05-.11c0-.07,0,.12-.05-.17V223l-.1-.4-.19-.82-.09-.4c0-.15,0-.35-.05-.52a8.65,8.65,0,0,1,0-2.09c.05-.33.09-.66.13-1a7.44,7.44,0,0,1,.28-1,9.88,9.88,0,0,1,1.79-3.11,45.14,45.14,0,0,1,3.93-3.6,8.82,8.82,0,0,0,2.22-2.82,5.38,5.38,0,0,0,.46-1.28,3.65,3.65,0,0,0,.19-1c.08-.58.12-.89.12-.89l.37-.06s.08.32.22.92a4.07,4.07,0,0,1,.17,1.16,5.71,5.71,0,0,1-.09,1.61,9.08,9.08,0,0,1-1.82,4c-.95,1.35-2.22,2.62-3.12,4a6.25,6.25,0,0,0-.91,2.12,5.74,5.74,0,0,0,0,2.26c0,.1,0,.18,0,.29l.11.4.22.8.11.41v.08c-.08-.28,0-.07,0-.12l0,.08.08.17.29.67a20.7,20.7,0,0,0,1.42,2.76,44.57,44.57,0,0,0,4.31,5.49c1.66,1.78,3.33,3.7,5,5.61s3.5,3.66,5.18,5.64a10.08,10.08,0,0,1,1.93,3.47,9.87,9.87,0,0,1,.16,4,21.07,21.07,0,0,1-.94,3.62l-.29.8a9,9,0,0,1-.41.88l-.45.84-.53.77c-.71,1-1.54,1.78-2.05,2.4a6.35,6.35,0,0,0-.68,1c-.17.32-.27.63-.43.94s-.23.91-.34,1.35a8.14,8.14,0,0,0-.12,1,9.55,9.55,0,0,0,.15,2.13c.12.7.3,1.4.42,2.08a14.08,14.08,0,0,1,.29,1.91,8.87,8.87,0,0,1,0,1.62,4.32,4.32,0,0,1-.19,1.13c-.16.58-.25.89-.25.89Z" opacity=".2"/><path fill="#dcdcdc" d="M359.09,270.23a37,37,0,0,1-.78-3.82c-.1-.62-.17-1.3-.24-2.06a16.17,16.17,0,0,1-.11-2.48c0-.46,0-.92,0-1.41s.14-1,.23-1.52a14.87,14.87,0,0,1,1-3.26,15.43,15.43,0,0,1,.87-1.59,10.76,10.76,0,0,1,1-1.54,20.35,20.35,0,0,1,2.5-2.75c1.85-1.76,4-3.05,6-4.62a12.49,12.49,0,0,0,4.62-5.93,8.16,8.16,0,0,0,.22-3.74A11,11,0,0,0,373,232a8.09,8.09,0,0,0-.53-.7,2.11,2.11,0,0,1-.23-.19l-.29-.21a9.06,9.06,0,0,0-1.5-.76,9,9,0,0,1-2.18-1.28,5.23,5.23,0,0,1-1.69-2.85,7.6,7.6,0,0,1-.19-1.45v-1l.06-.48,0-.25a3.29,3.29,0,0,1,.08-.34,8.22,8.22,0,0,1,.33-1,8.51,8.51,0,0,1,.75-1.27c1.07-1.48,2.13-2.3,2.8-3.13a4.39,4.39,0,0,0,1.14-2,1.8,1.8,0,0,0,.06-.48v-.15c0-.05,0,.38,0,.18v-.14l0-.46a6.1,6.1,0,0,0-.19-1.25,22.75,22.75,0,0,0-2.51-5.33c-1-1.74-2.06-3.36-2.88-4.89a27.59,27.59,0,0,1-1.92-4.14,14.1,14.1,0,0,1-.74-2.88c-.06-.68-.1-1-.1-1l.49-.13.51.85a20,20,0,0,0,1.6,2.23c.35.46.8.95,1.25,1.49s1,1.09,1.57,1.7c1.14,1.21,2.44,2.59,3.85,4.23a21.76,21.76,0,0,1,3.9,6.39,12.85,12.85,0,0,1,.5,2.29l.05.45v.48l0,.33a5.82,5.82,0,0,1-.16,1.37,8,8,0,0,1-1,2.58,10.69,10.69,0,0,1-1.59,1.92c-1.08,1.07-2.15,1.87-2.72,2.51-.16.16-.23.3-.34.42l0,0s0,.07-.06.15L371,224l0,.12,0,.06c0,.2,0-.23,0-.18v0l0,.18-.05.36c0,.2,0,.43,0,.58a1,1,0,0,0,.21.7,5.22,5.22,0,0,0,1.22,1.05,11,11,0,0,1,1.85,1.65l.42.54.4.64a9.22,9.22,0,0,1,.47,1.12,16.93,16.93,0,0,1,.8,4.45,13.39,13.39,0,0,1-.63,4.38,19.32,19.32,0,0,1-1.84,3.86,39,39,0,0,1-2.3,3.45c-1.59,2.19-3.28,4.17-4.75,5.84-.81.82-1.39,1.66-2.1,2.42a8.07,8.07,0,0,0-.86,1.16,12.54,12.54,0,0,0-.76,1.14,14.16,14.16,0,0,0-1.05,2.33c-.13.4-.26.79-.4,1.16s-.17.81-.27,1.19c-.42,1.53-.59,3-.87,4.17-.43,2.42-.83,3.8-.83,3.8Z" opacity=".2"/></g></svg>