<svg xmlns="http://www.w3.org/2000/svg" data-name="layer 1" viewBox="0 0 120 90"><defs><clipPath id="a"><path fill="none" d="M11.29,75S7,69.24,9.05,62.33s7.31-12.19,5.61-20.19c-2-9.49,2.68-17.25,11.06-16.47,15.09,1.42,24.06-9,29.18-10.12C70.07,12.36,72.84,24,81,25.17c17.67,2.45,23.14,10.31,22.51,25.38-.21,5,13.32,14.88,5.55,24.45Z"/></clipPath></defs><path fill="#e2e9fb" d="M11.29,75S7,69.24,9.05,62.33s7.31-12.19,5.61-20.19c-2-9.49,2.71-17.5,11.06-16.47,14,1.73,24.06-9,29.18-10.12C70.07,12.36,72.84,24,81,25.17c17.67,2.45,23.14,10.31,22.51,25.38-.21,5,13.32,14.88,5.55,24.45Z"/><g clip-path="url(#a)"><rect width="1.52" height="37.42" x="38.05" y="5.22" fill="#d3ddf8" transform="rotate(90 38.81 23.93)"/><rect width="1.52" height="37.42" x="38.05" y="16.8" fill="#d3ddf8" transform="rotate(90 38.81 35.51)"/><rect width="1.52" height="37.42" x="38.05" y="28.38" fill="#d3ddf8" transform="rotate(90 38.81 47.09)"/><rect width="1.5" height="33.93" x="19.8" y="13.92" fill="#d3ddf8"/><rect width="1.5" height="33.93" x="32.13" y="13.92" fill="#d3ddf8"/><rect width="1.5" height="33.93" x="44.45" y="13.92" fill="#d3ddf8"/><rect width="1.5" height="33.93" x="56.78" y="13.92" fill="#d3ddf8"/><path fill="#d3ddf8" d="M29.55,40.82A4.16,4.16,0,0,0,29,42.29c-.09.36-.17.72-.25,1.08h-.23a26.87,26.87,0,0,1,.58-3,1.71,1.71,0,0,1,1.3-1.25c.56-.17,1.13-.31,1.69-.46a12.13,12.13,0,0,0-2.26.24,7.53,7.53,0,0,0-.87.26A32.66,32.66,0,0,1,30.3,36,8.52,8.52,0,0,0,28,43.37h-.22l0,0a33.14,33.14,0,0,0-.7-3.32,5.77,5.77,0,0,0-2-2.34c-.08-.06-.15,0-.12.11.41,1,1.09,1.73,1.51,2.67.34.76.62,1.57.89,2.36a2.14,2.14,0,0,0-1.4-.74c-.95-.12-1.37.45-1.67,1.29,0,.09.1.15.15.07a1.77,1.77,0,0,1,1.6-.69,2.33,2.33,0,0,1,1.44.62h-.67l.52,3.24h1.82l.52-3.24h-.45c.15-.36.28-.74.45-1.11s.44-.91,1-.83a9.06,9.06,0,0,1,1.16.33C32,41.78,30.09,40.18,29.55,40.82Z"/><path fill="#d3ddf8" d="M92.34,26.4V47.85h21.07V26.4Zm17.92,18.24H95.49v-15h14.77Z"/><path fill="#d3ddf8" d="M83.18,37.83v7.58h7.43V37.83Zm6.32,6.44H84.29V39H89.5Z"/><path fill="#d3ddf8" d="M74.06,37.83v7.58H81.5V37.83Zm6.33,6.44H75.18V39h5.21Z"/><path fill="#d3ddf8" d="M74.06,27.29v7.57H81.5V27.29Zm6.33,6.44H75.18V28.42h5.21Z"/><path fill="#d3ddf8" d="M64.9,37.83v7.58h7.43V37.83Zm6.32,6.44H66V39h5.21Z"/></g><rect width="17.83" height="13.33" x="56.67" y="24.29" fill="#fff" rx="1.16"/><polygon fill="#fff" points="72.08 36.19 75.31 41.66 69.03 36.92 72.08 36.19"/><polygon fill="#208674" points="78.93 74.95 78.56 74.95 79.18 65.83 79.96 65.83 78.93 74.95"/><polygon fill="#005644" points="83.22 74.95 82.85 74.95 83.47 65.83 84.25 65.83 83.22 74.95"/><polygon fill="#005644" points="95.29 74.95 95.66 74.95 95.22 65.83 94.44 65.83 95.29 74.95"/><polygon fill="#208674" points="91 74.95 91.37 74.95 90.93 65.83 90.15 65.83 91 74.95"/><path fill="#208674" d="M78.66,66.24c.22-1.17,1.27-5.73,4.31-5.8s4,4.62,4.26,5.8h.55a14.36,14.36,0,0,0-.88-3.06C86,61,84.61,59.87,83,59.9S80,61.09,79,63.24a13.76,13.76,0,0,0-.9,3Z"/><path fill="#208674" d="M96.41,48.75l-.64,13.08-2,2.9-4.53.36c-.08.85-.14,1.38-.14,1.38H77.93a4.15,4.15,0,0,1,0-2.95c.43-1,3.81-1.14,5.93-1.11,1,0,1.71.06,1.71.06v0c0-.66.88-12.52,2.25-13.61h0l.1-.06.07,0h0a17.46,17.46,0,0,1,4.51-.36A18,18,0,0,1,96.41,48.75Z"/><path fill="#005644" d="M96.41,48.75l-.64,13.08-2,2.9-4.53.36c-.08.85-.14,1.38-.14,1.38H79a4.09,4.09,0,0,1,0-2.95c.36-.86,2.83-1.08,4.86-1.11.64,0,1.24,0,1.71,0,.65,0,1.07,0,1.07,0S87.46,50,88.89,48.82h0l.09-.06.07,0h0a13.7,13.7,0,0,1,3.44-.36A18,18,0,0,1,96.41,48.75Z"/><path fill="#208674" d="M95.41,66.47H84.27a4.09,4.09,0,0,1,0-2.95c.62-1.5,9.09,0,9.09,0s1.29-14.86,3-14.73c.47,0,.79.37,1,.91C98.57,52.71,95.41,66.47,95.41,66.47Z"/><path fill="#ffc17d" d="M72.59,73.4c.36.17.63,1.3.63,1.3H69.93s.77-.31,1.53-.66S72.32,73.27,72.59,73.4Z"/><rect width="3.29" height=".3" x="69.93" y="74.7" fill="#ffa44a"/><path fill="#ffc17d" d="M78.42,73.4c.35.17.63,1.3.63,1.3H75.76s.77-.31,1.53-.66S78.14,73.27,78.42,73.4Z"/><rect width="3.29" height=".3" x="75.76" y="74.7" fill="#ffa44a"/><path fill="#635dad" d="M74.84,60.48c-.7,1.08-3,13.34-3,13.34l1.15.26,4.65-11s5.34-.17,6-1.23a6.31,6.31,0,0,0,.62-2.74c-.3,0,1.7-1.73,1.7-1.73C81.42,57.4,75.37,59.66,74.84,60.48Z"/><path fill="#443e90" d="M77.68,63.1,73,74.08,72.64,74s4-12.16,4.36-13.14c.69-1.8,6.12-3,6.12-3l-2.5,5A17.8,17.8,0,0,1,77.68,63.1Z"/><path fill="#635dad" d="M77.75,61.19c-.38,1,0,12.57,0,12.57l1,0L81.53,63s7,.65,7.7-.41a14.62,14.62,0,0,0,1-3.89A31.11,31.11,0,0,1,87,57.37C82.46,57.37,78.09,60.27,77.75,61.19Z"/><path fill="#443e90" d="M80.89,62.37c-.37,1-2.59,11.4-2.59,11.4l.52,0L81.53,63s7,.65,7.7-.41a14.62,14.62,0,0,0,1-3.89A31.11,31.11,0,0,1,87,57.37C91.21,65,81.23,61.45,80.89,62.37Z"/><path fill="#ffc17d" d="M84.25,46.22c-1.77.12-4.23,7-5.49,8.45-1.08,1.23,2.53,2.82,3.44,2.21S85.29,46.15,84.25,46.22Z"/><path fill="#ffa44a" d="M84.25,46.22C82.25,48,83.27,57,80,56.28c0,0,1.4,1.32,2.18.6C84.17,55.05,88.1,46.37,84.25,46.22Z"/><path fill="#ffa47f" d="M84.42,43.34l.1.27a5.73,5.73,0,0,1,.16.69,4.85,4.85,0,0,1,.07.63,6.26,6.26,0,0,1,0,1.09,4.09,4.09,0,0,0,3.66-.33,6.37,6.37,0,0,1-.21-.86A12.49,12.49,0,0,1,88,43.39a0,0,0,0,1,0,0v0Z"/><path fill="#f27049" d="M84.42,43.34l.1.27a3.23,3.23,0,0,1,.16.69,4.85,4.85,0,0,1,.07.63,4.28,4.28,0,0,0,2.46.37,2.24,2.24,0,0,0,1-.47A12.49,12.49,0,0,1,88,43.39a0,0,0,0,1,0,0v0Z"/><path fill="#ffc17d" d="M88.49,45.22s2.33,1.57,3.2,2.25c0,0-1.64,10.15-1.42,13.18,0,0-7-1.22-8.35-2.79a22.55,22.55,0,0,0,1.35-6.27c0-2.65.24-5.05,1.3-5.74C84.57,45.85,86.18,46.93,88.49,45.22Z"/><path fill="#ffa44a" d="M91,52.37s-1,7-.7,8.28A22.1,22.1,0,0,1,87.09,60s2.48-3.75,2.42-6.14c-.14-5,2.15-6.37,2.15-6.37S90.53,51.34,91,52.37Z"/><path fill="#ffc17d" d="M91.66,47.46c2.26,1.43,3.29,7.86,2.39,11.83-.28,1.24-1.71,1.2-2.94.35-.86-.59-.36-1.3-.45-1.56-.2-.64-.85-5.66-.85-5.66S90.11,49.11,91.66,47.46Z"/><rect width="9.34" height=".42" x="73.14" y="59.95" fill="#584441" transform="rotate(180 77.805 60.16)"/><polygon fill="#584441" points="82.48 60.37 86.7 59.7 86.7 59.29 82.48 59.95 82.48 60.37"/><polygon fill="#412014" points="86.7 59.29 76.1 58.97 73.14 59.95 82.48 59.95 86.7 59.29"/><path fill="#ffa47f" d="M81.6,59a.26.26,0,0,0,.07.15.4.4,0,0,0,.41,0c.43-.19.68-.44,1.17-.13a1,1,0,0,0,1.33.05.2.2,0,0,0,0-.27.44.44,0,0,0-.31-.35A4.67,4.67,0,0,0,82.91,58C82.51,58,81.56,58.41,81.6,59Z"/><path fill="#ffa47f" d="M81.2,58.56a.12.12,0,0,0,.07.12.51.51,0,0,0,.4,0c.43-.18.67-.39,1.17-.18a1.72,1.72,0,0,0,1.59.06c.09-.06.07-.54,0-.6s-.41.07-.58,0a5.55,5.55,0,0,0-1.4-.24C82.06,57.67,81.13,58.09,81.2,58.56Z"/><path fill="#ffa47f" d="M81,58.37a.12.12,0,0,0,.07.12.51.51,0,0,0,.4-.05c.43-.18.67-.39,1.17-.18a1.25,1.25,0,0,0,1.33,0A.14.14,0,0,0,84,58c0-.14-.15-.19-.32-.25a5.55,5.55,0,0,0-1.4-.24C81.86,57.48,80.93,57.9,81,58.37Z"/><path fill="#ffa47f" d="M81.24,57.91h0a1.26,1.26,0,0,1,.58-.53A1.66,1.66,0,0,1,83,57.12a12.24,12.24,0,0,1,1.89.45l-.7.35c-.08.48-.92.28-1.35.1s-.74,0-1.17.18a.47.47,0,0,1-.4,0,.12.12,0,0,1-.07-.11A.31.31,0,0,1,81.24,57.91Z"/><path fill="#584441" d="M73.4,60h9.3l-1.22-5.83a.36.36,0,0,0-.34-.29H72.76a.54.54,0,0,0-.5.68Z"/><path fill="#584441" d="M73.17,60h9.31l-1.23-5.83a.34.34,0,0,0-.34-.29H72.36a.4.4,0,0,0-.37.49Z"/><path fill="#412014" d="M75.29,60h7.19l-1.23-5.83a.34.34,0,0,0-.34-.29H77.23Z"/><path fill="#fff" d="M88.49,45.22a4.37,4.37,0,0,1-3.29.89l.2,1.12S88.52,46.65,88.49,45.22Z"/><path fill="#fff" d="M85.2,46.11l-.67.93a6,6,0,0,1-.21-1,.77.77,0,0,1,.43-.28S84.79,46.06,85.2,46.11Z"/><path fill="#ffc17d" d="M89.62,58.7a2.45,2.45,0,1,0,2.44-2.24A2.34,2.34,0,0,0,89.62,58.7Z"/><path fill="#e3c883" d="M89.62,58.7a2.45,2.45,0,0,0,4.88,0C93,61.07,90.86,60,89.62,58.7Z"/><path fill="#ffa47f" d="M93.87,59c0,.29-.2,1.64-1.32,1.68-2.79.12-8.25-1.52-8.25-1.52l0-1.69s7.39-.28,8.29,0A1.59,1.59,0,0,1,93.87,59Z"/><path fill="#f27049" d="M93.71,59.76a8.22,8.22,0,0,1-2.85.19c-1.68-.16-6.56-.82-6.56-.82s6.49,2,8.59,1.46A1.15,1.15,0,0,0,93.71,59.76Z"/><path fill="#ffa47f" d="M88.55,41.74s-.28,1.95-1,2.33-3.07.42-3.58-.2-.41-5.72-.22-6.12,3.49-1.87,4.61-.24S88.55,41.74,88.55,41.74Z"/><path fill="#9f4424" d="M82.93,35.77c.7-.8,2.58-.75,4.31-.54a3.65,3.65,0,0,1,2.35,2c.35.12.63,1,.51,1.66-.44,2.39-1.63,2.8-1.85,2.74-1-.3-1.13-2.27-.56-3.77a7.32,7.32,0,0,0-2.68,0,4.43,4.43,0,0,1-2.2,0C82.15,37.44,82.55,36.21,82.93,35.77Z"/><path fill="#412014" d="M87.08,38.34a3.31,3.31,0,0,0-1.53-.16.94.94,0,0,0,0,.68A6.58,6.58,0,0,0,87,38.75.92.92,0,0,0,87.08,38.34Z"/><path fill="#412014" d="M83.27,38.6a3,3,0,0,1,1.42-.43,1,1,0,0,1,.09.66,5.68,5.68,0,0,1-1.4.16A1,1,0,0,1,83.27,38.6Z"/><path fill="#412014" d="M86.27,40c0,.29-.22.48-.39.42s-.3-.35-.25-.67.24-.51.42-.42A.65.65,0,0,1,86.27,40Z"/><path fill="#412014" d="M84.34,40c0,.29-.13.52-.27.51s-.26-.26-.25-.57.15-.54.29-.51S84.36,39.69,84.34,40Z"/><path fill="#9f4424" d="M87.74,40.81a.14.14,0,0,0-.22,0,5.17,5.17,0,0,0-.22.86,1.23,1.23,0,0,1-1.86.57c-.32-.16-.36-.56-.58-.85,0,0-.53-.05-.55.06-.12.6-.66.36-.83.79a11.37,11.37,0,0,0-.17,1.67c0,.73.16,1.47.78,1.59s2.87-.27,3.35-.9a8.39,8.39,0,0,0,1.38-2.82C88.85,41.68,87.84,40.93,87.74,40.81Z"/><path fill="#9f4424" d="M83,42.25a5.51,5.51,0,0,1,1.25-.51c.25,0,.54.06.75.1a4.48,4.48,0,0,1,1.26.67c.11.12-1,.32-1.77.27S83.17,42.56,83,42.25Z"/><path fill="#4c2e2d" d="M85.28,42.58a2.11,2.11,0,0,1-1.45-.09s0,.79.48.92S85.08,43,85.28,42.58Z"/><path fill="#fff" d="M83.83,42.49a1.64,1.64,0,0,0,.11.35,1.94,1.94,0,0,0,1.17.08,3.32,3.32,0,0,0,.17-.34A2.31,2.31,0,0,1,83.83,42.49Z"/><path fill="#ffa47f" d="M84.71,40.47s-.45,1-.35,1.29.85.11.85.11Z"/><path fill="#f27049" d="M84.71,40.47a5.05,5.05,0,0,1-.12.56c0,.18-.09.36-.12.53s0,.16,0,.17a.38.38,0,0,0,.18.08,4.63,4.63,0,0,0,.55.06,1.37,1.37,0,0,1-.57.14.54.54,0,0,1-.33-.12.27.27,0,0,1-.08-.2,1,1,0,0,1,0-.17A2.59,2.59,0,0,1,84.71,40.47Z"/><path fill="#412014" d="M89.59,37.23s1.24.7.15,2.91-1.69,3.91-2.3,4.49a6.77,6.77,0,0,1-2.53.9s2.78-1.56,3.4-3.62C88.62,40.9,89.77,38.57,89.59,37.23Z"/><path fill="#ffa47f" d="M88.44,40.68c.23-.23,1.19-.52,1.32-.12.19.63-.56,1.84-1.45,1.35C88,41.73,88.24,40.89,88.44,40.68Z"/><path fill="#f27049" d="M88.61,41.09s.71-.48.78-.26c.13.41-.46.76-.62.82,0,0,.32-.36.24-.52S88.61,41.09,88.61,41.09Z"/><path fill="#412014" d="M87.69,37.86a14.94,14.94,0,0,0-2.07-.1c-.48.08-2.29.59-2.89.07s-.16-1.38-.16-1.38.15,1.5,1.22,1.3S86.82,37.16,87.69,37.86Z"/><path fill="#208674" d="M95.41,66.47H84.27a4.09,4.09,0,0,1,0-2.95c.62-1.5,9.09,0,9.09,0Z"/><path fill="#005644" d="M95.41,66.47H84.57c-.11-.56,9.87-.64,9.87-.64a67,67,0,0,0,3-16.17C98.57,52.71,95.41,66.47,95.41,66.47Z"/><path fill="#208674" d="M85.94,66c.3-1.44,1.4-5.45,4.26-5.52h.07c2.41,0,3.53,3,4,4.77.11-.17.2-.38.35-.65v0a13.32,13.32,0,0,0-.49-1.36c-.93-2.18-2.29-3.31-3.94-3.28s-3,1.19-4,3.34A13.73,13.73,0,0,0,85.39,66Z"/><path fill="#635dad" d="M63.23,27.39h1.29v4.12a4.4,4.4,0,0,1-.14,1.24,1.72,1.72,0,0,1-.68.91,2.22,2.22,0,0,1-1.3.34A1.89,1.89,0,0,1,61,33.46a2.26,2.26,0,0,1-.52-1.58l1.22-.14a1.74,1.74,0,0,0,.16.79.81.81,0,0,0,1.25.1,2.13,2.13,0,0,0,.17-1Z"/><path fill="#635dad" d="M65.56,31.78l1.26-.13a1.61,1.61,0,0,0,.46,1,1.37,1.37,0,0,0,.93.3,1.41,1.41,0,0,0,.94-.27.82.82,0,0,0,.32-.63.65.65,0,0,0-.13-.39,1.08,1.08,0,0,0-.47-.28c-.15-.06-.49-.15-1-.29a3.51,3.51,0,0,1-1.46-.64,1.7,1.7,0,0,1-.58-1.31,1.7,1.7,0,0,1,1.07-1.59,3.19,3.19,0,0,1,1.26-.22,2.71,2.71,0,0,1,1.81.53,1.93,1.93,0,0,1,.63,1.44l-1.28.06a1.18,1.18,0,0,0-.36-.73,1.32,1.32,0,0,0-.82-.22,1.46,1.46,0,0,0-.88.24.48.48,0,0,0-.2.4.5.5,0,0,0,.19.4,3.34,3.34,0,0,0,1.19.43,6.28,6.28,0,0,1,1.39.47,1.78,1.78,0,0,1,.7.66,2,2,0,0,1,.26,1,1.92,1.92,0,0,1-.31,1,1.85,1.85,0,0,1-.86.72A3.54,3.54,0,0,1,68.2,34a2.72,2.72,0,0,1-1.86-.57A2.55,2.55,0,0,1,65.56,31.78Z"/><rect width="7.22" height="16.17" x="28.95" y="41.5" fill="#635dad"/><rect width="7.22" height="16.17" x="30.48" y="41.5" fill="#443e90"/><rect width="19.69" height="1.88" x="21.38" y="55.78" fill="#635dad"/><rect width="20.9" height="1.88" x="24.37" y="55.78" fill="#443e90"/><rect width="34.52" height="21.63" x="15.83" y="30.64" fill="#443e90" rx=".89" transform="rotate(180 33.085 41.455)"/><rect width="34.52" height="21.63" x="16.9" y="30.64" fill="#443e90" rx=".89" transform="rotate(180 34.155 41.455)"/><rect width="31.45" height="19.71" x="18.43" y="31.6" fill="#d1e2ee" rx=".81" transform="rotate(180 34.155 41.455)"/><path fill="#443e90" d="M41.88,34.72H30.6a.11.11,0,0,1,0-.22H41.88a.11.11,0,0,1,0,.22Z"/><path fill="#443e90" d="M28.54,34.72H24a.11.11,0,0,1,0-.22h4.56a.11.11,0,0,1,0,.22Z"/><path fill="#443e90" d="M41.88,36.51h-6a.1.1,0,0,1-.11-.11.11.11,0,0,1,.11-.11h6a.1.1,0,0,1,.1.11A.1.1,0,0,1,41.88,36.51Z"/><path fill="#443e90" d="M34.08,36.51H24a.1.1,0,0,1-.11-.11.11.11,0,0,1,.11-.11h10.1a.11.11,0,0,1,.11.11A.1.1,0,0,1,34.08,36.51Z"/><path fill="#443e90" d="M42.65,43.61H32.54a.11.11,0,1,1,0-.22H42.65a.11.11,0,1,1,0,.22Z"/><path fill="#443e90" d="M30.7,43.61H26.6a.11.11,0,0,1,0-.22h4.1a.11.11,0,1,1,0,.22Z"/><path fill="#443e90" d="M42.65,45.41H37.26a.11.11,0,0,1,0-.22h5.39a.11.11,0,0,1,0,.22Z"/><path fill="#443e90" d="M35.67,45.41H26.6a.11.11,0,0,1,0-.22h9.07a.11.11,0,0,1,0,.22Z"/><path fill="#443e90" d="M45.62,47.13H35.51a.11.11,0,1,1,0-.22H45.62a.11.11,0,1,1,0,.22Z"/><path fill="#443e90" d="M33.67,47.13h-4.1a.11.11,0,1,1,0-.22h4.1a.11.11,0,0,1,0,.22Z"/><path fill="#443e90" d="M45.62,48.93H40.23a.11.11,0,0,1-.11-.12.11.11,0,0,1,.11-.11h5.39a.11.11,0,0,1,.11.11A.11.11,0,0,1,45.62,48.93Z"/><path fill="#443e90" d="M38.63,48.93H29.57a.11.11,0,0,1-.11-.12.11.11,0,0,1,.11-.11h9.06a.11.11,0,0,1,.11.11A.11.11,0,0,1,38.63,48.93Z"/><path fill="#443e90" d="M43.51,38.24H34.44a.11.11,0,0,1,0-.22h9.07a.11.11,0,0,1,0,.22Z"/><path fill="#443e90" d="M32.79,38.24H29.12a.11.11,0,1,1,0-.22h3.67a.11.11,0,0,1,0,.22Z"/><path fill="#443e90" d="M43.51,39.91H38.68a.11.11,0,1,1,0-.22h4.83a.11.11,0,1,1,0,.22Z"/><path fill="#443e90" d="M37.25,39.91H29.12a.11.11,0,0,1,0-.22h8.13a.11.11,0,0,1,0,.22Z"/><path fill="#ffa44a" d="M46.2,38.72a.41.41,0,0,1-.27-.08.4.4,0,0,1-.14-.23,2.29,2.29,0,0,1,0-.48,2.46,2.46,0,0,0,0-.46.5.5,0,0,0-.13-.25.61.61,0,0,0-.24-.15A1.48,1.48,0,0,0,45,37h-.11v.48a.85.85,0,0,1,.29,0,.14.14,0,0,1,.09.08.43.43,0,0,1,0,.2,5.8,5.8,0,0,0,0,.62.73.73,0,0,0,.13.34.81.81,0,0,0,.21.19.58.58,0,0,0-.19.15,1,1,0,0,0-.11.21,1.06,1.06,0,0,0,0,.34c0,.23,0,.39,0,.47a.34.34,0,0,1,0,.17.16.16,0,0,1-.1.08.78.78,0,0,1-.28,0v.48H45a1.21,1.21,0,0,0,.38,0,.57.57,0,0,0,.27-.14.55.55,0,0,0,.13-.25,3.45,3.45,0,0,0,0-.55,2.16,2.16,0,0,1,0-.33.63.63,0,0,1,.07-.22.49.49,0,0,1,.13-.12.57.57,0,0,1,.22,0Z"/><path fill="#ffa44a" d="M20.44,36a.57.57,0,0,1,.22,0,.28.28,0,0,1,.12.12.63.63,0,0,1,.08.22,2.65,2.65,0,0,1,0,.33,3.16,3.16,0,0,0,0,.55.47.47,0,0,0,.13.25.57.57,0,0,0,.27.14,1.21,1.21,0,0,0,.38,0h.1V37.2a.75.75,0,0,1-.27,0,.21.21,0,0,1-.1-.08.34.34,0,0,1,0-.17c0-.09,0-.24,0-.47a1.06,1.06,0,0,0-.05-.34.72.72,0,0,0-.12-.21.93.93,0,0,0-.18-.16.56.56,0,0,0,.21-.19.76.76,0,0,0,.13-.33c0-.1,0-.3,0-.62a.48.48,0,0,1,0-.21.11.11,0,0,1,.09-.07.78.78,0,0,1,.28,0v-.48h-.1a1.44,1.44,0,0,0-.41,0A.57.57,0,0,0,21,34a.6.6,0,0,0-.13.25,2.47,2.47,0,0,0,0,.47,2.29,2.29,0,0,1,0,.48.34.34,0,0,1-.13.23.41.41,0,0,1-.27.08Z"/><path fill="#ffa44a" d="M48,47.59a.58.58,0,0,1-.28-.08.47.47,0,0,1-.13-.23,2.48,2.48,0,0,1,0-.49,2.54,2.54,0,0,0,0-.46.66.66,0,0,0-.13-.25.61.61,0,0,0-.24-.15,2,2,0,0,0-.41,0h-.11v.48a.85.85,0,0,1,.29,0,.18.18,0,0,1,.09.08.63.63,0,0,1,0,.2,3.82,3.82,0,0,0,0,.62.8.8,0,0,0,.12.34,1.11,1.11,0,0,0,.22.19.58.58,0,0,0-.19.15.65.65,0,0,0-.11.22,1.22,1.22,0,0,0-.06.33c0,.23,0,.39,0,.47a.34.34,0,0,1,0,.17.25.25,0,0,1-.1.08.81.81,0,0,1-.28,0v.48h.11a1.74,1.74,0,0,0,.38,0,.68.68,0,0,0,.27-.15.59.59,0,0,0,.13-.25,3.28,3.28,0,0,0,0-.55,2.27,2.27,0,0,1,0-.33.52.52,0,0,1,.07-.21.4.4,0,0,1,.13-.13.57.57,0,0,1,.22,0Z"/><path fill="#ffa44a" d="M24.18,44.64a.52.52,0,0,1,.21,0,.4.4,0,0,1,.13.13.52.52,0,0,1,.07.21,2.27,2.27,0,0,1,0,.33,3.37,3.37,0,0,0,0,.55.59.59,0,0,0,.13.25.68.68,0,0,0,.27.15,1.74,1.74,0,0,0,.38,0h.11v-.48a.85.85,0,0,1-.28,0,.18.18,0,0,1-.09-.08.47.47,0,0,1,0-.17c0-.08,0-.24,0-.47a1.39,1.39,0,0,0-.06-.34.53.53,0,0,0-.11-.21.58.58,0,0,0-.19-.15,1.11,1.11,0,0,0,.22-.19.8.8,0,0,0,.12-.34,4.8,4.8,0,0,0,0-.62.75.75,0,0,1,0-.2.18.18,0,0,1,.09-.08.85.85,0,0,1,.29,0v-.48h-.11a2.09,2.09,0,0,0-.41,0,.51.51,0,0,0-.23.15.56.56,0,0,0-.14.25,2.54,2.54,0,0,0,0,.46,2.48,2.48,0,0,1,0,.49.47.47,0,0,1-.13.23.58.58,0,0,1-.27.08Z"/><polygon fill="#635dad" points="48.19 75 49.06 75 46.63 58.81 45.77 58.81 48.19 75"/><polygon fill="#635dad" points="49.29 75 49.06 75 46.63 58.81 46.87 58.81 49.29 75"/><polygon fill="#635dad" points="42.07 75 42.94 75 40.52 58.81 39.65 58.81 42.07 75"/><polygon fill="#635dad" points="43.17 75 42.94 75 40.52 58.81 40.75 58.81 43.17 75"/><polygon fill="#443e90" points="24.15 75 25.02 75 27.44 58.81 26.57 58.81 24.15 75"/><polygon fill="#635dad" points="25.25 75 25.02 75 27.44 58.81 27.67 58.81 25.25 75"/><polygon fill="#443e90" points="16.71 75 17.58 75 20 58.81 19.13 58.81 16.71 75"/><polygon fill="#635dad" points="17.82 75 17.58 75 20 58.81 20.24 58.81 17.82 75"/><rect width="29.39" height="1.36" x="18.53" y="57.66" fill="#635dad" transform="rotate(180 33.225 58.345)"/><rect width="10.08" height="1.36" x="18.53" y="57.66" fill="#443e90" transform="rotate(180 23.575 58.345)"/></svg>