<svg xmlns="http://www.w3.org/2000/svg" enable-background="new 0 0 2500 2500" viewBox="0 0 2500 2500"><path fill="#e6e6e6" d="M265.3,2030.1l2.27-100.14l0.75-17.35l2.15-48.72l0.54-13.36l0.54-12.4c0,0-6.14-48.4-48.34-76.96l17.77-6.79    c0,0,36.49,45.06,43.38,81.71c0.64,3.56,1.08,7.11,1.08,10.56v3.66c0,16.6-1.29,47.43-2.8,79.01c-0.22,4.09-0.43,8.19-0.64,12.18    c-2.37,45.49-5.06,88.6-5.06,88.6L265.3,2030.1L265.3,2030.1z"/><path fill="#e6e6e6" d="M282.65,1929.31c-0.22,4.09-0.43,8.19-0.64,12.18l-14.21-11.43c-0.11-0.11-0.11-0.11-0.22-0.11    c-8.83-7-20.13-9.59-31.01-7.11c-19.16,4.42-47.05,11.1-47.05,11.1s-0.54-11.32-2.05-11.43c-1.51,0-42.42,2.69-51.46-11.53    l9.04-9.27c0,0-23.25-10.99-30.79-25.55c-2.05-3.88,0.43-8.62,4.74-9.16l37.03-5.07c9.26-1.19,17.01-7.44,20.24-16.06l2.15-5.93    c2.69-7.12,11.41-9.7,17.44-5.17l19.92,14.77c4.42,3.23,10.23,3.45,15.18,1.29c6.78-2.91,16.8-1.29,21.86,28.24    c0,0,1.51,14.12,15.5,33.52C272.1,1917.89,276.83,1923.6,282.65,1929.31z"/><path fill="#e6e6e6" d="M382.56,1774.53l-16.15,18.75c-3.66,4.1-4.3,9.81-2.58,14.98c2.37,7.01,0,16.82-29.82,19.62    c0,0-20.89,0.54-48.56,22.42c-4.84,3.88-9.8,8.3-14.97,13.58l0.54-13.36l11.09-11.75c0.86-0.86,1.61-1.73,2.26-2.69    c6.14-7.87,8.83-18,7.32-27.92c-2.91-19.4-7.32-47.75-7.32-47.75s11.3,0.32,11.52-1.19c0.11-1.51,0.65-42.58,15.5-50.55l8.61,9.92    c0,0,12.7-22.42,27.78-28.78c3.98-1.72,8.51,1.08,8.83,5.5l2.05,37.29c0.54,9.27,6.03,17.57,14.43,21.45l5.71,2.69    C385.68,1759.98,387.62,1768.81,382.56,1774.53z"/><path fill="#e6e6e6" d="M242.99,1764.58l15.9-11.34c5.64-4.03,7.87-11.28,5.44-17.77c-4.55-12.12-13.02-31.48-24.7-44.56    c-7.66-8.58-18.87-13.12-30.36-13.12l0,0c-5.25,0-10.35,1.72-14.54,4.89l-3.41,2.59l-20.06-0.68l-2.38,8.85    c0,0-14.96,6.81-4.42,42.21c0,0,5.1,28.59,27.33,45.59c6.78,5.18,16.6,3.86,23.94-0.49L242.99,1764.58z"/><path fill="#4bc8f1" d="M1753.33,2030.46c-224.09,0.02-553.1-172.79-843.86-463.87c-190.24-190.47-336.34-402.56-411.37-597.23    c-76.17-197.59-70.16-354.43,16.93-441.62c87.09-87.2,243.69-93.21,441.09-16.97c194.43,75.14,406.27,221.42,596.51,411.89l0,0    l0,0c190.24,190.45,336.34,402.56,411.39,597.23c76.17,197.59,70.14,354.43-16.95,441.63    C1900.34,2008.3,1833.55,2030.46,1753.33,2030.46z M710.16,479.69c-75.96,0-137.09,21.27-179.48,63.71    C362,712.3,538.94,1164.27,925.13,1550.92c386.16,386.63,837.61,563.84,1006.3,394.92c80.52-80.62,84.78-229.06,11.93-417.97    c-73.95-191.85-218.28-401.22-406.37-589.55l0,0C1348.88,750,1139.75,605.5,948.15,531.46    C858.79,496.92,778.49,479.69,710.16,479.69z"/><path fill="#4bc8f1" d="M1231.06,1699.94c-558.36,0-1012.61-204.26-1012.61-455.32c0-251.07,454.25-455.32,1012.61-455.32    c558.35,0,1012.61,204.25,1012.61,455.32C2243.66,1495.69,1789.41,1699.94,1231.06,1699.94z M1231.06,811.46    c-546.14,0-990.47,194.32-990.47,433.16s444.33,433.16,990.47,433.16s990.47-194.32,990.47-433.16S1777.2,811.46,1231.06,811.46z"/><path fill="#4bc8f1" d="M708.78,2030.46c-80.24,0-146.99-22.14-193.74-68.95c-87.09-87.2-93.1-244.03-16.93-441.63    c75.03-194.67,221.13-406.78,411.37-597.23l0,0l0,0c190.24-190.47,402.07-336.75,596.51-411.89    c197.35-76.29,354-70.23,441.09,16.97s93.12,244.03,16.95,441.62c-75.05,194.67-221.15,406.76-411.39,597.23    C1261.9,1857.65,932.87,2030.44,708.78,2030.46z M1751.95,479.69c-68.33,0-148.63,17.23-237.99,51.77    C1322.36,605.5,1113.23,750,925.13,938.33l0,0c-188.1,188.31-332.43,397.69-406.38,589.55    c-72.82,188.91-68.59,337.35,11.93,417.97c168.71,168.91,620.11-8.31,1006.3-394.92c188.1-188.33,332.43-397.71,406.37-589.54    c72.84-188.91,68.59-337.35-11.93-417.97C1889.04,500.97,1827.89,479.69,1751.95,479.69z"/><ellipse cx="1231.06" cy="1244.05" fill="#4bc8f1" rx="235.9" ry="236.19"/><path fill="#ffc6ab" d="M1466.62,1318.05c0,0-35.05-8.06-44.02,26.62c-3.9,15.09,9.98,29.08,25.43,27.16    c12.93-1.61,26.1-5.56,39.39-22.28"/><rect width="39.82" height="105.36" x="1555.13" y="1857.82" fill="#ffc6ab"/><rect width="41.24" height="87.92" x="1811.1" y="1874.91" fill="#ffc6ab"/><path fill="#2f2e41" d="M1836.94,883.57c0,0,32.29,109.46-52.5,124.41c0,0,30.06,33.76,71.05-28.48    c16.96-25.77,23.38-57.51,15.1-87.23c-5.85-20.99-18.7-42.26-45.94-51.54"/><path fill="#ffc6ab" d="M1811.1,1031.29c0,0,45.16-11.75,55.11,26.7c0,0,35.01,142.32,36.3,170.51l-10.7,196.48    c0,0,23.02,99.31-33.78,64.61l-14.4-161.25l2.57-107.78c0,0-39.9-106.33-39.63-107.93    C1806.84,1111.02,1811.1,1031.29,1811.1,1031.29z"/><path fill="#ffc6ab" d="M1708.71,1033.07c0,0-59.73-16.55-68.8,33.64l-18.55,153.31l-154.74,98.03l20.8,31.5l175.96-77.28    l56.53-82.23v-136.15L1708.71,1033.07z"/><polygon fill="#ffc6ab" points="1730.58 1007.97 1743.11 1062.97 1810.57 1019.72 1797.24 974.34 1743.38 968.73"/><path fill="#ffc6ab" d="M1828.59,931.35c0,32.44-25.62,58.73-58.02,58.73s-58.66-26.3-58.66-58.73c0-32.43,26.26-58.73,58.66-58.73    S1828.59,898.92,1828.59,931.35z"/><path fill="#2f2e41" d="M1826.08,948.58c-0.38-2.3-1-3.14-3.23-3.87c-1.28-5.04-6.93-7.55-11.52-5.12l-4.87,2.58    c-2.98,1.58-6.63,1.12-9.13-1.15l-32.73-29.69c-4.71-4.27-10.48-7.42-16.79-8.21c-11.87-1.48-23.18,4.18-34.1,13.69    c0,0-11.41-71.33,32.67-78.45C1746.4,838.36,1877.23,770.36,1826.08,948.58z"/><path fill="#1a1a1a" d="M1663.38,1272.27l107.19-39.51l58.13,39.51l26.43,57.02c3.46,7.46,5.25,15.58,5.25,23.79v527.51h-58.88    l-71.46-399.03l-76.79,142.56l-53.69,242.94l-61.86-1.78l20.09-263.05L1663.38,1272.27z"/><path fill="#2f2e41" d="M1841.5,2030.46h17.33v-34.17c0,0,12.35-28.57-6.49-49.93c0,0-19.64,12.55-41.24,0l-36.97,54.62    c-0.73,1.08-1.92,1.76-3.22,1.84l-16.22,1.04c-3.81,0.24-6.79,3.41-6.79,7.24l0,0c0,6.86,5.55,12.41,12.4,12.41h54l20.27-26.16    h6.93L1841.5,2030.46L1841.5,2030.46z"/><path fill="#2f2e41" d="M1584.45,2030.46h17.33v-34.17c0,0,12-28.57-6.84-49.93c0,0-18.22,12.55-39.82,0l-38.04,54.62    c-0.73,1.08-1.92,1.76-3.22,1.84l-16.22,1.04c-3.82,0.24-6.79,3.41-6.79,7.24l0,0c0,6.86,5.55,12.41,12.4,12.41h54l20.27-26.16    h6.93L1584.45,2030.46L1584.45,2030.46z"/><path fill="#faa951" d="M1730.58,1007.97c20.81,15.89,46.68,21.44,79.99,11.75l36.53,56.32c8.24,12.7,13.15,27.42,13.27,42.57    c0.22,27.82-8.87,55.02-27.41,81.58l-4.27,72.08h-165.32v-85.16c-8.22-33-8.86-64.79-2.79-95.49    c4.01-20.27,14.86-38.55,30.85-51.63L1730.58,1007.97z"/><rect width="2389.96" height="12.63" x="55.02" y="2029.72" fill="#e6e6e6"/></svg>