<svg xmlns="http://www.w3.org/2000/svg" enable-background="new 0 0 1200 900" viewBox="0 0 1200 900"><path fill="#d7e7ff" d="M652.255 728.084a3.393 3.393 0 0 1-3.41 3.4h-97.7c-1.88 0-3.4-1.52-3.4-3.4a3.393 3.393 0 0 1 3.4-3.4h97.7c1.88 0 3.41 1.52 3.41 3.4zM652.255 740.169a3.393 3.393 0 0 1-3.41 3.4h-97.7c-1.88 0-3.4-1.52-3.4-3.4a3.393 3.393 0 0 1 3.4-3.4h97.7c1.88 0 3.41 1.52 3.41 3.4z"/><path fill="#ffc6b2" d="m1041.144 551.012-2.206 7.115-27.893-16.808-4.092 10.28s25.951 36.483 37.167 34.283c11.215-2.2 13.092-22.733 13.092-22.733l-9.568-8.074-6.5-4.063z"/><path fill="#ffc6b2" d="M1011.092 541.373s-2.129-7.448-3.574-6.255c-1.446 1.192-.506 3.65-.506 3.65s-8.492-10.552-9.323-7.083c-.832 3.469 5.745 8.311 5.745 8.311s-4.95 4.409-4.553 7.336c.59 4.339 8.12 4.32 8.12 4.32l4.091-10.279z"/><path fill="#ff784b" d="M1050.42 537.756s-8.308 5.867-11.644 17.077c-1.196 1.416 11.008 11.715 12.203 10.299l7.765-8.688-8.324-18.688z"/><path d="M1021.107 742.549h32.817v5.457h-32.817zM1038.81 728.509l-17.703 14.04h32.817v-14.04z"/><path fill="#fff" d="M1037.378 742.801h-16.275a.25.25 0 0 1 0-.5h16.275a.25.25 0 0 1 0 .5zM1047.028 746.54c0 .536.052 1.007.17 1.466h.654c0-.027 0-.053-.013-.08a5.842 5.842 0 0 1-.157-1.386c0-1.388.458-2.735 1.296-3.795.052-.066.105-.131.17-.196a6.22 6.22 0 0 1 4.776-2.252v-.654c-2.133 0-4.187 1.008-5.47 2.709-.052.066-.092.13-.144.197-.824 1.125-1.282 2.538-1.282 3.99z"/><path d="M1071.325 742.549h32.817v5.457h-32.817zM1089.029 728.509l-17.704 14.04h32.818v-14.04z"/><path fill="#fff" d="M1087.597 742.801h-16.277a.25.25 0 0 1 0-.5h16.277a.25.25 0 0 1 0 .5zM1097.246 746.54c0 .536.052 1.007.17 1.466h.655c0-.027 0-.053-.014-.08a5.842 5.842 0 0 1-.156-1.386c0-1.388.457-2.735 1.295-3.795.053-.066.105-.131.17-.196a6.22 6.22 0 0 1 4.777-2.252v-.654c-2.133 0-4.188 1.008-5.47 2.709-.053.066-.092.13-.144.197-.825 1.125-1.283 2.538-1.283 3.99z"/><path fill="#1258ff" d="M1107.094 730.608c-3.372 5.2-27.231 2.794-28.788.32-.22-.35-.608-4.79-1.077-11.436-.08-.978-.15-2.005-.23-3.063-1.616-23.649-3.981-80.417-3.981-80.417s-7.115 56.568-11.705 80.028c-.19.978-.37 1.916-.559 2.824-1.357 6.715-2.415 11.186-2.914 11.475-6.086 3.632-21.892 1.896-25.025.33-.49-.24-.44-3.174.01-7.954.07-.768.15-1.586.24-2.434 2.923-28.05 15.745-115.64 15.745-115.64s51.3-4.58 53.375.728l4.91 125.24z"/><path fill="#fff" d="M1051.738 721.705c.044.109-.984.71-3.303 1.149a20.112 20.112 0 0 1-5.954.032c-2.32-.412-3.356-1.002-3.312-1.115.053-.164 1.152.172 3.407.45 1.906.275 3.854.264 5.757-.032 2.255-.303 3.35-.651 3.405-.484zM1100.546 720.442c.03.129-1.299.633-4.102 1.29-2.384.492-4.826.847-7.292.789-2.916-.148-4.259-.806-4.22-.906.045-.181 1.418.213 4.236.233 2.39.058 4.782-.287 7.141-.775 2.799-.53 4.2-.788 4.237-.63zM1101.726 622.802c-.036.054-.436-.109-1.141-.603-.699-.495-1.708-1.341-2.742-2.749-1.712-2.414-2.574-5.402-2.472-8.351.087-1.742.467-3.004.78-3.8.32-.8.576-1.152.633-1.126.078.033-.05.437-.25 1.247a15.962 15.962 0 0 0-.49 3.699c-.097 2.813.72 5.648 2.35 7.945a16.323 16.323 0 0 0 2.444 2.824c.612.569.934.846.888.914zM1047.017 619.907c-.114-.153 1.184-.911 3.01-3.16 1.554-1.89 2.575-4.203 2.972-6.618.486-2.855.185-4.327.385-4.345.063-.01.205.342.31 1.082.106.738.176 1.873-.031 3.372-.416 2.527-1.486 4.953-3.116 6.935-.986 1.151-1.891 1.842-2.511 2.254-.628.407-.98.54-1.019.48zM1071.654 615.565c.065.032-.099.502-.48 1.414-.37.915-1 2.263-1.57 4.135-.495 1.575-.757 3.227-.598 4.852.16 1.621.73 3.203 1.637 4.558.512.815 1.11 1.41 1.594 2.01.484.589.805 1.192.923 1.706.24 1.06-.162 1.558-.196 1.514-.093-.022.13-.514-.187-1.397-.159-.439-.47-.929-.964-1.461-.481-.53-1.153-1.142-1.73-1.998a10.683 10.683 0 0 1-1.747-4.866c-.17-1.74.113-3.485.627-5.12.65-1.92 1.375-3.238 1.85-4.109.488-.865.775-1.271.84-1.238zM1039.305 692.572c-.141-.025.638-5.17 2.414-15.54l4.66-26.324c1.892-10.339 2.927-15.439 3.071-15.413.145.026-.638 5.17-2.408 15.53l-4.66 26.325c-1.897 10.347-2.928 15.448-3.077 15.422zM1099.571 692.702c-.143.002-.347-4.514-.557-13.65l-.382-23.22c-.09-9.13-.035-13.65.112-13.652.147-.003.348 4.514.56 13.64l.383 23.22c.087 9.138.035 13.66-.116 13.662z"/><path fill="#ff784b" d="M1044.662 606.053c-.442-16.394-.315-58.098 4.347-66.45 6.091-10.91 43.625-12.554 56.668 0 2.835 2.73.722 49.495-.695 66.242 0 5.43-60.32 5.638-60.32.208z"/><path fill="#ffc6b2" d="m1090.23 563.293.302 6.862-26.696-9.977-1.586 10.745s32.148 25.1 45.341 19.912c6.97-2.742 4.598-28.184 4.598-28.184l-21.96.642z"/><path fill="#ff784b" d="M1100.549 535.979s-8.176-.571-10.394 9.58c-2.218 10.15-1.393 20.018-1.393 20.018-.023.706 25.204 3.135 25.762.83 0 0 .627-25.765-13.975-30.428z"/><path fill="#fff" d="M1088.741 554.732c.156.019.087 1.23.045 3.662a44.528 44.528 0 0 0 .193 6.172c.034.376.063.93.1.918-.012.028.245.084.406.118l.489.098.76.131c.407.068.614.117.615.18.001.059-.206.125-.63.159a6.614 6.614 0 0 1-.8.008 8.516 8.516 0 0 1-.52-.04c-.188-.047-.357.026-.71-.201-.265-.238-.262-.527-.295-.697l-.084-.606a45.234 45.234 0 0 1-.196-6.266c.167-2.466.492-3.654.627-3.636zM1097.32 536.415c.093.148-.914.738-2.707 2.094-1.547 1.113-2.626 2.715-3.296 4.5-.823 2.084-.909 3.238-1.088 3.216-.111.003-.29-1.204.46-3.456.357-.934.813-1.83 1.397-2.655.582-.83 1.325-1.542 2.12-2.141 1.955-1.318 3.053-1.658 3.114-1.558z"/><path fill="#ffc6b2" d="M1059.487 560.272c-.301-.18-1.982-1.616-.74-3.821 1.301-2.339 5.085 3.723 5.085 3.723-1.366 1.528-2.758 2.588-4.345.098z"/><path fill="#0039b2" d="m1031.469 548.034 9.913 26.96a.781.781 0 0 0 .733.512h20.007l-10.488-28.523h-19.432a.782.782 0 0 0-.733 1.051z"/><path fill="#073c9b" d="m1051.634 546.983 10.488 28.523h1.805a.782.782 0 0 0 .733-1.051l-9.913-26.96a.782.782 0 0 0-.734-.512h-2.38z"/><path fill="#f0e6ff" d="M1044.053 560.513c-.127-.021-.361.304-.398 1.058-.025.73.17 1.962 1.273 3.122.475.449 1.07.857 1.802 1.017.36.076.763.102 1.187-.019a1.82 1.82 0 0 0 1.059-.811c.45-.815.301-1.574.162-2.192a8.115 8.115 0 0 0-.67-1.763c-.75-1.288-1.64-1.992-2.26-2.35-.633-.355-1.01-.391-1.08-.271-.08.131.149.404.576.892.42.492 1.049 1.223 1.575 2.35.455.873.849 2.165.546 2.643-.116.207-.378.296-.808.21-.406-.083-.805-.342-1.165-.68-.876-.76-1.218-1.659-1.403-2.24-.183-.596-.236-.945-.396-.966z"/><path fill="#ffc6b2" d="m1063.832 560.174-.041 11.917s-10.66 2.147-14.228-6.94c-3.482-8.857 10.425-4.76 11.136-4.555l3.133-.422zM1083.7 520.509v10.737l-12.137 8.917-.931-12.99s-9.717.806-10.168-4.869c-.221-2.794-.02-7.451.076-10.543.02-.662.048-1.296.077-1.882 1.7.519 3.553.519 5.31.212 2.343-.413 4.551-1.345 6.75-2.238 1.383-.556 3.101-1.056 4.225-.086.72.634.912 1.661.98 2.621.057.95.057 1.96.518 2.794.47.836 1.488 1.191 2.266.625 0 0 5.386-3.803 7.374 0 .134.259.22.528.297.768V514.632h.02c.768 3.409-4.657 5.877-4.657 5.877z"/><path fill="#ffc6b2" d="M1080.666 507.68v6.127c-.778.566-1.796.21-2.266-.625-.461-.835-.461-1.843-.519-2.794-.067-.96-.26-1.987-.98-2.62-1.123-.97-2.841-.471-4.224.085-2.199.893-4.407 1.825-6.75 2.238-1.757.307-3.61.307-5.31-.212.096-2.266.202-3.84.202-3.84s5.483-4.648 6.049-4.648c.576 0 9.266 2.756 9.679 2.91.412.144 4.119 3.38 4.119 3.38z"/><path fill="#253066" d="M1075.172 525.75c.032.054-.302.344-1.097.723-.684.294-1.397.52-2.125.68-.868.152-1.315.089-1.315.018-.003-.076.417-.141 1.244-.348.706-.153 1.4-.373 2.064-.66.796-.31 1.188-.486 1.229-.413zM1084.059 517.442c-.055-.156.414-.313.906-.892.433-.437.477-1.24.057-1.587-.511-.47-.975-.276-1.04-.415-.036-.055.022-.202.281-.31.25-.103.724-.137 1.197.214.785.71.621 1.903.002 2.55-.39.37-.767.484-1.009.523-.247.034-.376-.012-.394-.083z"/><path fill="#2a0054" d="M1061.696 507.583c2.335.49 8.781 1.168 10.976.27 1.387-.56 3.104-1.058 4.231-.09.719.638.908 1.666.978 2.624.06.948.06 1.956.519 2.794.469.838 1.487 1.188 2.265.629 0 0 .42-.29 1.058-.629 0 0-.01 0 0-.01.658-.35 1.566-.748 2.504-.938 1.437-.29 2.944-.08 3.812 1.577.14.26.22.529.3.768v.05c.788 3.413-4.64 5.877-4.64 5.877 3.163 1.347 9.669-5.029 7.354-15.795-.629-2.944-2.635-11.107-17.582-12.005a20.3 20.3 0 0 0-.779-.05c-1.427-.06-2.844-.279-4.26-.469-2.216-.299-4.421-.508-6.556.12-5.748 1.707-9.6 13.311-.18 15.277z"/><path fill="#edf5fc" d="M123.028 715.644h933.45c8.729-11.954 16.498-24.422 22.113-37.88 10.557-25.265 12.65-54.941-1.301-78.74-21.263-36.292-70.458-47.635-114.04-55.696-43.582-8.062-92.806-20.335-112.795-57.249-14.669-27.089-8.679-59.695.557-88.793 9.244-29.098 21.555-58.53 18.48-88.733-5.736-56.38-67.28-98.083-128.153-99.785-60.873-1.71-118.322 28.58-162.235 67.82-31.517 28.158-57.704 61.046-87.985 90.354-30.281 29.317-66.062 55.66-108.408 65.731-68.09 16.194-144.133-11.509-208.723 14.264-57.958 23.124-89.466 85.355-88.494 143.998.723 43.627 16.244 85.457 37.534 124.709z"/><path fill="#9bb2e1" d="M918.477 579.384h-.012a76.681 76.681 0 0 1-6.026-.372.5.5 0 1 1 .102-.995c1.95.199 3.951.323 5.947.367a.5.5 0 0 1-.011 1zm5.996-.09a.5.5 0 0 1-.027-1 83.741 83.741 0 0 0 5.938-.526.5.5 0 1 1 .123.992 84.431 84.431 0 0 1-6.034.533zm-17.918-1.134a.497.497 0 0 1-.093-.008 69.285 69.285 0 0 1-5.885-1.368.5.5 0 0 1 .27-.963c1.887.528 3.839.981 5.799 1.348a.5.5 0 0 1-.091.991zm29.812-.34a.5.5 0 0 1-.095-.991 91.044 91.044 0 0 0 5.815-1.332.5.5 0 1 1 .256.967 91.898 91.898 0 0 1-5.88 1.346.499.499 0 0 1-.096.01zm-41.352-2.892c-.06 0-.12-.011-.178-.033a63.988 63.988 0 0 1-5.541-2.418.5.5 0 0 1 .443-.896c1.765.872 3.6 1.673 5.453 2.38a.5.5 0 0 1-.177.967zm52.946-.164a.501.501 0 0 1-.158-.975 95.76 95.76 0 0 0 5.597-2.066.5.5 0 1 1 .375.927 96.623 96.623 0 0 1-5.656 2.088.504.504 0 0 1-.158.026zm11.116-4.503a.5.5 0 0 1-.216-.95 96.594 96.594 0 0 0 5.3-2.747.5.5 0 0 1 .486.873 97.415 97.415 0 0 1-5.354 2.775.49.49 0 0 1-.216.05zm-74.8-.649a.494.494 0 0 1-.263-.075 61.98 61.98 0 0 1-4.973-3.441.5.5 0 0 1 .61-.794 60.995 60.995 0 0 0 4.89 3.386.5.5 0 0 1-.265.924zm85.27-5.2a.5.5 0 0 1-.27-.92 94.118 94.118 0 0 0 4.913-3.388.5.5 0 0 1 .594.805 94.562 94.562 0 0 1-4.966 3.424.499.499 0 0 1-.27.08zm9.651-7.123a.498.498 0 0 1-.322-.882 88.898 88.898 0 0 0 4.429-3.998.5.5 0 1 1 .695.719 89.766 89.766 0 0 1-4.48 4.043.496.496 0 0 1-.322.118zm8.62-8.338a.5.5 0 0 1-.372-.834 109.178 109.178 0 0 0 3.871-4.55.5.5 0 0 1 .78.628 111.775 111.775 0 0 1-3.908 4.59.5.5 0 0 1-.372.166zm7.527-9.342a.499.499 0 0 1-.405-.792 117.273 117.273 0 0 0 3.366-4.935.5.5 0 0 1 .84.542 117.29 117.29 0 0 1-3.396 4.977.498.498 0 0 1-.405.208zm6.507-10.075a.5.5 0 0 1-.433-.75c.983-1.706 1.946-3.47 2.86-5.244a.5.5 0 1 1 .889.458 126.65 126.65 0 0 1-2.884 5.286.497.497 0 0 1-.432.25zm5.498-10.658a.5.5 0 0 1-.454-.709 140.79 140.79 0 0 0 2.375-5.483.5.5 0 1 1 .925.378 141.002 141.002 0 0 1-2.392 5.522.499.499 0 0 1-.454.292zm4.535-11.1a.5.5 0 0 1-.47-.67 156.691 156.691 0 0 0 1.92-5.661.5.5 0 0 1 .953.303 158.371 158.371 0 0 1-1.933 5.697.5.5 0 0 1-.47.33zm3.641-11.426a.5.5 0 0 1-.481-.635 173.707 173.707 0 0 0 1.505-5.788.5.5 0 0 1 .973.235 175.566 175.566 0 0 1-1.515 5.822.5.5 0 0 1-.482.366zm2.825-11.657a.5.5 0 0 1-.49-.602c.405-1.948.784-3.924 1.127-5.876a.5.5 0 1 1 .984.173 194.38 194.38 0 0 1-1.132 5.907.5.5 0 0 1-.49.398zm2.087-11.814a.5.5 0 0 1-.496-.573c.284-1.937.55-3.934.788-5.934a.5.5 0 1 1 .992.119c-.239 2.008-.505 4.014-.79 5.96a.5.5 0 0 1-.495.428zm1.422-11.915a.502.502 0 0 1-.499-.546c.184-1.966.345-3.974.48-5.97a.5.5 0 0 1 .999.068 245.014 245.014 0 0 1-.483 5.994.5.5 0 0 1-.497.454zm.82-11.975h-.022a.5.5 0 0 1-.476-.523c.089-1.96.157-3.975.203-5.99a.504.504 0 0 1 .511-.488.5.5 0 0 1 .489.512 269.215 269.215 0 0 1-.205 6.011.5.5 0 0 1-.5.478zm.28-12.002a.5.5 0 0 1-.5-.5v-.535c0-1.87-.017-3.66-.053-5.455a.5.5 0 0 1 .49-.51.506.506 0 0 1 .51.49c.036 1.8.054 3.597.054 5.387l-.001.623a.5.5 0 0 1-.5.5zm-.247-11.998a.5.5 0 0 1-.5-.477c-.09-2.02-.208-4.03-.35-5.977a.5.5 0 0 1 .462-.535.512.512 0 0 1 .535.463c.143 1.955.261 3.976.352 6.004a.5.5 0 0 1-.477.522h-.022zM515.01 418.88h-.806a.5.5 0 0 1 .001-1h.805c1.73 0 3.458-.015 5.185-.046.32.009.504.215.51.491s-.216.504-.492.51c-1.734.03-3.468.045-5.203.045zm-6.804-.077h-.01c-2.004-.045-4.006-.11-6.008-.193a.5.5 0 0 1-.479-.52c.012-.277.223-.499.52-.48 1.997.084 3.993.148 5.988.193a.5.5 0 0 1-.011 1zm17.995-.137a.5.5 0 0 1-.02-1 278.59 278.59 0 0 0 5.982-.293.485.485 0 0 1 .53.469.5.5 0 0 1-.47.529c-1.998.12-4 .218-6.002.295h-.02zm-29.983-.363-.032-.001a329.443 329.443 0 0 1-5.994-.419.5.5 0 0 1-.459-.538.496.496 0 0 1 .537-.459c1.993.158 3.985.297 5.977.418a.5.5 0 0 1-.03.999zm41.96-.356a.5.5 0 0 1-.04-.998c1.992-.163 3.998-.35 5.963-.556a.5.5 0 1 1 .104.995 268.568 268.568 0 0 1-6.027.56zm-53.921-.589c-.017 0-.033 0-.049-.002a346.025 346.025 0 0 1-5.976-.632.5.5 0 0 1-.44-.554.514.514 0 0 1 .554-.44c1.984.227 3.97.438 5.958.63a.5.5 0 0 1-.047.998zm65.852-.661a.5.5 0 0 1-.062-.996c1.98-.254 3.975-.533 5.93-.83a.5.5 0 1 1 .15.989c-1.962.298-3.965.578-5.953.833a.476.476 0 0 1-.065.004zm-77.774-.704a.506.506 0 0 1-.066-.005c-1.986-.261-3.968-.54-5.95-.834a.5.5 0 1 1 .146-.99c1.976.294 3.955.572 5.934.833a.5.5 0 0 1-.064.996zm89.637-1.102a.5.5 0 0 1-.086-.992c1.963-.348 3.941-.723 5.882-1.116a.5.5 0 0 1 .199.98c-1.95.395-3.937.772-5.907 1.12a.509.509 0 0 1-.088.008zm-101.507-.662a.516.516 0 0 1-.082-.007 382.28 382.28 0 0 1-5.92-1.026.5.5 0 1 1 .178-.984c1.965.356 3.933.698 5.904 1.024a.5.5 0 0 1-.08.993zm561.37-1.208a.5.5 0 0 1-.495-.448c-.207-2-.447-3.999-.715-5.941a.5.5 0 1 1 .99-.136c.269 1.953.511 3.963.719 5.974a.5.5 0 0 1-.498.551zm-448.104-.513a.5.5 0 0 1-.11-.987c1.93-.441 3.889-.916 5.82-1.41a.499.499 0 1 1 .247.968 229.95 229.95 0 0 1-5.844 1.417.49.49 0 0 1-.113.012zm-125.074-.42a.488.488 0 0 1-.096-.01c-1.966-.389-3.927-.791-5.886-1.209a.5.5 0 0 1 .209-.978c1.953.417 3.91.818 5.87 1.205a.5.5 0 0 1-.097.991zm-11.737-2.502a.5.5 0 0 1-.111-.013 427.263 427.263 0 0 1-5.847-1.38.5.5 0 0 1 .236-.972c1.94.473 3.884.932 5.833 1.377a.5.5 0 0 1-.111.988zm148.435-.056a.5.5 0 0 1-.137-.981c1.922-.546 3.852-1.123 5.737-1.713a.5.5 0 1 1 .299.954 225.79 225.79 0 0 1-5.762 1.72.503.503 0 0 1-.137.02zm-160.095-2.785a.504.504 0 0 1-.125-.016c-1.94-.5-3.875-1.013-5.806-1.538a.5.5 0 0 1 .262-.965 467.53 467.53 0 0 0 5.794 1.535.5.5 0 0 1-.125.984zm171.547-.803a.499.499 0 0 1-.162-.973 243.665 243.665 0 0 0 5.636-2.01.499.499 0 1 1 .348.937c-1.892.701-3.796 1.38-5.66 2.019a.495.495 0 0 1-.162.027zM413.679 403.6a.495.495 0 0 1-.137-.02 507.201 507.201 0 0 1-5.767-1.68.501.501 0 0 1 .286-.958c1.915.57 3.833 1.13 5.754 1.677a.5.5 0 0 1-.136.981zm194.377-1.82a.5.5 0 0 1-.185-.965 284.63 284.63 0 0 0 5.541-2.27.5.5 0 1 1 .389.922 285.1 285.1 0 0 1-5.56 2.277.497.497 0 0 1-.185.036zm412.136-.645a.499.499 0 0 1-.49-.413 146.83 146.83 0 0 0-1.154-5.868.5.5 0 1 1 .976-.213c.42 1.921.811 3.909 1.162 5.908a.5.5 0 0 1-.494.586zm-618.013-.96a.502.502 0 0 1-.149-.023 551.792 551.792 0 0 1-5.725-1.811.5.5 0 1 1 .306-.952c1.903.613 3.808 1.216 5.716 1.808a.5.5 0 0 1-.148.978zm216.93-3.054a.5.5 0 0 1-.203-.957 346 346 0 0 0 5.453-2.483.499.499 0 1 1 .422.906 335.824 335.824 0 0 1-5.468 2.49.496.496 0 0 1-.204.044zm-228.351-.626a.497.497 0 0 1-.158-.026 628.043 628.043 0 0 1-5.687-1.93.5.5 0 0 1 .326-.945c1.89.651 3.782 1.294 5.677 1.926a.501.501 0 0 1-.158.975zm-11.344-3.91a.497.497 0 0 1-.167-.03 686.531 686.531 0 0 1-5.648-2.036.5.5 0 0 1 .343-.94c1.877.687 3.757 1.365 5.639 2.034a.5.5 0 0 1-.167.971zm250.575-.528a.5.5 0 0 1-.218-.95 428.266 428.266 0 0 0 5.375-2.654.501.501 0 0 1 .449.893c-1.79.9-3.586 1.787-5.388 2.66a.5.5 0 0 1-.218.05zm387.638-2.642a.5.5 0 0 1-.483-.371 119.589 119.589 0 0 0-1.677-5.736.5.5 0 0 1 .953-.305 121.584 121.584 0 0 1 1.69 5.783.5.5 0 0 1-.483.63zm-649.482-.948a.503.503 0 0 1-.176-.032 778.367 778.367 0 0 1-5.612-2.13.5.5 0 0 1 .358-.934c1.866.716 3.734 1.425 5.605 2.127a.5.5 0 0 1-.175.969zm272.572-1.793a.5.5 0 0 1-.23-.945 591.014 591.014 0 0 0 5.312-2.782.499.499 0 1 1 .469.884c-1.77.938-3.543 1.867-5.322 2.787a.494.494 0 0 1-.23.056zm-283.774-2.509a.495.495 0 0 1-.182-.034 840.812 840.812 0 0 1-5.58-2.214.5.5 0 0 1 .372-.928c1.855.743 3.713 1.48 5.573 2.21a.5.5 0 0 1-.183.966zm294.38-3.109a.5.5 0 0 1-.237-.94 969.31 969.31 0 0 0 5.268-2.869.5.5 0 0 1 .48.877c-1.756.963-3.514 1.92-5.272 2.872a.502.502 0 0 1-.239.06zm-305.518-1.352a.5.5 0 0 1-.19-.038c-1.851-.756-3.702-1.518-5.55-2.285a.5.5 0 1 1 .383-.923c1.846.766 3.695 1.527 5.545 2.282a.5.5 0 0 1-.188.964zm668.16-1.712a.501.501 0 0 1-.467-.322 101.87 101.87 0 0 0-2.283-5.516.5.5 0 1 1 .912-.41c.808 1.797 1.583 3.671 2.307 5.57a.5.5 0 0 1-.468.678zm-352.117-2.706a.5.5 0 0 1-.243-.937c1.749-.97 3.497-1.943 5.244-2.918a.5.5 0 0 1 .487.873c-1.748.976-3.496 1.95-5.246 2.92a.498.498 0 0 1-.242.062zm-327.125-.182a.496.496 0 0 1-.195-.04c-1.843-.776-3.684-1.559-5.524-2.345a.5.5 0 0 1 .392-.92c1.838.786 3.68 1.568 5.521 2.344a.5.5 0 0 1-.194.961zm-11.035-4.715a.5.5 0 0 1-.198-.041 1376.53 1376.53 0 0 1-5.503-2.395.5.5 0 0 1 .4-.916c1.833.801 3.666 1.6 5.5 2.393a.5.5 0 0 1-.199.96zm348.641-.95a.5.5 0 0 1-.244-.936l5.238-2.927a.5.5 0 0 1 .489.873l-5.239 2.927a.498.498 0 0 1-.244.064zm336.713-2.38a.5.5 0 0 1-.442-.268 87.745 87.745 0 0 0-2.96-5.175.5.5 0 1 1 .85-.526 88.51 88.51 0 0 1 2.994 5.234.5.5 0 0 1-.442.734zm-696.349-1.48a.499.499 0 0 1-.202-.042c-1.829-.808-3.658-1.62-5.485-2.434a.5.5 0 1 1 .406-.913c1.827.813 3.654 1.625 5.483 2.433a.499.499 0 0 1-.202.957zm370.118-1.985a.5.5 0 0 1-.244-.937c1.75-.97 3.502-1.938 5.256-2.9a.5.5 0 0 1 .48.877c-1.751.961-3.501 1.928-5.251 2.897a.491.491 0 0 1-.241.063zm-381.08-2.896a.505.505 0 0 1-.205-.044c-1.825-.819-3.65-1.64-5.473-2.462a.5.5 0 0 1 .412-.912c1.822.823 3.646 1.643 5.471 2.462a.5.5 0 0 1-.205.956zm391.6-2.873a.5.5 0 0 1-.237-.94c1.76-.952 3.524-1.897 5.292-2.834a.5.5 0 0 1 .468.884c-1.765.936-3.527 1.88-5.286 2.83a.495.495 0 0 1-.237.06zm309.398-.955a.5.5 0 0 1-.405-.207 80.581 80.581 0 0 0-3.668-4.696.5.5 0 1 1 .764-.645 81.023 81.023 0 0 1 3.715 4.755.5.5 0 0 1-.406.793zm-711.939-1.105a.496.496 0 0 1-.206-.045l-5.465-2.48a.5.5 0 0 1 .414-.91l5.463 2.48a.5.5 0 0 1-.206.955zm413.145-3.556a.5.5 0 0 1-.23-.944c1.78-.92 3.562-1.83 5.35-2.729a.5.5 0 0 1 .449.894 527.67 527.67 0 0 0-5.34 2.723.494.494 0 0 1-.23.056zM279.863 350.8a.5.5 0 0 1-.207-.045l-5.46-2.487a.5.5 0 1 1 .414-.91l5.46 2.487a.5.5 0 0 1-.207.955zm715.134-3.092a.497.497 0 0 1-.356-.15 81.12 81.12 0 0 0-4.333-4.094.5.5 0 0 1 .66-.751 82.146 82.146 0 0 1 4.386 4.144.5.5 0 0 1-.357.85zm-280.339-.884a.5.5 0 0 1-.219-.95c1.802-.874 3.61-1.735 5.424-2.582a.5.5 0 0 1 .422.906 388.26 388.26 0 0 0-5.408 2.576.5.5 0 0 1-.219.05zm-445.708-1.022a.498.498 0 0 1-.21-.047 681.73 681.73 0 0 1-5.436-2.555.5.5 0 1 1 .43-.903c1.812.862 3.621 1.712 5.427 2.551a.5.5 0 0 1-.21.954zm456.581-4.047a.5.5 0 0 1-.203-.956c1.83-.816 3.666-1.615 5.51-2.398a.5.5 0 0 1 .39.92c-1.837.781-3.668 1.578-5.494 2.391a.497.497 0 0 1-.203.043zm-467.412-1.11a.496.496 0 0 1-.22-.05 478.01 478.01 0 0 1-5.377-2.671.5.5 0 0 1 .452-.893c1.786.902 3.575 1.79 5.365 2.665a.5.5 0 0 1-.22.95zm727.877-.853a.496.496 0 0 1-.303-.102 91.747 91.747 0 0 0-4.863-3.454.5.5 0 1 1 .553-.834 92.635 92.635 0 0 1 4.916 3.492.5.5 0 0 1-.303.898zm-249.42-2.728a.501.501 0 0 1-.188-.964c1.857-.75 3.72-1.485 5.59-2.203a.5.5 0 0 1 .359.933 337.576 337.576 0 0 0-5.574 2.198.503.503 0 0 1-.188.036zm-489.166-1.83a.494.494 0 0 1-.231-.057 346.427 346.427 0 0 1-5.302-2.833.499.499 0 1 1 .478-.878 349.31 349.31 0 0 0 5.287 2.825.5.5 0 0 1-.232.943zm728.597-2.073a.492.492 0 0 1-.25-.067 107.693 107.693 0 0 0-5.25-2.842.5.5 0 1 1 .452-.892c1.814.919 3.598 1.884 5.299 2.868a.5.5 0 0 1-.251.933zm-228.232-.4a.5.5 0 0 1-.17-.97 351.97 351.97 0 0 1 5.663-2.009.5.5 0 0 1 .326.945c-1.888.652-3.77 1.32-5.648 2.003a.5.5 0 0 1-.17.03zm-510.901-3.282a.497.497 0 0 1-.248-.066 280.532 280.532 0 0 1-5.193-3.04.5.5 0 0 1 .514-.857 276.717 276.717 0 0 0 5.175 3.03.5.5 0 0 1-.248.933zm522.246-.632a.5.5 0 0 1-.155-.975c1.904-.62 3.814-1.225 5.73-1.813a.5.5 0 1 1 .292.956c-1.909.586-3.813 1.189-5.712 1.807a.503.503 0 0 1-.155.025zm206.192-1.109a.5.5 0 0 1-.203-.043 128.143 128.143 0 0 0-5.517-2.291.5.5 0 1 1 .361-.933c1.889.734 3.76 1.511 5.563 2.31a.5.5 0 0 1-.203.957zm-194.72-2.412a.5.5 0 0 1-.139-.98 358.014 358.014 0 0 1 5.787-1.616.499.499 0 1 1 .261.966c-1.928.52-3.852 1.057-5.77 1.61a.5.5 0 0 1-.14.02zm183.544-1.94a.496.496 0 0 1-.161-.028 156.991 156.991 0 0 0-5.698-1.818.501.501 0 0 1 .285-.958c1.945.58 3.875 1.196 5.735 1.83a.5.5 0 0 1-.161.973zm-727.562-.096a.498.498 0 0 1-.266-.077 220.19 220.19 0 0 1-5.043-3.294.5.5 0 1 1 .558-.83 218.144 218.144 0 0 0 5.02 3.28.5.5 0 0 1-.269.921zm555.603-1.09a.5.5 0 0 1-.122-.985c1.943-.49 3.89-.962 5.84-1.417a.5.5 0 0 1 .228.974c-1.946.454-3.887.925-5.824 1.412a.504.504 0 0 1-.122.015zm160.464-2.254a.49.49 0 0 1-.126-.016c-1.888-.493-3.844-.97-5.815-1.42a.5.5 0 0 1 .223-.975c1.98.452 3.947.932 5.844 1.427a.5.5 0 0 1-.126.984zm-148.78-.477a.5.5 0 0 1-.106-.989c1.958-.422 3.92-.828 5.885-1.217a.5.5 0 0 1 .194.98c-1.96.389-3.916.793-5.868 1.215a.507.507 0 0 1-.106.01zm137.08-2.195a.497.497 0 0 1-.097-.01c-1.91-.38-3.892-.746-5.889-1.09a.5.5 0 1 1 .17-.985c2.005.345 3.994.713 5.914 1.094a.5.5 0 0 1-.098.99zm-125.311-.137a.5.5 0 0 1-.088-.992c1.972-.356 3.946-.695 5.923-1.017a.5.5 0 1 1 .16.987c-1.97.321-3.94.66-5.905 1.014a.486.486 0 0 1-.09.008zm-589.015-.557a.501.501 0 0 1-.292-.094 180.94 180.94 0 0 1-4.829-3.59.5.5 0 0 1 .61-.792 178.505 178.505 0 0 0 4.803 3.57.5.5 0 0 1-.292.906zm702.5-1.35a.52.52 0 0 1-.075-.005l-1.245-.183c-1.562-.226-3.125-.44-4.689-.644a.5.5 0 0 1-.431-.56.506.506 0 0 1 .56-.432c1.57.205 3.137.42 4.702.646l1.25.184a.5.5 0 0 1-.072.994zm-101.64-.025a.5.5 0 0 1-.072-.995c1.983-.288 3.967-.56 5.953-.816a.5.5 0 1 1 .127.992c-1.98.255-3.959.526-5.935.814a.493.493 0 0 1-.073.005zm89.742-1.527a.49.49 0 0 1-.057-.003c-1.984-.223-3.97-.43-5.96-.618a.5.5 0 0 1-.451-.545.51.51 0 0 1 .545-.45c1.995.189 3.987.395 5.977.62a.5.5 0 0 1-.054.996zm-77.841-.002a.5.5 0 0 1-.055-.997c1.991-.222 3.984-.426 5.978-.614a.507.507 0 0 1 .545.451.5.5 0 0 1-.451.545c-1.989.187-3.975.391-5.96.612a.502.502 0 0 1-.057.003zm11.945-1.125a.5.5 0 0 1-.037-.998c1.997-.154 3.995-.291 5.994-.411a.481.481 0 0 1 .53.469.5.5 0 0 1-.47.529 353.57 353.57 0 0 0-6.017.411zm53.95-.007-.04-.001a346.424 346.424 0 0 0-5.978-.41.5.5 0 0 1-.469-.53c.017-.275.216-.49.53-.469 2 .12 3.998.257 5.994.412a.5.5 0 0 1-.037.998zm-41.97-.712a.5.5 0 0 1-.022-1c2.002-.086 4.004-.155 6.006-.207.27.006.506.212.513.487a.5.5 0 0 1-.487.513c-1.997.052-3.993.12-5.989.206l-.021.001zm29.991-.007h-.021a349.876 349.876 0 0 0-5.988-.204.5.5 0 1 1 .026-1c2.002.051 4.004.12 6.004.205a.499.499 0 0 1-.021 1zm-17.996-.304a.5.5 0 0 1-.005-1c2.005-.017 4.006-.018 6.009-.001a.5.5 0 0 1-.004 1h-.004a350.178 350.178 0 0 0-5.992.001h-.004zm-658.182-2.268a.495.495 0 0 1-.32-.115 148.157 148.157 0 0 1-4.55-3.94.5.5 0 1 1 .67-.743c1.45 1.309 2.97 2.625 4.52 3.914a.5.5 0 0 1-.32.884zm-8.897-8.045a.5.5 0 0 1-.352-.144 122.038 122.038 0 0 1-4.18-4.336.5.5 0 0 1 .737-.676 122.447 122.447 0 0 0 4.146 4.3.5.5 0 0 1-.351.856zm-8.103-8.85a.498.498 0 0 1-.386-.182 105.306 105.306 0 0 1-3.698-4.764.501.501 0 0 1 .809-.59 103.664 103.664 0 0 0 3.661 4.719.499.499 0 0 1-.386.818zm-7.065-9.69a.499.499 0 0 1-.421-.23 92.063 92.063 0 0 1-3.078-5.179.5.5 0 1 1 .875-.482 92.712 92.712 0 0 0 3.045 5.122.5.5 0 0 1-.421.77zm-5.77-10.488a.499.499 0 0 1-.453-.29 86.769 86.769 0 0 1-2.348-5.55.5.5 0 1 1 .933-.358 86.507 86.507 0 0 0 2.321 5.487.5.5 0 0 1-.453.711zm-4.272-11.19a.5.5 0 0 1-.479-.355 84.018 84.018 0 0 1-.735-2.575.5.5 0 1 1 .965-.26c.23.856.473 1.704.727 2.545a.5.5 0 0 1-.478.645z"/><path fill="#c2d1f2" d="M815.023 408.18a.49.49 0 0 1-.49-.49V331.9a.49.49 0 1 1 .98 0v75.79c0 .27-.219.49-.49.49zM815.023 552.778a.49.49 0 0 1-.49-.49v-136.44a.49.49 0 1 1 .98 0v136.44c0 .271-.219.49-.49.49zM802.744 662.804h-7.263a.49.49 0 1 1 0-.98h7.263c6.5 0 11.79-6.142 11.79-13.693v-82.913a.49.49 0 1 1 .98 0v82.913c0 8.09-5.73 14.673-12.77 14.673zM656.022 715.58H642.36a.49.49 0 1 1 0-.98h13.166c-.235-8.944-6.862-16.141-14.975-16.141h-9.687a.49.49 0 0 1-.49-.49v-24.467a.49.49 0 1 1 .98 0v23.977h9.197c8.8 0 15.961 7.9 15.961 17.611 0 .27-.219.49-.49.49z"/><path fill="#0039b2" d="M541.755 651.394h76.921v49.135h-76.921z"/><path d="M618.686 653.275v49.135h-4.918v-1.881h-72.013v-6.682h72.013v-17.812c0-5.614-4.556-10.16-10.17-10.16h-61.833v-12.6h76.921z" opacity=".1"/><path fill="#0039b2" d="M803.359 310.285v337.05c0 8.1-6.57 14.67-14.69 14.67h-416.9c-3.34 0-6.42-1.11-8.89-3-3.51-2.68-5.79-6.91-5.79-11.67v-337.05c0-8.12 6.57-14.69 14.68-14.69h416.9c8.12 0 14.69 6.57 14.69 14.69z"/><path fill="#fff" d="M371.767 631.547c-5.932 0-10.758-4.825-10.758-10.757V310.284c0-5.937 4.826-10.767 10.758-10.767h416.898c5.937 0 10.768 4.83 10.768 10.767V620.79c0 5.932-4.83 10.757-10.768 10.757H371.767z"/><path d="M776.266 459.086H390.304a5.298 5.298 0 0 1-5.298-5.298V346.612a5.298 5.298 0 0 1 5.298-5.298h385.962a5.298 5.298 0 0 1 5.297 5.298v107.176a5.298 5.298 0 0 1-5.297 5.298zM757.067 584.457a4.588 4.588 0 0 1-4.6 4.59h-85.27c-2.54 0-4.6-2.05-4.6-4.59 0-1.27.51-2.42 1.35-3.25.83-.83 1.98-1.35 3.25-1.35h85.27a4.6 4.6 0 0 1 4.6 4.6zM757.067 603.862a4.588 4.588 0 0 1-4.6 4.59h-85.27c-2.54 0-4.6-2.05-4.6-4.59 0-1.27.51-2.42 1.35-3.25.83-.83 1.98-1.35 3.25-1.35h85.27a4.6 4.6 0 0 1 4.6 4.6z" opacity=".08"/><path fill="#d7e7ff" d="M755.677 582.798a4.588 4.588 0 0 1-4.6 4.59h-85.27c-2.54 0-4.6-2.05-4.6-4.59 0-1.27.51-2.42 1.35-3.25.83-.83 1.98-1.35 3.25-1.35h85.27a4.6 4.6 0 0 1 4.6 4.6zM755.677 602.202a4.588 4.588 0 0 1-4.6 4.59h-85.27c-2.54 0-4.6-2.05-4.6-4.59 0-1.27.51-2.42 1.35-3.25.83-.83 1.98-1.35 3.25-1.35h85.27a4.6 4.6 0 0 1 4.6 4.6z"/><path d="M494.329 584.457a4.588 4.588 0 0 1-4.6 4.59h-85.27c-2.54 0-4.6-2.05-4.6-4.59 0-1.27.51-2.42 1.35-3.25.83-.83 1.98-1.35 3.25-1.35h85.27a4.6 4.6 0 0 1 4.6 4.6zM494.329 603.862a4.588 4.588 0 0 1-4.6 4.59h-85.27c-2.54 0-4.6-2.05-4.6-4.59 0-1.27.51-2.42 1.35-3.25.83-.83 1.98-1.35 3.25-1.35h85.27a4.6 4.6 0 0 1 4.6 4.6zM498.246 564.035h-94.745a8.513 8.513 0 0 1-8.513-8.513v-75.996a8.513 8.513 0 0 1 8.513-8.513h94.745a8.513 8.513 0 0 1 8.513 8.513v75.996a8.513 8.513 0 0 1-8.513 8.513z" opacity=".08"/><path fill="#ffc837" d="M495.6 561.53h-94.745a8.513 8.513 0 0 1-8.513-8.513V477.02a8.513 8.513 0 0 1 8.513-8.512H495.6a8.513 8.513 0 0 1 8.512 8.512v75.997a8.513 8.513 0 0 1-8.512 8.512z"/><path d="M436.023 496.523a5.431 5.431 0 0 1 5.424-5.424 5.425 5.425 0 1 1-5.424 5.424zM486.47 540.07h-74.218c-1.846 0-2.888-2.118-1.761-3.58l20.846-27.042a2.223 2.223 0 0 1 3.522 0l4 5.188a2.223 2.223 0 0 0 3.521 0l12.74-16.527a2.223 2.223 0 0 1 3.523 0l29.587 38.381c1.127 1.462.085 3.58-1.76 3.58z" opacity=".05"/><path fill="#fff" d="M433.757 495.39a5.431 5.431 0 0 1 5.424-5.424 5.425 5.425 0 1 1-5.424 5.424zM484.203 538.938h-74.218c-1.845 0-2.888-2.12-1.76-3.581l20.846-27.042a2.223 2.223 0 0 1 3.521 0l4 5.188a2.223 2.223 0 0 0 3.521 0l12.741-16.527a2.223 2.223 0 0 1 3.522 0l29.588 38.38c1.127 1.463.084 3.582-1.761 3.582z"/><path d="M628.92 564.035h-94.745a8.513 8.513 0 0 1-8.513-8.513v-75.996a8.513 8.513 0 0 1 8.513-8.513h94.745a8.513 8.513 0 0 1 8.513 8.513v75.996a8.513 8.513 0 0 1-8.513 8.513z" opacity=".08"/><path fill="#3cd278" d="M626.274 561.53h-94.745a8.513 8.513 0 0 1-8.513-8.513V477.02a8.513 8.513 0 0 1 8.513-8.512h94.745a8.513 8.513 0 0 1 8.512 8.512v75.997a8.513 8.513 0 0 1-8.512 8.512z"/><path d="M566.697 496.523a5.431 5.431 0 0 1 5.424-5.424 5.425 5.425 0 1 1-5.424 5.424zM617.143 540.07h-74.217c-1.846 0-2.888-2.118-1.761-3.58l20.846-27.042a2.223 2.223 0 0 1 3.522 0l4 5.188a2.223 2.223 0 0 0 3.521 0l12.74-16.527a2.223 2.223 0 0 1 3.523 0l29.587 38.381c1.127 1.462.085 3.58-1.76 3.58z" opacity=".05"/><path fill="#fff" d="M564.43 495.39a5.431 5.431 0 0 1 5.425-5.424 5.425 5.425 0 1 1-5.424 5.424zM614.877 538.938h-74.218c-1.845 0-2.887-2.12-1.76-3.581l20.846-27.042a2.223 2.223 0 0 1 3.522 0l3.999 5.188a2.223 2.223 0 0 0 3.522 0l12.74-16.527a2.223 2.223 0 0 1 3.522 0l29.588 38.38c1.127 1.463.085 3.582-1.761 3.582z"/><path d="M759.594 564.035H664.85a8.513 8.513 0 0 1-8.512-8.513v-75.996a8.513 8.513 0 0 1 8.512-8.513h94.745a8.513 8.513 0 0 1 8.513 8.513v75.996a8.513 8.513 0 0 1-8.513 8.513z" opacity=".08"/><path fill="#ff5252" d="M756.948 561.53h-94.745a8.513 8.513 0 0 1-8.513-8.513V477.02a8.513 8.513 0 0 1 8.513-8.512h94.745a8.513 8.513 0 0 1 8.513 8.512v75.997a8.513 8.513 0 0 1-8.513 8.512z"/><path d="M697.371 496.523a5.431 5.431 0 0 1 5.425-5.424 5.425 5.425 0 1 1-5.425 5.424zM747.817 540.07H673.6c-1.846 0-2.888-2.118-1.76-3.58l20.845-27.042a2.223 2.223 0 0 1 3.522 0l4 5.188a2.223 2.223 0 0 0 3.521 0l12.74-16.527a2.223 2.223 0 0 1 3.523 0l29.587 38.381c1.127 1.462.085 3.58-1.76 3.58z" opacity=".05"/><path fill="#fff" d="M695.105 495.39a5.431 5.431 0 0 1 5.424-5.424 5.425 5.425 0 1 1-5.424 5.424zM745.55 538.938h-74.216c-1.846 0-2.888-2.12-1.761-3.581l20.846-27.042a2.223 2.223 0 0 1 3.522 0l3.999 5.188a2.223 2.223 0 0 0 3.522 0l12.74-16.527a2.223 2.223 0 0 1 3.522 0l29.588 38.38c1.127 1.463.085 3.582-1.761 3.582z"/><path fill="#d7e7ff" d="M799.433 321.59v-11.306c0-5.937-4.83-10.767-10.768-10.767H371.767c-5.932 0-10.758 4.83-10.758 10.767v11.306h438.424z"/><circle cx="371.919" cy="311.793" r="4.149" fill="#fff"/><circle cx="382.529" cy="311.793" r="4.149" fill="#fff"/><circle cx="393.214" cy="311.869" r="4.149" fill="#fff"/><path fill="#0039b2" d="M643.835 715.33H516.607c0-4.728 1.727-9.01 4.531-12.1 2.793-3.103 6.662-5.014 10.935-5.014h96.296c8.535 0 15.466 7.657 15.466 17.115z"/><circle cx="580.216" cy="647.307" r="5.368" fill="#fff"/><path d="M803.359 513.005v134.33c0 8.1-6.57 14.67-14.69 14.67h-55.48v-139.1c0-5.47 4.44-9.9 9.9-9.9h60.27z" opacity=".1"/><path fill="#829ed9" d="M1034.267 708.364v2.806c0 6.799-5.518 12.317-12.323 12.317H734.136c-6.806 0-12.317-5.518-12.317-12.317v-2.806a3.799 3.799 0 0 1 3.802-3.802h304.837c2.1 0 3.809 1.697 3.809 3.802zM1018.03 525.993v178.563H738.048V526c0-5.373 4.36-9.728 9.727-9.728h260.545c5.361 0 9.71 4.355 9.71 9.722z"/><path fill="#fff" d="M1013.844 704.557V525.984a5.528 5.528 0 0 0-5.528-5.528H747.763a5.528 5.528 0 0 0-5.528 5.528v178.573h271.61z"/><path d="M1004.69 579.596c0 .83-.67 1.5-1.49 1.5h-55.48a1.496 1.496 0 1 1 0-2.99h55.48c.82 0 1.49.67 1.49 1.49zM1004.69 589.726c0 .83-.67 1.5-1.49 1.5h-55.48c-.83 0-1.5-.67-1.5-1.5s.67-1.5 1.5-1.5h55.48c.82 0 1.49.67 1.49 1.5zM1004.69 599.856c0 .82-.67 1.49-1.49 1.49h-55.48a1.496 1.496 0 1 1 0-2.99h55.48c.82 0 1.49.67 1.49 1.5zM946.22 569.466c0-.82.67-1.49 1.5-1.49h55.48a1.496 1.496 0 0 1 0 2.99h-55.48c-.83 0-1.5-.67-1.5-1.5zM1004.69 609.986c0 .82-.67 1.49-1.49 1.49h-55.48a1.496 1.496 0 1 1 0-2.99h55.48c.82 0 1.49.67 1.49 1.5z" opacity=".08"/><path fill="#5d81c1" d="M907.758 704.557 903.956 711a3.015 3.015 0 0 1-2.597 1.483H854.72a3.015 3.015 0 0 1-2.596-1.483l-3.803-6.443h59.437z"/><path d="M378.739 478.955v183.05h-6.97c-3.34 0-6.42-1.11-8.89-3-3.51-2.68-5.79-6.91-5.79-11.67v-180.85h9.18c6.88 0 12.47 5.59 12.47 12.47z" opacity=".08"/><path fill="#0039b2" d="M374.314 481.817v221.348c0 6.88-5.598 12.479-12.479 12.479H238.378c-6.88 0-12.471-5.599-12.471-12.479V481.817c0-6.888 5.59-12.47 12.47-12.47h123.458c6.88 0 12.48 5.582 12.48 12.47z"/><path fill="#fff" d="M238.379 711.073c-4.357 0-7.902-3.549-7.902-7.91V481.82c0-4.361 3.545-7.91 7.902-7.91h123.456c4.361 0 7.91 3.549 7.91 7.91v221.342c0 4.362-3.549 7.91-7.91 7.91H238.379z"/><path fill="#719bff" d="M369.745 548.754V481.82c0-4.361-3.549-7.91-7.91-7.91H238.379c-4.357 0-7.902 3.549-7.902 7.91v66.934h139.268z"/><path fill="#0039b2" d="m327.597 472.814-3.038 4.005a5.967 5.967 0 0 1-4.75 2.36h-36.246a5.993 5.993 0 0 1-4.758-2.36l-3.03-4.005h51.822z"/><circle cx="286.848" cy="474.542" r="1.728" fill="#fff"/><path fill="#fff" d="M318.25 474.588a.825.825 0 0 1-.83.822h-25.762a.825.825 0 1 1 0-1.652h25.763c.457 0 .83.373.83.83z"/><path fill="#719bff" d="M773.202 454.684H387.24a5.298 5.298 0 0 1-5.298-5.298V342.21a5.298 5.298 0 0 1 5.298-5.298h385.962a5.298 5.298 0 0 1 5.298 5.298v107.176a5.298 5.298 0 0 1-5.298 5.298z"/><path d="M558.533 370.239c0-4.33 3.52-7.85 7.85-7.85 4.34 0 7.84 3.52 7.84 7.85 0 4.34-3.5 7.84-7.84 7.84-4.33 0-7.85-3.5-7.85-7.84zM664.205 434.681h-156.99c-1.59 0-2.37-1.95-1.22-3.05l46.11-44.22c.68-.65 1.76-.65 2.45 0l12.53 12.02c.68.65 1.76.65 2.44 0l29.94-28.71c.68-.65 1.76-.65 2.45 0l63.51 60.91c1.15 1.1.37 3.05-1.22 3.05z" opacity=".15"/><path fill="#fff" d="M554.746 368.812c0-4.325 3.52-7.845 7.846-7.845 4.339 0 7.845 3.52 7.845 7.845a7.837 7.837 0 0 1-7.845 7.845 7.846 7.846 0 0 1-7.846-7.845zM658.716 432.424h-156.99c-1.59 0-2.37-1.95-1.22-3.05l46.11-44.22c.68-.65 1.76-.65 2.45 0l12.53 12.02c.68.65 1.76.65 2.44 0l29.94-28.71c.68-.65 1.76-.65 2.45 0l63.51 60.91c1.15 1.1.37 3.05-1.22 3.05z"/><path fill="#d7e7ff" d="M492.939 582.798a4.588 4.588 0 0 1-4.6 4.59h-85.27c-2.54 0-4.6-2.05-4.6-4.59 0-1.27.51-2.42 1.35-3.25.83-.83 1.98-1.35 3.25-1.35h85.27a4.6 4.6 0 0 1 4.6 4.6zM492.939 602.202a4.588 4.588 0 0 1-4.6 4.59h-85.27c-2.54 0-4.6-2.05-4.6-4.59 0-1.27.51-2.42 1.35-3.25.83-.83 1.98-1.35 3.25-1.35h85.27a4.6 4.6 0 0 1 4.6 4.6z"/><path d="M625.698 584.457a4.588 4.588 0 0 1-4.6 4.59h-85.27c-2.54 0-4.6-2.05-4.6-4.59 0-1.27.51-2.42 1.35-3.25.83-.83 1.98-1.35 3.25-1.35h85.27a4.6 4.6 0 0 1 4.6 4.6zM625.698 603.862a4.588 4.588 0 0 1-4.6 4.59h-85.27c-2.54 0-4.6-2.05-4.6-4.59 0-1.27.51-2.42 1.35-3.25.83-.83 1.98-1.35 3.25-1.35h85.27a4.6 4.6 0 0 1 4.6 4.6z" opacity=".08"/><path fill="#d7e7ff" d="M624.308 582.798a4.588 4.588 0 0 1-4.6 4.59h-85.27c-2.54 0-4.6-2.05-4.6-4.59 0-1.27.51-2.42 1.35-3.25.83-.83 1.98-1.35 3.25-1.35h85.27a4.6 4.6 0 0 1 4.6 4.6zM624.308 602.202a4.588 4.588 0 0 1-4.6 4.59h-85.27c-2.54 0-4.6-2.05-4.6-4.59 0-1.27.51-2.42 1.35-3.25.83-.83 1.98-1.35 3.25-1.35h85.27a4.6 4.6 0 0 1 4.6 4.6z"/><path d="M930.974 618.968H757.04a5.298 5.298 0 0 1-5.298-5.298V539.56a5.298 5.298 0 0 1 5.298-5.298h173.933a5.298 5.298 0 0 1 5.298 5.298v74.111a5.298 5.298 0 0 1-5.298 5.298z" opacity=".08"/><path fill="#719bff" d="M928.77 615.802H754.837a5.298 5.298 0 0 1-5.298-5.298v-74.111a5.298 5.298 0 0 1 5.298-5.298H928.77a5.298 5.298 0 0 1 5.298 5.298v74.11a5.298 5.298 0 0 1-5.298 5.299z"/><path d="M826.205 555.065a5.651 5.651 0 0 1 5.646-5.646 5.64 5.64 0 0 1 5.639 5.646 5.63 5.63 0 0 1-5.64 5.639 5.64 5.64 0 0 1-5.645-5.64zM902.21 601.415H789.293c-1.143 0-1.704-1.402-.877-2.194l33.164-31.805a1.282 1.282 0 0 1 1.763 0l9.012 8.646c.489.467 1.266.467 1.755 0l21.534-20.65a1.282 1.282 0 0 1 1.762 0l45.68 43.81c.827.79.266 2.193-.878 2.193z" opacity=".15"/><path fill="#fff" d="M823.481 554.039a5.65 5.65 0 0 1 5.643-5.643 5.643 5.643 0 0 1 5.643 5.643 5.643 5.643 0 0 1-11.285 0zM898.261 599.792H785.346c-1.143 0-1.704-1.403-.877-2.194l33.164-31.805a1.282 1.282 0 0 1 1.762 0l9.013 8.645a1.273 1.273 0 0 0 1.755 0l21.534-20.65a1.282 1.282 0 0 1 1.762 0l45.68 43.81c.827.791.266 2.194-.878 2.194z"/><path d="M1005.492 534.43v22.67c0 1.25-1.01 2.26-2.26 2.26h-53.95c-1.25 0-2.26-1.01-2.26-2.26v-22.67c0-1.24 1.01-2.25 2.26-2.25h53.95c1.25 0 2.26 1.01 2.26 2.25z" opacity=".08"/><path fill="#d7e7ff" d="M1004.343 533.345v22.67c0 1.25-1.01 2.26-2.26 2.26h-53.95c-1.25 0-2.26-1.01-2.26-2.26v-22.67c0-1.24 1.01-2.25 2.26-2.25h53.95c1.25 0 2.26 1.01 2.26 2.25zM1004.339 579.085c0 .83-.67 1.5-1.49 1.5h-55.48a1.496 1.496 0 1 1 0-2.99h55.48c.82 0 1.49.67 1.49 1.49zM1004.339 589.215c0 .83-.67 1.5-1.49 1.5h-55.48c-.83 0-1.5-.67-1.5-1.5s.67-1.5 1.5-1.5h55.48c.82 0 1.49.67 1.49 1.5zM1004.339 599.345c0 .82-.67 1.49-1.49 1.49h-55.48a1.496 1.496 0 1 1 0-2.99h55.48c.82 0 1.49.67 1.49 1.5zM945.869 568.955c0-.82.67-1.49 1.5-1.49h55.48a1.496 1.496 0 0 1 0 2.99h-55.48c-.83 0-1.5-.67-1.5-1.5zM1004.339 609.475c0 .82-.67 1.49-1.49 1.49h-55.48a1.496 1.496 0 1 1 0-2.99h55.48c.82 0 1.49.67 1.49 1.5z"/><path d="M904.079 631.955v36.8a2.77 2.77 0 0 1-2.77 2.77h-45.33c-1.53 0-2.78-1.24-2.78-2.77v-36.8c0-1.53 1.25-2.77 2.78-2.77h45.33a2.77 2.77 0 0 1 2.77 2.77zM834.599 631.955v36.8a2.77 2.77 0 0 1-2.77 2.77h-45.34a2.77 2.77 0 0 1-2.77-2.77v-36.8a2.77 2.77 0 0 1 2.77-2.77h45.34a2.77 2.77 0 0 1 2.77 2.77zM968.537 680.823a2.088 2.088 0 0 1-2.094 2.09h-38.814a2.09 2.09 0 0 1-1.48-3.57 2.088 2.088 0 0 1 1.48-.614h38.814c1.156 0 2.094.938 2.094 2.094zM968.537 689.655a2.088 2.088 0 0 1-2.094 2.09h-38.814a2.09 2.09 0 0 1-1.48-3.569 2.088 2.088 0 0 1 1.48-.614h38.814c1.156 0 2.094.937 2.094 2.093z" opacity=".08"/><path fill="#d7e7ff" d="M967.904 680.067a2.088 2.088 0 0 1-2.094 2.09h-38.814a2.09 2.09 0 0 1-1.48-3.569 2.088 2.088 0 0 1 1.48-.614h38.814c1.156 0 2.094.937 2.094 2.093zM967.904 688.9a2.088 2.088 0 0 1-2.094 2.09h-38.814a2.09 2.09 0 0 1-1.48-3.57 2.088 2.088 0 0 1 1.48-.614h38.814c1.156 0 2.094.938 2.094 2.094z"/><path d="M828.941 680.823a2.088 2.088 0 0 1-2.094 2.09h-38.814a2.09 2.09 0 0 1-1.48-3.57 2.088 2.088 0 0 1 1.48-.614h38.814c1.156 0 2.094.938 2.094 2.094zM828.941 689.655a2.088 2.088 0 0 1-2.094 2.09h-38.814a2.09 2.09 0 0 1-1.48-3.569 2.088 2.088 0 0 1 1.48-.614h38.814c1.156 0 2.094.937 2.094 2.093z" opacity=".08"/><path fill="#ffc837" d="M833.399 630.815v36.8a2.77 2.77 0 0 1-2.77 2.77h-45.34a2.77 2.77 0 0 1-2.77-2.77v-36.8a2.77 2.77 0 0 1 2.77-2.77h45.34a2.77 2.77 0 0 1 2.77 2.77z"/><path d="M802.4 640.796a2.47 2.47 0 1 1 4.937 0 2.47 2.47 0 0 1-4.936 0zM825.363 660.619H791.58c-.84 0-1.314-.965-.801-1.63l9.489-12.31a1.012 1.012 0 0 1 1.603 0l1.82 2.362a1.012 1.012 0 0 0 1.603 0l5.8-7.523a1.012 1.012 0 0 1 1.603 0l13.468 17.47c.513.666.039 1.63-.802 1.63z" opacity=".05"/><path fill="#fff" d="M801.37 640.28a2.47 2.47 0 1 1 4.937 0 2.47 2.47 0 0 1-4.938 0zM824.332 660.103h-33.783c-.84 0-1.315-.965-.802-1.63l9.49-12.31a1.012 1.012 0 0 1 1.602 0l1.82 2.362a1.012 1.012 0 0 0 1.604 0l5.8-7.523a1.012 1.012 0 0 1 1.602 0l13.468 17.47c.513.666.039 1.63-.801 1.63z"/><path fill="#3cd278" d="M902.879 630.815v36.8a2.77 2.77 0 0 1-2.77 2.77h-45.34a2.77 2.77 0 0 1-2.77-2.77v-36.8a2.77 2.77 0 0 1 2.77-2.77h45.34a2.77 2.77 0 0 1 2.77 2.77z"/><path d="M871.882 640.796a2.47 2.47 0 1 1 4.937 0 2.47 2.47 0 0 1-4.937 0zM894.845 660.619h-33.783c-.84 0-1.315-.965-.802-1.63l9.49-12.31a1.012 1.012 0 0 1 1.602 0l1.82 2.362a1.012 1.012 0 0 0 1.604 0l5.8-7.523a1.012 1.012 0 0 1 1.602 0l13.468 17.47c.513.666.039 1.63-.801 1.63z" opacity=".05"/><path fill="#fff" d="M870.85 640.28a2.47 2.47 0 1 1 4.937 0 2.47 2.47 0 0 1-4.936 0zM893.813 660.103H860.03c-.84 0-1.314-.965-.801-1.63l9.489-12.31a1.012 1.012 0 0 1 1.603 0l1.82 2.362a1.012 1.012 0 0 0 1.603 0l5.8-7.523a1.012 1.012 0 0 1 1.603 0l13.468 17.47c.513.666.038 1.63-.802 1.63z"/><path d="M973.559 631.955v36.8a2.77 2.77 0 0 1-2.77 2.77h-45.33a2.77 2.77 0 0 1-2.77-2.77v-36.8a2.77 2.77 0 0 1 2.77-2.77h45.33a2.77 2.77 0 0 1 2.77 2.77z" opacity=".08"/><path fill="#ff5252" d="M972.359 630.815v36.8a2.77 2.77 0 0 1-2.77 2.77h-45.34a2.77 2.77 0 0 1-2.77-2.77v-36.8a2.77 2.77 0 0 1 2.77-2.77h45.34a2.77 2.77 0 0 1 2.77 2.77z"/><path d="M941.364 640.796a2.47 2.47 0 1 1 4.938 0 2.47 2.47 0 0 1-4.938 0zM964.326 660.619h-33.783c-.84 0-1.314-.965-.801-1.63l9.489-12.31a1.012 1.012 0 0 1 1.603 0l1.82 2.362a1.012 1.012 0 0 0 1.603 0l5.8-7.523a1.012 1.012 0 0 1 1.603 0l13.468 17.47c.513.666.038 1.63-.802 1.63z" opacity=".05"/><path fill="#fff" d="M940.332 640.28a2.47 2.47 0 1 1 4.938 0 2.47 2.47 0 0 1-4.938 0zM963.294 660.103h-33.782c-.84 0-1.315-.965-.802-1.63l9.489-12.31a1.012 1.012 0 0 1 1.603 0l1.82 2.362a1.012 1.012 0 0 0 1.604 0l5.799-7.523a1.012 1.012 0 0 1 1.603 0l13.468 17.47c.513.666.039 1.63-.802 1.63z"/><path fill="#d7e7ff" d="M828.308 680.067a2.088 2.088 0 0 1-2.094 2.09H787.4a2.09 2.09 0 0 1-1.479-3.569 2.088 2.088 0 0 1 1.48-.614h38.813c1.157 0 2.094.937 2.094 2.093zM828.308 688.9a2.088 2.088 0 0 1-2.094 2.09H787.4a2.09 2.09 0 0 1-1.479-3.57 2.088 2.088 0 0 1 1.48-.614h38.813c1.157 0 2.094.938 2.094 2.094z"/><path d="M898.739 680.823a2.088 2.088 0 0 1-2.094 2.09h-38.814a2.09 2.09 0 0 1-1.48-3.57 2.088 2.088 0 0 1 1.48-.614h38.814c1.156 0 2.094.938 2.094 2.094zM898.739 689.655a2.088 2.088 0 0 1-2.094 2.09h-38.814a2.09 2.09 0 0 1-1.48-3.569 2.088 2.088 0 0 1 1.48-.614h38.814c1.156 0 2.094.937 2.094 2.093z" opacity=".08"/><path fill="#d7e7ff" d="M898.106 680.067a2.088 2.088 0 0 1-2.094 2.09h-38.814a2.09 2.09 0 0 1-1.48-3.569 2.088 2.088 0 0 1 1.48-.614h38.814c1.156 0 2.094.937 2.094 2.093zM898.106 688.9a2.088 2.088 0 0 1-2.094 2.09h-38.814a2.09 2.09 0 0 1-1.48-3.57 2.088 2.088 0 0 1 1.48-.614h38.814c1.156 0 2.094.938 2.094 2.094z"/><path d="M287.792 499.195a4.468 4.468 0 0 1 4.464-4.464 4.46 4.46 0 0 1 4.458 4.464 4.45 4.45 0 0 1-4.458 4.459 4.46 4.46 0 0 1-4.464-4.459zM347.882 535.84H258.61c-.904 0-1.347-1.108-.693-1.734l26.22-25.146c.387-.37 1-.37 1.393 0l7.125 6.836c.387.37 1.001.37 1.388 0l17.025-16.326c.387-.37 1-.37 1.393 0l36.115 34.636c.654.626.21 1.734-.694 1.734z" opacity=".15"/><path fill="#fff" d="M285.64 498.384a4.467 4.467 0 0 1 4.46-4.461 4.462 4.462 0 1 1-4.46 4.461zM344.76 534.557H255.49c-.904 0-1.348-1.11-.694-1.735l26.22-25.145c.387-.37 1.001-.37 1.394 0l7.125 6.835c.387.37 1 .37 1.387 0l17.026-16.326c.386-.37 1-.37 1.393 0l36.115 34.636c.654.626.21 1.735-.694 1.735z"/><path d="M298.237 567.394v43.275c0 1.8-1.459 3.258-3.258 3.258h-53.318a3.257 3.257 0 0 1-3.258-3.258v-43.275c0-1.8 1.459-3.258 3.258-3.258h53.318c1.8 0 3.258 1.459 3.258 3.258z" opacity=".08"/><path fill="#ffc837" d="M296.825 566.053v43.276c0 1.799-1.458 3.257-3.257 3.257H240.25a3.257 3.257 0 0 1-3.258-3.257v-43.276c0-1.799 1.459-3.257 3.258-3.257h53.318c1.8 0 3.257 1.458 3.257 3.257z"/><path d="M260.77 577.79a2.904 2.904 0 1 1 5.806 0 2.904 2.904 0 0 1-5.806 0zM287.773 601.1h-39.727c-.988 0-1.546-1.134-.943-1.916l11.159-14.475a1.19 1.19 0 0 1 1.885 0l2.14 2.777a1.19 1.19 0 0 0 1.886 0l6.82-8.847a1.19 1.19 0 0 1 1.885 0l15.838 20.545c.603.782.045 1.917-.943 1.917z" opacity=".05"/><path fill="#fff" d="M259.557 577.184a2.904 2.904 0 1 1 5.806 0 2.904 2.904 0 0 1-5.806 0zM286.56 600.494h-39.728c-.988 0-1.545-1.134-.942-1.917l11.159-14.475a1.19 1.19 0 0 1 1.885 0l2.14 2.777a1.19 1.19 0 0 0 1.886 0l6.82-8.847a1.19 1.19 0 0 1 1.885 0l15.838 20.545c.603.783.045 1.917-.943 1.917z"/><path d="M363.229 567.394v43.275c0 1.8-1.458 3.258-3.257 3.258h-53.319a3.257 3.257 0 0 1-3.257-3.258v-43.275c0-1.8 1.458-3.258 3.257-3.258h53.319c1.799 0 3.257 1.459 3.257 3.258z" opacity=".08"/><path fill="#ff5252" d="M361.818 566.053v43.276c0 1.799-1.458 3.257-3.258 3.257h-53.318a3.257 3.257 0 0 1-3.257-3.257v-43.276c0-1.799 1.458-3.257 3.257-3.257h53.318c1.8 0 3.258 1.458 3.258 3.257z"/><path d="M325.763 577.79a2.904 2.904 0 1 1 5.806 0 2.904 2.904 0 0 1-5.806 0zM352.766 601.1h-39.728c-.988 0-1.546-1.134-.943-1.916l11.16-14.475a1.19 1.19 0 0 1 1.884 0l2.141 2.777a1.19 1.19 0 0 0 1.885 0l6.82-8.847a1.19 1.19 0 0 1 1.885 0l15.838 20.545c.603.782.046 1.917-.942 1.917z" opacity=".05"/><path fill="#fff" d="M324.55 577.184a2.904 2.904 0 1 1 5.806 0 2.904 2.904 0 0 1-5.807 0zM351.552 600.494h-39.727c-.988 0-1.546-1.134-.943-1.917l11.159-14.475a1.19 1.19 0 0 1 1.885 0l2.14 2.777a1.19 1.19 0 0 0 1.886 0l6.82-8.847a1.19 1.19 0 0 1 1.885 0l15.838 20.545c.603.783.045 1.917-.943 1.917z"/><path d="M298.237 628.448v43.275c0 1.8-1.459 3.258-3.258 3.258h-53.318a3.257 3.257 0 0 1-3.258-3.258v-43.275c0-1.8 1.459-3.258 3.258-3.258h53.318c1.8 0 3.258 1.458 3.258 3.258z" opacity=".08"/><path fill="#3cd278" d="M296.825 627.107v43.276c0 1.799-1.458 3.257-3.257 3.257H240.25a3.257 3.257 0 0 1-3.258-3.257v-43.276c0-1.8 1.459-3.257 3.258-3.257h53.318c1.8 0 3.257 1.458 3.257 3.257z"/><path d="M260.77 638.844a2.904 2.904 0 1 1 5.806 0 2.904 2.904 0 0 1-5.806 0zM287.773 662.154h-39.727c-.988 0-1.546-1.134-.943-1.916l11.159-14.475a1.19 1.19 0 0 1 1.885 0l2.14 2.777a1.19 1.19 0 0 0 1.886 0l6.82-8.847a1.19 1.19 0 0 1 1.885 0l15.838 20.545c.603.782.045 1.916-.943 1.916z" opacity=".05"/><path fill="#fff" d="M259.557 638.237a2.904 2.904 0 1 1 5.806 0 2.904 2.904 0 0 1-5.806 0zM286.56 661.548h-39.728c-.988 0-1.545-1.134-.942-1.917l11.159-14.475a1.19 1.19 0 0 1 1.885 0l2.14 2.777a1.19 1.19 0 0 0 1.886 0l6.82-8.847a1.19 1.19 0 0 1 1.885 0l15.838 20.545c.603.783.045 1.917-.943 1.917z"/><path d="M363.229 628.448v43.275c0 1.8-1.458 3.258-3.257 3.258h-53.319a3.257 3.257 0 0 1-3.257-3.258v-43.275c0-1.8 1.458-3.258 3.257-3.258h53.319c1.799 0 3.257 1.458 3.257 3.258z" opacity=".08"/><path fill="#d250dc" d="M361.818 627.107v43.276c0 1.799-1.458 3.257-3.258 3.257h-53.318a3.257 3.257 0 0 1-3.257-3.257v-43.276c0-1.8 1.458-3.257 3.257-3.257h53.318c1.8 0 3.258 1.458 3.258 3.257z"/><path d="M325.763 638.844a2.904 2.904 0 1 1 5.806 0 2.904 2.904 0 0 1-5.806 0zM352.766 662.154h-39.728c-.988 0-1.546-1.134-.943-1.916l11.16-14.475a1.19 1.19 0 0 1 1.884 0l2.141 2.777a1.19 1.19 0 0 0 1.885 0l6.82-8.847a1.19 1.19 0 0 1 1.885 0l15.838 20.545c.603.782.046 1.916-.942 1.916z" opacity=".05"/><path fill="#fff" d="M324.55 638.237a2.904 2.904 0 1 1 5.806 0 2.904 2.904 0 0 1-5.807 0zM351.552 661.548h-39.727c-.988 0-1.546-1.134-.943-1.917l11.159-14.475a1.19 1.19 0 0 1 1.885 0l2.14 2.777a1.19 1.19 0 0 0 1.886 0l6.82-8.847a1.19 1.19 0 0 1 1.885 0l15.838 20.545c.603.783.045 1.917-.943 1.917z"/><path d="M733.689 372.917a.477.477 0 0 0 .47.517h3.58c.24 0 .435-.184.458-.413l.436-3.534h1.87l.345.78.252.574 1.02 2.306a.462.462 0 0 0 .425.287h18.563c.264 0 .47-.207.47-.47v-2.56c0-.917-.264-1.8-.768-2.558a2.605 2.605 0 0 0-.436-.573 4.389 4.389 0 0 0-1.343-1.067l-8.191-4.279s-.837-3.12-1.044-3.327c-.207-.207-14.822 0-14.822 0l-.62 6.849-.046.574-.62 6.894z"/><path fill="#fff" d="M734.308 366.023h9.12v-.574h-9.074zM740.848 370.267l.252.574h12.964c.149 0 .287-.126.287-.287v-2.708h6.459a2.605 2.605 0 0 0-.436-.573h-6.31a.284.284 0 0 0-.287.287v2.707h-12.93z"/><path fill="#ffc6b2" d="M778.978 219.303s7.495 41.422 7.185 41.298c-.31-.124-27.448.31-27.697 0-.248-.31 2.981-54.772 2.981-54.772l5.34 1.925 12.19 11.549z"/><path fill="#3cd278" d="M779.766 219.71c-.103-.667-.272-1.35-.447-2.104-4.232-18.293-13.35-27.782-15.19-28.736l-11.521 14.368-3.802 16.472c0 1.115 30.96 1.115 30.96 0z"/><path fill="#1258ff" d="m787.177 256.73-14.488-.986s-19.798-10.999-20.58-10.705c-.783.293-7.335 18.09-7.041 18.383.293.294 16.526 17.797 16.526 17.797l-30.42 79.346c0 2.554 21.425 2.017 21.425-.537l48.495-74.503c8.078-11.749.308-27.826-13.917-28.795z"/><path d="M797.468 372.917a.477.477 0 0 0 .47.517h3.58c.24 0 .435-.184.458-.413l.436-3.534h1.87l.344.78.253.574 1.02 2.306a.462.462 0 0 0 .425.287h18.563c.264 0 .47-.207.47-.47v-2.56c0-.917-.264-1.8-.769-2.558a2.605 2.605 0 0 0-.436-.573 4.39 4.39 0 0 0-1.342-1.067l-8.191-4.279s-.838-3.12-1.044-3.327c-.207-.207-14.823 0-14.823 0l-.62 6.849-.045.574-.62 6.894z"/><path fill="#fff" d="M798.087 366.023h9.12v-.574h-9.074zM804.626 370.267l.253.574h12.964c.149 0 .286-.126.286-.287v-2.708h6.46a2.605 2.605 0 0 0-.437-.573h-6.31a.284.284 0 0 0-.286.287v2.707h-12.93z"/><path fill="#1258ff" d="m758.26 296.098 38.365 64.049 19.886-.359s-15.728-66.004-25.693-85.54a22.654 22.654 0 0 0-14.076-11.52l-32.065-6.346-31.053 1.38c-.39 1.008-4.155 35.387 11.662 38.336h32.975z"/><path fill="#fff" d="M813.677 351.946c.022.141-1.407.502-4.329 1.034l-7.45 1.2c-2.938.413-4.409.518-4.432.373-.024-.146 1.406-.503 4.325-1.037l7.45-1.2c2.942-.41 4.412-.52 4.436-.37z"/><path fill="#3cd278" d="M772.691 255.74c-.99 4.494-56.89 6.403-61.879 2.018-3.368-2.945-13.303-58.972-8.638-65.483.766-1.072 6.058-6.437 19.382-7.753l3.531-.102c7.313-.27 12.463-.096 20.11.426 9.546.657 17.158 2.278 19.137 4.332 4.808 4.99 3.264 22.262 4.34 37.473 1.012 14.32 4.305 27.783 4.017 29.089z"/><path fill="#ffc6b2" d="M720.278 218.71c-.228.228 0 11.997 0 11.997l36.709 2.934c1.567.478.022 12.711-1.202 12.559-.272-.034-48.293 12.567-55.962 2.849-6.133-7.774-4.98-31.022-4.98-31.022l25.435.684z"/><path fill="#3cd278" d="M724.138 220.51c-.153 4.286-30.935 2.62-31.196 1.44 0 0 3.255-17.308 5.512-23.663 3.695-10.4 13.501-10.078 13.501-10.078s9.14-1.102 12.183 7.76c2.099 6.106.073 22.586 0 24.54z"/><path fill="#fff" d="M769.763 261.344c.014-.07.894.034 2.65.323l3.289.571 1.028.187c.399.1.73.21 1.121.32.754.243 1.549.544 2.38.909a22.966 22.966 0 0 1 10.136 9.099c.806 1.321 1.373 2.722 2.03 4.09 1.485 3.254 2.57 5.697 3.269 7.333.698 1.636 1.008 2.465.94 2.495s-.502-.744-1.305-2.329c-.802-1.585-1.972-3.982-3.506-7.201-.654-1.36-1.23-2.776-2.005-4.044a22.297 22.297 0 0 0-9.84-8.833 26.01 26.01 0 0 0-2.294-.929l-1.04-.33-1.022-.22-3.26-.726c-1.732-.402-2.586-.641-2.571-.715zM768.985 312.366c-.12.08-1.345-1.543-3.653-4.935l-5.739-8.702-.848-1.338-.373-.596-.173-.28-.072-.118-.013-.028c-.478-.02-.895-.04-1.254-.056l-.998-.065c-.532-.046-.798-.097-.798-.15s.266-.104.798-.15l.998-.064.65-.03.896-.027 1.749 2.532 5.738 8.702c2.206 3.46 3.217 5.222 3.092 5.305zM720.038 282.976c-.024-.081.512-.264 1.502-.77a12.51 12.51 0 0 0 3.877-3.073 11.29 11.29 0 0 0 2.499-4.958c.422-1.832.461-3.747.272-5.633-.205-2.232-.562-3.891-.746-5.003-.197-1.112-.263-1.674-.19-1.692.07-.016.27.513.58 1.602.298 1.091.752 2.741 1.025 5.027.194 1.938.157 3.926-.286 5.85a11.968 11.968 0 0 1-2.646 5.247c-1.567 1.748-3.161 2.578-4.22 2.999-1.074.415-1.652.464-1.667.404zM758.046 352.663c-.01.143-1.8.144-5.406-.056l-9.151-.66c-3.593-.318-5.365-.576-5.354-.723.01-.147 1.8-.144 5.402.053l9.152.66c3.597.322 5.368.576 5.357.726zM758.9 344.176c-.123-.073.909-2.082 3.171-6.041l5.88-9.984c2.362-3.895 3.618-5.772 3.744-5.698s-.908 2.082-3.165 6.039l-5.88 9.984c-2.367 3.897-3.62 5.776-3.75 5.7zM809.677 350.226c-.033.013-.18-.28-.442-.878-.26-.599-.637-1.503-1.123-2.718-.967-2.431-2.382-6.1-4.175-11.048a743.103 743.103 0 0 1-8.523-25.35 387.232 387.232 0 0 1-3.344-11.317c-.346-1.261-.592-2.21-.745-2.844-.153-.635-.211-.956-.176-.967.035-.01.162.291.379.907.218.615.524 1.545.926 2.789l3.601 11.23a741.782 741.782 0 0 0 8.515 25.327l3.917 11.133c.431 1.234.749 2.16.947 2.783.198.622.279.94.243.953zM767.86 220.857c-.144 0-.266-1.186-.31-3.58l.04-6.085c.075-2.391.212-3.575.36-3.574.146.001.265 1.186.312 3.579l-.04 6.084c-.078 2.394-.212 3.577-.363 3.576z"/><path fill="#719bff" d="m804.283 211.622-15.337 41.708a1.21 1.21 0 0 1-1.134.792H756.86l16.226-44.127h30.061c.841 0 1.425.838 1.135 1.627z"/><path fill="#ffc6b2" d="m752.845 236.005 6.17-1.13c.248-.262 2.49-2.564 1.92-4.116-.616-1.657-8.09 5.246-8.09 5.246z"/><path fill="#2a0054" d="m773.087 209.995-16.226 44.127h-2.792a1.21 1.21 0 0 1-1.135-1.627l15.337-41.708a1.21 1.21 0 0 1 1.135-.792h3.68z"/><path fill="#6385d2" d="m773.087 209.995-16.226 44.127h-2.792a1.21 1.21 0 0 1-1.135-1.627l15.337-41.708a1.21 1.21 0 0 1 1.135-.792h3.68z"/><path fill="#ffc6b2" d="M751.643 248.564s15.285 3.854 17.468-7.313c2.125-10.83-9.422-6.624-10.097-6.375l-6.17 1.13-1.2 12.558zM741.89 176.585c-1.502 1.595-.969 4.98-1.058 8.064.814 4.181-13.686 5.175-15.533-.016 1.321-4.512 1.36-10.667.361-15.454s16.23 7.406 16.23 7.406z"/><path fill="#ffc6b2" d="M742.563 177.447c-6.91 3.23-13.65-4.052-16.25-7.407a23.69 23.69 0 0 1-1.11-1.504c-.158-.23-5.846-2.039-4.016-6.885.948-2.536 5.754.245 5.754.245s2.868-9.504 7.186-9.71c4.318-.21 11.277 5.907 11.277 5.907s.141.621.266 1.635c.6 4.28 1.69 15.462-3.107 17.72z"/><path d="M750.062 157.79c-.68 1.481-2.323 1.971-4.392 1.938-4.644-.029-11.296-2.832-13.023-3.018-2.449-.328-3.03 5.413-3.61 5.89-.635.476-2.096-.704-2.096-.704s-4.806-2.781-5.754-.245c-1.83 4.846 3.858 6.655 4.016 6.885 0 0 .42.636 1.11 1.504l-.151 3.09s-7.015-8.265-7.943-11.439c-.983-3.176 3.052-7.256 4.412-7.646 1.357-.333.13-9.622 1.45-11.691 1.317-2.015 10.085 1.045 13.35 1.914 3.262.92 7.747-.566 11.61 2.003 3.865 2.573 3.241 6.689 1.02 11.518z"/><path fill="#fff" d="M726.72 198.997c-.196.014-.174-1.74-1.142-5.04a21.646 21.646 0 0 0-3.995-7.693c-2.141-2.687-3.588-3.678-3.461-3.834.042-.057.425.153 1.14.664.69.535 1.708 1.39 2.845 2.748a22.324 22.324 0 0 1 4.118 7.93c.457 1.712.572 3.037.61 3.91.008.88-.042 1.313-.115 1.315zM725.58 212.665c.072 0 .147.194.217.58.06.386.192.96.195 1.799-.025.7-.224 1.49-.76 2.06-.523.564-1.225.88-1.931 1.025-.842.13-1.45.034-1.843-.032-.394-.077-.583-.16-.58-.232.005-.075.205-.129.597-.168.389-.048.977-.057 1.692-.227.6-.122 1.177-.394 1.57-.82.394-.421.557-1.01.583-1.639.057-.744.024-1.348.077-1.748.045-.401.108-.598.184-.598zM726.002 181.347l-3.432 3.146 11.512 8.356 2.4-4.946zM736.483 187.903l5.158 3.27 2.474-6.4-3.3-2.987z"/><path d="M116.482 740.913h4.971v29.72h-4.971z" transform="rotate(-89.778 118.967 755.773)"/><path d="m133.837 753.35-29.72-.125.055-14.163 17.225.077z"/><path fill="#fff" d="M126.266 745.993h.5v14.651h-.5z" transform="rotate(-89.743 126.516 753.319)"/><path fill="#fff" d="M110.386 756.885a5.257 5.257 0 0 1-.16 1.335l-.596-.002c0-.024 0-.048.012-.072.097-.393.146-.81.148-1.263a5.588 5.588 0 0 0-1.167-3.462 2.03 2.03 0 0 0-.154-.18 5.666 5.666 0 0 0-4.344-2.067l.002-.596a6.275 6.275 0 0 1 4.974 2.487c.047.06.083.12.13.18a6.18 6.18 0 0 1 1.155 3.64z"/><path d="M154.948 740.913h4.971v29.72h-4.971z" transform="rotate(-89.778 157.434 755.773)"/><path d="m172.303 753.35-29.72-.125.056-14.163 17.225.077z"/><path fill="#fff" d="M164.732 745.993h.5v14.651h-.5z" transform="rotate(-89.743 164.982 753.319)"/><path fill="#fff" d="M148.852 756.885a5.257 5.257 0 0 1-.16 1.335l-.596-.002c0-.024 0-.048.012-.072.097-.393.146-.81.148-1.263a5.588 5.588 0 0 0-1.167-3.462 2.03 2.03 0 0 0-.154-.18 5.666 5.666 0 0 0-4.343-2.067l.002-.596a6.275 6.275 0 0 1 4.974 2.487c.047.06.083.12.13.18a6.18 6.18 0 0 1 1.154 3.64z"/><path fill="#d250dc" d="M162.882 740.644c-3.912 1.729-19.87 1.034-21 .144-.248-.2-14.663-78.106-14.663-78.106s-3.21 77.118-3.41 77.316c-1.101 1.117-16.219 2.746-20.483.325-.622-.351-2.511-80.133-2.511-80.133.126.26-6.927-27.426 4.633-38.327l46.079.791s12.054 117.682 11.355 117.99z"/><path fill="#fff" d="M127.24 663.053c-.076 0-.124-.577-.247-1.723-.069-.567-.137-1.298-.36-2.094a2.098 2.098 0 0 0-.23-.54l-.437-.545a12.537 12.537 0 0 0-1.159-1.09c-1.485-1.245-3.137-2.475-4.32-4.147-1.195-1.655-1.91-3.617-2.21-5.606-.358-2.35-.19-4.136-.004-5.29.197-1.16.42-1.705.483-1.69.08.017-.007.59-.085 1.735-.068 1.14-.136 2.88.27 5.136.289 1.916.968 3.764 2.092 5.322 1.116 1.578 2.68 2.748 4.214 4.03.446.39.842.794 1.19 1.194l.458.624c.149.258.223.496.275.72.2.9.209 1.63.223 2.216.008 1.172-.082 1.75-.154 1.748z"/><path fill="#ffbdae" d="M96.942 587.411s-.059 15.171 1.803 19.156c2.061 4.412 12.474 10.268 12.474 10.268s4.965-25.218 4.827-25.427-2.273-5.64-2.551-5.641c-.278-.001-6.97-4.176-6.97-4.176l-9.583 5.82z"/><path fill="#30005c" d="m182.783 608.199-77.35.43 28.907-55.202 74.709.29c.908.003 1.49.967 1.07 1.772l-27.336 52.71z"/><path fill="#ffc837" d="m106.467 587.448 11.49-16.95-12.446-14.588s-7.46 6.133-9.235 14.125c-1.346 6.07-.802 13.11-.246 17.372l10.437.04z"/><path fill="#ffc837" d="M153.33 559.084c-8.58-10.328-42.144-11.589-50.185-.835-7.022 9.392-1.723 68.058-1.723 68.058-.07 2.74 51.213 4.063 51.284 1.323 0 0 4.16-64.29.624-68.546z"/><path fill="#ffc6b2" d="m167.994 579.936 6.443 11.97 13.516 4.402-.15 9.86-20.048 2.947a16.177 16.177 0 0 1-14.33-9.383l-5.416-11.71 19.985-8.086z"/><path fill="#ffc837" d="M152.591 558.26s10.447 8.437 17.34 20.58c.552 2.062-17.537 13.028-23.171 10.749-2.068-.837-4.781-30.098 5.831-31.33z"/><path fill="#fff" d="M141.184 577.615c.138-.04.684 1.375 1.612 4.287.744 2.475 1.472 4.974 2.288 7.405l.088.256c.028.084.006.029.013.051.01.002-.006.007.066.007l.24-.001.914-.043 1.421-.082c.76-.034 1.143-.018 1.153.056.01.072-.356.192-1.104.342-.375.075-.845.158-1.414.238-.286.04-.594.08-.938.109l-.268.016c-.094-.01-.297 0-.434-.07a1.33 1.33 0 0 1-.264-.38l-.106-.272c-.832-2.48-1.552-4.956-2.3-7.44-.81-2.95-1.111-4.437-.967-4.479z"/><path fill="#ffc6b2" d="m187.806 606.171.146-9.86s-.746-6.606 1.123-6.66c1.745-.057 2.061 1.613 2.01 1.9.214-.398 2.95-5.047 2.962-5.072.087 0 6.019 4.07 6.347 9.874.197 3.487-8.604 9.819-12.588 9.818zM149.516 528.067c-.723 3.839-3.221 7.612-3.753 7.79-.947.29-6.076-2.864-8.804-.45-2.728 2.413-1.276 9.097 1.846 11.472 3.123 2.376 6.135 2.98 6.135 2.98l.516 4.197-14.223-5.313-2.161-6.628.518-11.582s11.136-6.46 17.395-4.9c1.121.302 1.946 1.191 2.531 2.434z"/><path fill="#ffc6b2" d="M149.967 549.11c-.06.176-.238.296-.415.411h-.06c-1.302.705-4.552.337-4.552.337s-3.012-.603-6.135-2.979c-3.122-2.375-4.574-9.059-1.846-11.473 2.728-2.413 7.857.74 8.804.45.532-.177 3.03-3.95 3.753-7.789 2.874 5.864.928 20.04.451 21.043z"/><path d="M127.383 520.357c8.59-5.404 19.367-2.367 22.956 2.08 1.293 1.6 2.356 3.497 1.933 5.623-.723 3.838-5.977 7.62-6.509 7.796-.947.29-6.076-2.863-8.804-.45-4.29 3.797 3.374 7.237 4.479 10.274 2.022 5.561 1.991 11.793-.779 17.101-1.939 3.715-5.028 6.79-6.58 10.683-2.352 5.897-.928 13.053-4.353 18.398-3.175 4.955-9.965 6.792-15.64 5.23s-10.232-5.956-13.25-11.008c-1.835-3.07-3.199-6.465-3.617-10.017-.417-3.552.155-7.271 1.953-10.363 1.58-2.714 4.001-4.819 6.03-7.216 3.27-3.862 5.507-8.47 7.71-13.023 2.314-4.78 5.148-9.496 6.72-14.522 1.365-4.36 3.86-8.101 7.75-10.586z"/><circle cx="122.813" cy="521.557" r="7.997"/><path fill="#fff" d="M122.78 529.849a8.313 8.313 0 0 1-2.512-.398.296.296 0 1 1 .181-.562 7.736 7.736 0 0 0 2.334.368c4.245.017 7.715-3.424 7.732-7.67a7.69 7.69 0 0 0-.429-2.568.294.294 0 0 1 .18-.378.292.292 0 0 1 .375.18c.311.884.466 1.815.462 2.769-.017 4.571-3.752 8.276-8.323 8.259zM138.063 649.225c-1.268 0-2.5-.383-3.57-1.126a6.336 6.336 0 0 1-2.665-4.379l-.81-6.107a.955.955 0 0 1 .83-1.064l10.63-1.403a.93.93 0 0 1 .699.192.953.953 0 0 1 .366.638l.762 5.832c.436 3.333-1.662 6.517-4.779 7.248a6.484 6.484 0 0 1-1.463.169zm4.536-13.587a.457.457 0 0 0-.055.004l-10.632 1.403a.459.459 0 0 0-.309.173.446.446 0 0 0-.09.331l.811 6.106a5.834 5.834 0 0 0 2.453 4.033 5.758 5.758 0 0 0 4.636.88c2.868-.673 4.799-3.613 4.396-6.695l-.762-5.834a.46.46 0 0 0-.448-.4z"/><circle cx="137.563" cy="639.355" r="1.047" fill="#fff"/><path fill="#fff" d="M109.572 646.007c-.358 0-.72-.043-1.08-.13-2.225-.54-3.71-2.828-3.38-5.208l.569-4.1a.742.742 0 0 1 .289-.495.74.74 0 0 1 .548-.147l7.473 1.047a.744.744 0 0 1 .642.834l-.604 4.296a4.54 4.54 0 0 1-1.931 3.117c-.76.518-1.631.786-2.526.786zm-.963-.616c1.121.27 2.26.062 3.206-.583a4.03 4.03 0 0 0 1.718-2.774l.604-4.294a.235.235 0 0 0-.048-.177.248.248 0 0 0-.165-.094l-7.475-1.046a.249.249 0 0 0-.272.213l-.569 4.102c-.296 2.129 1.023 4.172 3.001 4.653z"/><circle cx="109.944" cy="638.99" r=".737" fill="#fff"/><path fill="#30005c" d="M140.586 540.935c-.461 0-.912-.107-1.305-.319-.703-.378-1.186-1.08-1.261-1.834-.08-.8.334-1.618 1.006-1.993.538-.299 1.232-.347 2.122-.15a.25.25 0 1 1-.109.489c-.767-.17-1.345-.138-1.77.098-.502.28-.812.9-.751 1.506.057.582.45 1.148 1 1.444.532.286 1.196.338 1.819.145a.249.249 0 0 1 .313.165.25.25 0 0 1-.165.313c-.296.091-.6.136-.9.136z"/><path fill="#719bff" d="M175.023 301.426 154.03 243.41l58.82 28.888c.037.018.042.07.009.095l-37.749 29.06a.056.056 0 0 1-.087-.026z"/><path fill="#5388f2" d="m154.03 243.409 35.74 46.751a.056.056 0 0 1 .005.009l4.677 9.045c.023.045.09.039.104-.01l5.018-16.558c.006-.021 0-.044-2.053-1.81l-43.49-37.427z"/><path fill="#5388f2" d="m194.337 299.22-8.774-5.72a.056.056 0 0 1-.004-.092l4.16-3.203a.056.056 0 0 1 .085.019l4.614 8.923c.026.052-.032.105-.08.073z"/></svg>