<svg xmlns="http://www.w3.org/2000/svg" viewBox="0 0 900 700"><g data-name="Web Design and Development"><path fill="#397c77" d="M161.0963,330.2859c-.2618,2.6693-.6543,5.5879-1.2171,8.8199-6.3991,36.4984-15.3635,76.831-15.3635,76.831s-17.2872-40.3326-19.2109-78.1134c-1.9236-37.7674-27.534-52.4897-19.1979-79.3825,7.9434-25.6755,13.5576-59.1115,14.0419-62.0822.0261-.131.0392-.2092.0392-.2092s30.727,42.4393,30.727,75.7312C150.915,302.2282,163.6743,302.7908,161.0963,330.2859Z"/><path fill="#49908c" d="M161.0963,330.2859a230.23012,230.23012,0,0,1-20.8206,25.1652c9.9458-14.5261,6.8835-35.0718-3.0622-49.5979-7.4594-10.8881-18.7005-20.2317-20.5197-33.2919-.9814-7.0145.9815-14.0418,2.4474-20.9646,3.808-18.007,6.216-38.0163,1.0076-55.238.0261-.131.0392-.2092.0392-.2092s30.727,42.4393,30.727,75.7312C150.915,302.2282,163.6743,302.7908,161.0963,330.2859Z"/><path fill="#397c77" d="M207.8486,355.5256c-.0131.0131-.0131.0131-.0131.0261a53.05236,53.05236,0,0,1-1.8582,10.5739c-9.6055,32.7816-64.6604,70.3006-64.6604,70.3006a.22928.22928,0,0,1,.0131-.0655c5.7711-60.1323,49.2837-80.6127,42.2431-124.2299-6.9358-43.0153,21.5927-77.0662,22.3911-77.9954C190.9801,262.4284,210.8454,320.3883,207.8486,355.5256Z"/><path fill="#2d726d" d="M207.8355,355.5517a53.05236,53.05236,0,0,1-1.8582,10.5739c-9.6055,32.7816-64.6604,70.3006-64.6604,70.3006a.22928.22928,0,0,1,.0131-.0655c.2225-1.4264,4.2531-24.5895,33.4098-45.3839C200.1407,372.8521,206.4745,359.3337,207.8355,355.5517Z"/><path fill="#5db3ab" d="M83.6916,159.199s-35.8542,105.0015,0,170.3073,50.58,106.9222,50.58,106.9222,7.683-51.2202-14.7259-98.5989S86.2526,202.0959,83.6916,159.199Z"/><path fill="#49908c" d="M194.4553,327.5855s-36.4944,16.6466-32.6529,70.4278-3.8415,67.2266-3.8415,67.2266l-17.2868-37.1347s-15.3661-47.3787,13.4453-87.0744Z"/><path fill="#5bb1a8" d="M257.20009,196.3336S231.59,204.6569,229.6693,239.8708s1.9207,69.7876-35.214,87.7147-67.8668,39.6957-53.7812,100.5197c0,0-18.5674-42.8969,12.805-100.5197s21.4351-41.6164,42.7302-60.1838S230.9498,192.4921,257.20009,196.3336Z"/><path fill="#49908c" d="M68.7153,234.1354s-17.0396,58.7059,3.0105,93.4501,41.4831,87.5262,45.6314,108.8407,11.0621,6.7954,11.0621,6.7954,24.4935-30.5177-19.154-80.7113C60.3198,306.224,68.7153,234.1354,68.7153,234.1354Z"/><path fill="#e6a562" d="M75.5499,408.9099v86.1018a43.85732,43.85732,0,0,0,43.8573,43.8573h39.0555A43.85732,43.85732,0,0,0,202.32,495.0117V408.9099Z"/><rect width="800" height="17.203" x="50" y="558.635" fill="#d2bec0"/><rect width="800" height="159.436" x="50" y="399.198" fill="#e8d4d5"/><path fill="#a7acb7" d="M570.33689,462.4929H376.43779A16.42508,16.42508,0,0,0,370.48,463.643l-73.72891,35.614c-2.3173,1.1193-2.0636,2.0392.5983,2.0392h261.2869c2.6619,0,5.0678-.9199,5.3695-2.0392l9.5979-35.614C573.77569,463.0049,572.31229,462.4929,570.33689,462.4929Z"/><path fill="#fff" d="M384.76079,469.0406h-15.7955c-.79,0-.9995-.2154-.4701-.48l5.6466-2.8225a6.15452,6.15452,0,0,1,2.2923-.4536h15.2937c.7648,0,1.0114.2027.549.4536l-5.2012,2.8225A5.83908,5.83908,0,0,1,384.76079,469.0406Z"/><path fill="#fff" d="M398.44209,469.0406h-8.955c-.79,0-1.0368-.2154-.5534-.48l5.1566-2.8225a5.55855,5.55855,0,0,1,2.2135-.4536h8.6704c.7649,0,1.0349.2027.6015.4536l-4.8744,2.8225A5.44153,5.44153,0,0,1,398.44209,469.0406Z"/><path fill="#fff" d="M412.11269,469.0406h-8.955c-.7899,0-1.06169-.2154-.6089-.48l4.83021-2.8225a5.18276,5.18276,0,0,1,2.161-.4536h8.67039c.7649,0,1.0584.2027.654.4536l-4.548,2.8225A5.06215,5.06215,0,0,1,412.11269,469.0406Z"/><path fill="#fff" d="M425.78329,469.0406h-8.9549c-.79,0-1.0867-.2154-.6645-.48l4.5037-2.8225a4.82534,4.82534,0,0,1,2.1087-.4536h8.6704c.7648,0,1.0818.2027.7064.4536l-4.2216,2.8225A4.69984,4.69984,0,0,1,425.78329,469.0406Z"/><path fill="#fff" d="M439.454,469.0406h-8.955c-.78991,0-1.11161-.2154-.71991-.48l4.1772-2.8225a4.48338,4.48338,0,0,1,2.0562-.4536h8.6704c.7648,0,1.1052.2027.7589.4536l-3.8951,2.8225A4.3561,4.3561,0,0,1,439.454,469.0406Z"/><path fill="#fff" d="M453.12459,469.0406h-8.955c-.7899,0-1.1364-.2154-.7754-.48l3.85081-2.8225a4.15755,4.15755,0,0,1,2.00369-.4536h8.6704c.76491,0,1.1287.2027.8114.4536l-3.5687,2.8225A4.02872,4.02872,0,0,1,453.12459,469.0406Z"/><path fill="#fff" d="M466.79519,469.0406h-8.9549c-.79,0-1.1614-.2154-.831-.48l3.5244-2.8225a3.84775,3.84775,0,0,1,1.9512-.4536h8.6704c.7649,0,1.1521.2027.8639.4536l-3.2423,2.8225A3.71739,3.71739,0,0,1,466.79519,469.0406Z"/><path fill="#fff" d="M480.46589,469.0406h-8.955c-.78989,0-1.1863-.2154-.8865-.48l3.198-2.8225a3.5533,3.5533,0,0,1,1.8988-.4536h8.6704c.7648,0,1.1755.2027.9162.4536l-2.91579,2.8225A3.42288,3.42288,0,0,1,480.46589,469.0406Z"/><path fill="#fff" d="M494.13649,469.0406h-8.955c-.7899,0-1.2111-.2154-.9419-.48l2.8715-2.8225a3.27423,3.27423,0,0,1,1.8463-.4536h8.6704c.7648,0,1.1989.2027.9687.4536l-2.5893,2.8225A3.14466,3.14466,0,0,1,494.13649,469.0406Z"/><path fill="#fff" d="M507.80719,469.0406h-8.955c-.79,0-1.2361-.2154-.9975-.48l2.545-2.8225a3.01071,3.01071,0,0,1,1.7939-.4536H510.864c.76479,0,1.22239.2027,1.02119.4536l-2.2629,2.8225A2.88158,2.88158,0,0,1,507.80719,469.0406Z"/><path fill="#fff" d="M521.47779,469.0406h-8.955c-.7899,0-1.261-.2154-1.053-.48l2.2186-2.8225a2.76114,2.76114,0,0,1,1.7414-.4536h8.6704c.7649,0,1.2459.2027,1.0737.4536l-1.9365,2.8225A2.63371,2.63371,0,0,1,521.47779,469.0406Z"/><path fill="#fff" d="M535.14839,469.0406h-8.9549c-.79,0-1.286-.2154-1.1086-.48l1.8922-2.8225a2.52569,2.52569,0,0,1,1.68891-.4536h8.67049c.7648,0,1.2692.2027,1.1261.4536l-1.6101,2.8225A2.40082,2.40082,0,0,1,535.14839,469.0406Z"/><path fill="#fff" d="M548.81909,469.0406h-8.955c-.7899,0-1.3108-.2154-1.164-.48l1.5657-2.8225c.13921-.2509.8716-.4536,1.6365-.4536h8.6704c.7648,0,1.2927.2027,1.1786.4536l-1.2836,2.8225C550.34729,468.8252,549.609,469.0406,548.81909,469.0406Z"/><path fill="#fff" d="M562.48969,469.0406h-8.955c-.7899,0-1.33569-.2154-1.2195-.48l1.2393-2.8225c.1102-.2509.8192-.4536,1.584-.4536h8.6704c.7648,0,1.31611.2027,1.231.4536l-.9571,2.8225C563.99309,468.8252,563.27959,469.0406,562.48969,469.0406Z"/><path fill="#fff" d="M360.91949,484.1182h-21.9362c-.8907,0-1.0651-.2737-.3925-.6099l7.1499-3.5739a7.177,7.177,0,0,1,2.7002-.5723h21.1533c.8589,0,1.0921.2556.5183.5723l-6.4752,3.5739A6.68984,6.68984,0,0,1,360.91949,484.1182Z"/><path fill="#fff" d="M557.19409,484.1182h-21.9362c-.8907,0-1.4682-.2737-1.2907-.6099l1.8867-3.5739c.1672-.3167.9984-.5723,1.8573-.5723h21.1534c.8589,0,1.4685.2556,1.3611.5723l-1.212,3.5739C558.89969,483.8445,558.08479,484.1182,557.19409,484.1182Z"/><path fill="#fff" d="M376.06489,484.1182h-10.0973c-.8907,0-1.1205-.2737-.516-.6099l6.4263-3.5739a6.3287,6.3287,0,0,1,2.5843-.5723h9.737c.8589,0,1.1211.2556.5833.5723l-6.0691,3.5739A6.21379,6.21379,0,0,1,376.06489,484.1182Z"/><path fill="#fff" d="M391.47939,484.1182h-10.0973c-.8907,0-1.1522-.2737-.5866-.6099l6.013-3.5739a5.875,5.875,0,0,1,2.5181-.5723h9.737c.8589,0,1.1507.2556.6495.5723l-5.6557,3.5739A5.75318,5.75318,0,0,1,391.47939,484.1182Z"/><path fill="#fff" d="M406.89389,484.1182h-10.0973c-.8907,0-1.1838-.2737-.6571-.6099l5.5996-3.5739a5.4428,5.4428,0,0,1,2.45191-.5723h9.737c.85889,0,1.18019.2556.71569.5723l-5.2424,3.5739A5.315,5.315,0,0,1,406.89389,484.1182Z"/><path fill="#fff" d="M422.30839,484.1182h-10.0973c-.8907,0-1.2155-.2737-.7277-.6099l5.1863-3.5739a5.03244,5.03244,0,0,1,2.3857-.5723h9.737c.8589,0,1.2098.2556.7819.5723l-4.829,3.5739A4.90012,4.90012,0,0,1,422.30839,484.1182Z"/><path fill="#fff" d="M437.72289,484.1182h-10.0973c-.8907,0-1.2472-.2737-.7982-.6099l4.7729-3.5739a4.64308,4.64308,0,0,1,2.3195-.5723h9.737c.8589,0,1.2394.2556.8481.5723l-4.4157,3.5739A4.50653,4.50653,0,0,1,437.72289,484.1182Z"/><path fill="#fff" d="M453.13739,484.1182h-10.0973c-.8907,0-1.2788-.2737-.8688-.6099l4.3596-3.5739a4.274,4.274,0,0,1,2.2533-.5723h9.737c.8589,0,1.269.2556.9143.5723l-4.0023,3.5739A4.13552,4.13552,0,0,1,453.13739,484.1182Z"/><path fill="#fff" d="M468.55189,484.1182h-10.0973c-.8907,0-1.3105-.2737-.9393-.6099l3.9462-3.5739a3.92523,3.92523,0,0,1,2.1871-.5723h9.737c.8589,0,1.2985.2556.9805.5723l-3.589,3.5739A3.78506,3.78506,0,0,1,468.55189,484.1182Z"/><path fill="#fff" d="M483.96629,484.1182h-10.0972c-.8907,0-1.3422-.2737-1.0099-.6099l3.5329-3.5739a3.59623,3.59623,0,0,1,2.121-.5723H488.25c.85889,0,1.32809.2556,1.04669.5723l-3.1756,3.5739A3.45594,3.45594,0,0,1,483.96629,484.1182Z"/><path fill="#fff" d="M499.38079,484.1182h-10.0972c-.8908,0-1.3738-.2737-1.0804-.6099l3.1195-3.5739a3.28607,3.28607,0,0,1,2.0548-.5723h9.7369c.8589,0,1.3577.2556,1.1129.5723l-2.76229,3.5739A3.14644,3.14644,0,0,1,499.38079,484.1182Z"/><path fill="#fff" d="M514.79529,484.1182H504.698c-.89071,0-1.40541-.2737-1.15091-.6099l2.7062-3.5739a2.99511,2.99511,0,0,1,1.9886-.5723h9.7369c.8589,0,1.38721.2556,1.1791.5723l-2.34889,3.5739A2.85706,2.85706,0,0,1,514.79529,484.1182Z"/><path fill="#fff" d="M530.20979,484.1182h-10.0973c-.8907,0-1.4371-.2737-1.2214-.6099l2.2928-3.5739a2.72219,2.72219,0,0,1,1.9224-.5723h9.7369c.859,0,1.41681.2556,1.2453.5723l-1.9356,3.5739A2.58647,2.58647,0,0,1,530.20979,484.1182Z"/><path fill="#fff" d="M357.91929,490.038h-30.7074c-.9303,0-1.087-.2986-.3537-.6652l7.78681-3.8922a7.6035,7.6035,0,0,1,2.86689-.6224h29.5648c.8956,0,1.1336.2779.5288.6224l-6.8339,3.8922A6.836,6.836,0,0,1,357.91929,490.038Z"/><path fill="#fff" d="M555.115,490.038H524.40759c-.9303,0-1.5101-.2986-1.296-.6652l2.2727-3.8922a2.68884,2.68884,0,0,1,1.9852-.6224h29.5647c.8957,0,1.5275.2779,1.4107.6224l-1.31989,3.8922C556.90059,489.7394,556.04519,490.038,555.115,490.038Z"/><path fill="#fff" d="M373.99009,490.038h-10.5458c-.9302,0-1.1647-.2986-.5268-.6652l6.7737-3.8922a6.4403,6.4403,0,0,1,2.7049-.6224h10.1533c.8957,0,1.1658.2779.6008.6224l-6.3846,3.8922A6.32627,6.32627,0,0,1,373.99009,490.038Z"/><path fill="#fff" d="M390.08929,490.038h-10.5458c-.9303,0-1.1993-.2986-.6037-.6652l6.3234-3.8922a5.9646,5.9646,0,0,1,2.633-.6224h10.1533c.8956,0,1.1979.2779.6727.6224l-5.9344,3.8922A5.84143,5.84143,0,0,1,390.08929,490.038Z"/><path fill="#fff" d="M406.18839,490.038h-10.5457c-.9303,0-1.2339-.2986-.68069-.6652l5.87329-3.8922a5.51151,5.51151,0,0,1,2.5609-.6224h10.1534c.8956,0,1.23.2779.7447.6224l-5.4842,3.8922A5.38216,5.38216,0,0,1,406.18839,490.038Z"/><path fill="#fff" d="M422.28759,490.038h-10.5458c-.9303,0-1.2683-.2986-.7576-.6652l5.4231-3.8922a5.08267,5.08267,0,0,1,2.489-.6224h10.1533c.8957,0,1.2623.2779.8167.6224l-5.034,3.8922A4.94714,4.94714,0,0,1,422.28759,490.038Z"/><path fill="#fff" d="M438.38679,490.038H427.841c-.93031,0-1.30291-.2986-.83461-.6652l4.973-3.8922a4.67567,4.67567,0,0,1,2.417-.6224h10.1533c.8957,0,1.2944.2779.8887.6224l-4.5839,3.8922A4.53659,4.53659,0,0,1,438.38679,490.038Z"/><path fill="#fff" d="M454.48589,490.038h-10.5458c-.9302,0-1.3374-.2986-.9114-.6652l4.5228-3.8922a4.29123,4.29123,0,0,1,2.3449-.6224h10.1534c.8956,0,1.3265.2779.9607.6224l-4.1338,3.8922A4.14957,4.14957,0,0,1,454.48589,490.038Z"/><path fill="#fff" d="M470.58509,490.038h-10.5458c-.93029,0-1.372-.2986-.9884-.6652l4.0726-3.8922a3.9296,3.9296,0,0,1,2.273-.6224h10.1534c.8956,0,1.3586.2779,1.0326.6224l-3.68349,3.8922A3.78612,3.78612,0,0,1,470.58509,490.038Z"/><path fill="#fff" d="M486.68419,490.038h-10.5458c-.9302,0-1.40639-.2986-1.0653-.6652l3.6225-3.8922a3.58815,3.58815,0,0,1,2.201-.6224h10.1533c.8957,0,1.3908.2779,1.1047.6224l-3.2334,3.8922A3.4446,3.4446,0,0,1,486.68419,490.038Z"/><path fill="#fff" d="M502.78339,490.038h-10.5458c-.9303,0-1.441-.2986-1.1422-.6652l3.1723-3.8922a3.26781,3.26781,0,0,1,2.129-.6224H506.55c.89569,0,1.423.2779,1.17659.6224l-2.7832,3.8922A3.125,3.125,0,0,1,502.78339,490.038Z"/><path fill="#fff" d="M518.88249,490.038h-10.5457c-.9303,0-1.4756-.2986-1.2192-.6652l2.7221-3.8922a2.96814,2.96814,0,0,1,2.057-.6224h10.1534c.8956,0,1.4551.2779,1.2486.6224l-2.333,3.8922A2.82758,2.82758,0,0,1,518.88249,490.038Z"/><path fill="#fff" d="M325.38209,496.508h-11.0359c-.9735,0-1.1086-.327-.3057-.7283l8.5126-4.255a8.08859,8.08859,0,0,1,3.0534-.6794h10.6069c.9357,0,1.11761.3034.4029.6794l-8.08729,4.255A8.008,8.008,0,0,1,325.38209,496.508Z"/><path fill="#fff" d="M342.22959,496.508h-11.036c-.9735,0-1.1463-.327-.3899-.7283l8.0205-4.255a7.51174,7.51174,0,0,1,2.97481-.6794h10.607c.93559,0,1.15259.3034.48139.6794l-7.5951,4.255A7.41719,7.41719,0,0,1,342.22959,496.508Z"/><path fill="#fff" d="M359.07709,496.508h-11.036c-.9735,0-1.1842-.327-.47409-.7283l7.52829-4.255a6.96271,6.96271,0,0,1,2.8963-.6794h10.6069c.9357,0,1.1877.3034.56.6794l-7.103,4.255A6.85493,6.85493,0,0,1,359.07709,496.508Z"/><path fill="#fff" d="M502.12729,496.508h-11.0359c-.9735,0-1.5053-.327-1.18939-.7283l3.34979-4.255a3.3351,3.3351,0,0,1,2.229-.6794h10.6069c.9357,0,1.4857.3034,1.2272.6794l-2.9243,4.255A3.1892,3.1892,0,0,1,502.12729,496.508Z"/><path fill="#fff" d="M519.03239,496.508h-11.036c-.9735,0-1.5432-.327-1.2738-.7283l2.8559-4.255a3.01951,3.01951,0,0,1,2.1502-.6794h10.6069c.9357,0,1.5209.3034,1.3061.6794l-2.4306,4.255A2.87494,2.87494,0,0,1,519.03239,496.508Z"/><path fill="#fff" d="M552.84259,496.508h-11.036c-.9735,0-1.6191-.327-1.4429-.7283l1.86831-4.255c.16509-.376,1.05679-.6794,1.99249-.6794h10.6069c.9357,0,1.5913.3034,1.4638.6794l-1.443,4.255C554.71609,496.181,553.81609,496.508,552.84259,496.508Z"/><path fill="#fff" d="M380.14619,496.508h-15.2576c-.9735,0-1.222-.327-.5584-.7283l7.0362-4.255a6.44049,6.44049,0,0,1,2.8177-.6794h14.6645c.9356,0,1.2316.3034.6582.6794l-6.4875,4.255A6.19367,6.19367,0,0,1,380.14619,496.508Z"/><path fill="#fff" d="M464.38359,496.508h-78.4259c-.9735,0-1.2693-.327-.66369-.7283l6.42079-4.255a5.82451,5.82451,0,0,1,2.7194-.6794h75.377c.9357,0,1.4071.3034,1.0512.6794l-4.0269,4.255A3.97566,3.97566,0,0,1,464.38359,496.508Z"/><path fill="#fff" d="M484.99629,496.508h-15.2576c-.9735,0-1.4573-.327-1.0826-.7283l3.9735-4.255a3.7665,3.7665,0,0,1,2.3286-.6794h14.6645c.9357,0,1.45.3034,1.14731.6794l-3.42481,4.255A3.531,3.531,0,0,1,484.99629,496.508Z"/><path fill="#fff" d="M366.83219,478.7063h-17.0873c-.8545,0-1.0431-.252-.42389-.5615l6.59069-3.2943a6.79819,6.79819,0,0,1,2.5509-.5283H374.964c.82529,0,1.05949.236.52089.5283l-6.0707,3.2943A6.45981,6.45981,0,0,1,366.83219,478.7063Z"/><path fill="#fff" d="M381.63219,478.7063h-9.6873c-.8545,0-1.0868-.252-.5214-.5615l6.0187-3.2943a6.1174,6.1174,0,0,1,2.4593-.5283h9.3551c.8252,0,1.0867.236.582.5283l-5.6894,3.2943A6.00347,6.00347,0,0,1,381.63219,478.7063Z"/><path fill="#fff" d="M396.42079,478.7063h-9.6873c-.85449,0-1.116-.252-.5864-.5615l5.6377-3.2943a5.6894,5.6894,0,0,1,2.39821-.5283h9.35509c.8252,0,1.114.236.6431.5283l-5.3084,3.2943A5.5688,5.5688,0,0,1,396.42079,478.7063Z"/><path fill="#fff" d="M411.20929,478.7063H401.522c-.85451,0-1.14511-.252-.65131-.5615l5.2567-3.2943a5.28139,5.28139,0,0,1,2.3371-.5283h9.3551c.8252,0,1.1413.236.7042.5283l-4.9274,3.2943A5.15579,5.15579,0,0,1,411.20929,478.7063Z"/><path fill="#fff" d="M425.99789,478.7063h-9.6873c-.8545,0-1.1743-.252-.7162-.5615l4.87561-3.2943a4.893,4.893,0,0,1,2.276-.5283h9.35509c.8252,0,1.1686.236.7653.5283L428.32,478.1448A4.76316,4.76316,0,0,1,425.99789,478.7063Z"/><path fill="#fff" d="M440.78639,478.7063h-9.6872c-.8546,0-1.2035-.252-.78119-.5615l4.49459-3.2943a4.52437,4.52437,0,0,1,2.2149-.5283h9.3551c.8252,0,1.1959.236.82641.5283l-4.16541,3.2943A4.39079,4.39079,0,0,1,440.78639,478.7063Z"/><path fill="#fff" d="M455.575,478.7063h-9.68731c-.8545,0-1.2326-.252-.8461-.5615l4.1136-3.2943a4.17418,4.17418,0,0,1,2.15381-.5283h9.35509c.8253,0,1.2232.236.8875.5283l-3.7843,3.2943A4.03919,4.03919,0,0,1,455.575,478.7063Z"/><path fill="#fff" d="M470.36349,478.7063h-9.6872c-.8546,0-1.2618-.252-.9111-.5615l3.7326-3.2943a3.84245,3.84245,0,0,1,2.0927-.5283h9.3551c.8253,0,1.2505.236.9486.5283l-3.4033,3.2943A3.70594,3.70594,0,0,1,470.36349,478.7063Z"/><path fill="#fff" d="M485.15209,478.7063h-9.6873c-.8545,0-1.2909-.252-.976-.5615l3.3516-3.2943a3.52874,3.52874,0,0,1,2.03161-.5283h9.35509c.8253,0,1.2778.236,1.0097.5283l-3.0223,3.2943A3.392,3.392,0,0,1,485.15209,478.7063Z"/><path fill="#fff" d="M499.94069,478.7063h-9.6873c-.8545,0-1.32-.252-1.041-.5615l2.97061-3.2943a3.23262,3.23262,0,0,1,1.97049-.5283h9.3551c.8253,0,1.3051.236,1.0708.5283l-2.6413,3.2943A3.09643,3.09643,0,0,1,499.94069,478.7063Z"/><path fill="#fff" d="M514.72919,478.7063H505.042c-.85461,0-1.34921-.252-1.10591-.5615l2.5895-3.2943a2.9537,2.9537,0,0,1,1.90941-.5283h9.35509c.8253,0,1.3324.236,1.13191.5283l-2.26031,3.2943A2.81914,2.81914,0,0,1,514.72919,478.7063Z"/><path fill="#fff" d="M529.51779,478.7063h-9.6873c-.85449,0-1.3783-.252-1.1708-.5615l2.2085-3.2943a2.69181,2.69181,0,0,1,1.8483-.5283h9.3552c.8252,0,1.3596.236,1.1929.5283l-1.8792,3.2943A2.56007,2.56007,0,0,1,529.51779,478.7063Z"/><path fill="#fff" d="M544.30629,478.7063h-9.6872c-.8546,0-1.4075-.252-1.2358-.5615l1.8275-3.2943a2.44644,2.44644,0,0,1,1.78721-.5283h9.35519c.8252,0,1.3869.236,1.254.5283l-1.49819,3.2943C545.96819,478.4543,545.16089,478.7063,544.30629,478.7063Z"/><path fill="#fff" d="M559.09489,478.7063h-9.6873c-.8545,0-1.43659-.252-1.3007-.5615l1.4465-3.2943c.1283-.2923.9009-.5283,1.7261-.5283h9.3552c.8252,0,1.4142.236,1.3151.5283l-1.1172,3.2943C560.72759,478.4543,559.94939,478.7063,559.09489,478.7063Z"/><path fill="#fff" d="M560.84529,473.7225h-16.4212c-.8213,0-1.3713-.2327-1.2292-.5187l1.514-3.0466c.1345-.2706.8868-.4891,1.6809-.4891h15.8795c.7941,0,1.3638.2185,1.272.4891l-1.0331,3.0466C562.41119,473.4898,561.66649,473.7225,560.84529,473.7225Z"/><path fill="#fff" d="M368.96489,473.7225h-9.3097c-.82119,0-1.0213-.2327-.4493-.5187l6.09511-3.0466a6.46128,6.46128,0,0,1,2.41629-.4891h9.0026c.79411,0,1.0226.2185.5083.4891l-5.7905,3.0466A6.35427,6.35427,0,0,1,368.96489,473.7225Z"/><path fill="#fff" d="M383.177,473.7225h-9.30961c-.8213,0-1.0483-.2327-.50939-.5187l5.74279-3.0466a6.03272,6.03272,0,0,1,2.3598-.4891h9.0025c.7941,0,1.04791.2185.56491.4891l-5.43821,3.0466A5.91812,5.91812,0,0,1,383.177,473.7225Z"/><path fill="#fff" d="M397.38919,473.7225h-9.3097c-.8212,0-1.0752-.2327-.5693-.5187l5.3904-3.0466a5.62326,5.62326,0,0,1,2.3032-.4891h9.0025c.7941,0,1.0732.2185.6215.4891l-5.08579,3.0466A5.50355,5.50355,0,0,1,397.38919,473.7225Z"/><path fill="#fff" d="M411.60129,473.7225h-9.3097c-.8212,0-1.102-.2327-.6292-.5187l5.038-3.0466a5.23164,5.23164,0,0,1,2.24661-.4891h9.00249c.7942,0,1.09851.2185.6781.4891l-4.7335,3.0466A5.10726,5.10726,0,0,1,411.60129,473.7225Z"/><path fill="#fff" d="M425.81349,473.7225h-9.3097c-.8212,0-1.129-.2327-.6893-.5187l4.6857-3.0466a4.85858,4.85858,0,0,1,2.19-.4891h9.0025c.7942,0,1.1238.2185.7347.4891l-4.3811,3.0466A4.73118,4.73118,0,0,1,425.81349,473.7225Z"/><path fill="#fff" d="M440.02559,473.7225h-9.3097c-.8212,0-1.15589-.2327-.7492-.5187l4.3332-3.0466a4.50411,4.50411,0,0,1,2.1335-.4891H445.436c.79409,0,1.149.2185.79119.4891l-4.0288,3.0466A4.37289,4.37289,0,0,1,440.02559,473.7225Z"/><path fill="#fff" d="M454.23779,473.7225h-9.3097c-.8213,0-1.1829-.2327-.8093-.5187l3.9809-3.0466a4.16646,4.16646,0,0,1,2.077-.4891h9.0025c.7941,0,1.1743.2185.8477.4891l-3.6763,3.0466A4.0335,4.0335,0,0,1,454.23779,473.7225Z"/><path fill="#fff" d="M468.44989,473.7225h-9.3097c-.82119,0-1.2097-.2327-.86919-.5187l3.62849-3.0466a3.84606,3.84606,0,0,1,2.0204-.4891h9.0025c.7941,0,1.19961.2185.9043.4891l-3.324,3.0466A3.71185,3.71185,0,0,1,468.44989,473.7225Z"/><path fill="#fff" d="M482.662,473.7225h-9.30961c-.8213,0-1.2367-.2327-.9293-.5187l3.2762-3.0466a3.54215,3.54215,0,0,1,1.9638-.4891h9.0025c.7942,0,1.2248.2185.9609.4891l-2.9716,3.0466A3.40806,3.40806,0,0,1,482.662,473.7225Z"/><path fill="#fff" d="M496.87419,473.7225h-9.3097c-.8212,0-1.2636-.2327-.9892-.5187l2.9238-3.0466a3.25459,3.25459,0,0,1,1.9072-.4891h9.0026c.79411,0,1.25.2185,1.0174.4891l-2.6192,3.0466A3.12137,3.12137,0,0,1,496.87419,473.7225Z"/><path fill="#fff" d="M511.08629,473.7225h-9.3097c-.8212,0-1.2905-.2327-1.0492-.5187l2.5715-3.0466a2.98323,2.98323,0,0,1,1.8507-.4891h9.0025c.7941,0,1.2753.2185,1.074.4891l-2.2669,3.0466A2.851,2.851,0,0,1,511.08629,473.7225Z"/><path fill="#fff" d="M525.29849,473.7225h-9.3097c-.8212,0-1.3174-.2327-1.1092-.5187l2.2191-3.0466a2.72745,2.72745,0,0,1,1.7941-.4891h9.0025c.7941,0,1.3006.2185,1.1306.4891l-1.9145,3.0466A2.59772,2.59772,0,0,1,525.29849,473.7225Z"/><path fill="#fff" d="M539.51059,473.7225h-9.3097c-.8212,0-1.3443-.2327-1.1691-.5187l1.8666-3.0466a2.48755,2.48755,0,0,1,1.73761-.4891h9.00249c.7942,0,1.3259.2185,1.1872.4891l-1.5622,3.0466C541.11689,473.4898,540.33179,473.7225,539.51059,473.7225Z"/><path fill="#fff" d="M524.92579,493.2891h14.2395l.8031-1.7644c.1712-.376-.4492-.6794-1.3849-.6794h-10.6069a2.72569,2.72569,0,0,0-2.0714.6794Z"/><path fill="#fff" d="M538.03169,495.7797l.832-1.8278h-14.3059l-1.0147,1.8278c-.2228.4013.38491.7283,1.3584.7283h11.036C536.911,496.508,537.849,496.181,538.03169,495.7797Z"/><path fill="#f19dad" d="M575.1935,74.97412h87.861a7.84975,7.84975,0,0,1,7.84975,7.84975V139.274a7.84977,7.84977,0,0,1-7.84977,7.84977H575.1935a7.84975,7.84975,0,0,1-7.84975-7.84975V82.82387a7.84975,7.84975,0,0,1,7.84975-7.84975Z" transform="rotate(-6.011 619.124 111.049)"/><polygon fill="#fff" points="602.079 138.76 573.748 115.827 596.682 87.496 600.568 90.642 580.781 115.086 605.225 134.873 602.079 138.76"/><polygon fill="#fff" points="641.566 134.602 637.68 131.456 657.467 107.012 633.023 87.225 636.168 83.338 664.5 106.271 641.566 134.602"/><rect width="67.014" height="5" x="585.617" y="108.549" fill="#fff" transform="rotate(-74.04 619.124 111.049)"/><rect width="59.392" height="59.392" x="755.581" y="187.279" fill="#f9b40f"/><rect width="5" height="56.552" x="782.777" y="188.699" fill="#fff" transform="rotate(-45 785.277 216.975)"/><rect width="56.552" height="5" x="757.001" y="214.475" fill="#fff" transform="rotate(-44.996 785.277 216.975)"/><path fill="#7cbfce" d="M328.87509,87.4962h68.695a5.7469,5.7469,0,0,1,5.7469,5.7469v52.5796a5.7469,5.7469,0,0,1-5.7469,5.7469H328.8752a5.74691,5.74691,0,0,1-5.74691-5.74691V93.243A5.7468,5.7468,0,0,1,328.87509,87.4962Z"/><polygon fill="#fff" points="338.904 142.987 350.239 142.987 350.239 139.055 343.587 139.055 343.587 100.068 350.239 100.068 350.239 96.137 338.904 96.137 338.904 142.987"/><polygon fill="#fff" points="376.206 96.079 376.206 100.01 382.858 100.01 382.858 139.055 376.206 139.055 376.206 142.987 387.541 142.987 387.541 96.079 376.206 96.079"/><rect width="123.003" height="16.741" x="365.114" y="612.731" fill="#2f3c5f"/><path fill="#1e2047" d="M735.92188,182.693a11.22941,11.22941,0,0,0-11.2294-11.2293H416.50879a11.22935,11.22935,0,0,0-11.2294,11.2293V358.6198H735.92188Z"/><path fill="#f7f7f7" d="M414.865,349.034V182.6929a1.64561,1.64561,0,0,1,1.644-1.6434H724.69228a1.64561,1.64561,0,0,1,1.644,1.6434V349.034Z"/><rect width="110.452" height="152.256" x="615.885" y="196.778" fill="#7cbfce"/><ellipse cx="570.601" cy="445.666" fill="#b8b8c2" rx="95.104" ry="9.474"/><path fill="#8bc9d9" d="M726.33638,196.7775V182.6928a1.6457,1.6457,0,0,0-1.6441-1.6434H416.509a1.64561,1.64561,0,0,0-1.644,1.6434v14.0847Z"/><path fill="#b9b7c5" d="M405.27939,358.6198v29.945a11.22937,11.22937,0,0,0,11.2294,11.2294H724.69248a11.22943,11.22943,0,0,0,11.2294-11.2294v-29.945Z"/><rect width="101.299" height="42.956" x="519.951" y="399.794" fill="#939498"/><path fill="#fff" d="M577.17129,379.207a6.57065,6.57065,0,1,1-6.5707-6.5707A6.57061,6.57061,0,0,1,577.17129,379.207Z"/><path fill="#58b0c4" d="M609.26809,186.1772H473.18619a2.73625,2.73625,0,0,0,0,5.4725h136.0819a2.73625,2.73625,0,1,0,0-5.4725Z"/><rect width="9.073" height="1.755" x="421.355" y="184.848" fill="#f7f7f7"/><rect width="9.073" height="1.755" x="421.355" y="188.036" fill="#f7f7f7"/><rect width="9.073" height="1.755" x="421.355" y="191.224" fill="#f7f7f7"/><rect width="1.129" height="11.25" x="714.684" y="183.289" fill="#f7f7f7" transform="rotate(-45 715.248 188.913)"/><rect width="11.25" height="1.129" x="709.623" y="188.349" fill="#f7f7f7" transform="rotate(-45 715.248 188.913)"/><path fill="#f7f7f7" d="M706.409,193.1102h-8.39392v-8.3934H706.409Zm-7.26532-1.1287h6.1366v-6.136h-6.1366Z"/><rect width="8.277" height="1.129" x="685.888" y="188.349" fill="#f7f7f7"/><path fill="#f7f7f7" d="M621.39649,190.8021a2.84711,2.84711,0,1,1,2.0146-.8332h0A2.83956,2.83956,0,0,1,621.39649,190.8021Zm-.0003-4.5676a1.72023,1.72023,0,1,0,1.2169,2.9363h0a1.71975,1.71975,0,0,0-1.2169-2.9363Z"/><rect width="3.66" height="1.129" x="616.657" y="190.3" fill="#f7f7f7" transform="rotate(-45 618.487 190.864)"/><rect width="158.212" height="76.074" x="423.734" y="204.947" fill="#e2e0e1"/><rect width="64.408" height="43.471" x="423.734" y="291.825" fill="#aa70ca"/><rect width="64.408" height="43.471" x="500.176" y="291.825" fill="#26c8a8"/><rect width="64.408" height="43.471" x="576.617" y="291.825" fill="#46a9e7"/><rect width="64.408" height="43.471" x="653.059" y="291.825" fill="#005c91"/><rect width="43.292" height="4.864" x="434.292" y="339.3" style="mix-blend-mode:multiply" fill="#e2e0e1"/><rect width="43.292" height="4.864" x="510.734" y="339.3" style="mix-blend-mode:multiply" fill="#e2e0e1"/><rect width="43.292" height="4.864" x="587.175" y="339.3" style="mix-blend-mode:multiply" fill="#e2e0e1"/><rect width="43.292" height="4.864" x="663.617" y="339.3" style="mix-blend-mode:multiply" fill="#e2e0e1"/><path fill="#005c91" d="M483.00509,246.963v-7.9576l-4.6672-.0001a19.60045,19.60045,0,0,0-2.854-6.8631l3.3082-3.3082-5.6269-5.627-3.30819,3.3083a19.6,19.6,0,0,0-6.86311-2.8537v-4.6674h-7.9576v4.6674a19.60265,19.60265,0,0,0-6.8625,2.8533l-3.30779-3.3077-5.62691,5.6268,3.3074,3.3076a19.6019,19.6019,0,0,0-2.8542,6.8631h-4.6667v7.9575l4.66641.0001a19.6011,19.6011,0,0,0,2.85409,6.864l-3.308,3.308,5.62691,5.6268,3.308-3.308a19.60113,19.60113,0,0,0,6.86329,2.8539v4.6672h7.9576V262.307a19.60174,19.60174,0,0,0,6.8634-2.8539l3.3079,3.308,5.6269-5.6271-3.308-3.308a19.59773,19.59773,0,0,0,2.8538-6.863Zm-34.1045-3.9787a10.11445,10.11445,0,1,1,10.1145,10.1145A10.11449,10.11449,0,0,1,448.90059,242.9843Z"/><rect width="73.059" height="5.075" x="497.596" y="220.43" fill="#b9b7c5"/><rect width="73.059" height="5.075" x="497.596" y="233.774" fill="#b9b7c5"/><rect width="73.059" height="5.075" x="497.596" y="247.119" fill="#b9b7c5"/><rect width="44.534" height="5.075" x="497.596" y="260.463" fill="#b9b7c5"/><path fill="#e2e0e1" d="M599.69479,204.9472H696.9716a5.2404,5.2404,0,0,1,5.2404,5.2404v65.5931a5.2405,5.2405,0,0,1-5.2405,5.2405H599.6948a5.24032,5.24032,0,0,1-5.24032-5.24032V210.1875A5.2403,5.2403,0,0,1,599.69479,204.9472Z"/><path fill="#ffb800" d="M702.212,216.975v-6.7875a5.2403,5.2403,0,0,0-5.24032-5.2403H599.69489a5.24037,5.24037,0,0,0-5.2404,5.2403v6.7875Z"/><circle cx="617.456" cy="241.041" r="13.344" fill="#26c8a8" transform="rotate(-76.794 617.456 241.041)"/><polygon fill="#fff" points="615.611 247.206 608.569 240.164 610.165 238.568 615.611 244.014 624.747 234.877 626.343 236.473 615.611 247.206"/><rect width="50.363" height="2.825" x="642.192" y="227.697" fill="#b9b7c5"/><rect width="50.363" height="2.825" x="642.192" y="237.809" fill="#b9b7c5"/><rect width="50.363" height="2.825" x="642.192" y="247.921" fill="#b9b7c5"/><rect width="50.363" height="2.825" x="642.192" y="258.033" fill="#b9b7c5"/><rect width="32.558" height="2.825" x="642.192" y="268.145" fill="#b9b7c5"/><path fill="#ffaca3" d="M538.65259,516.2365s10.5117.2124,17.0948-5.946,19.6431-17.201,33.765-12.9539S619.561,538.1094,619.561,538.1094s-22.50991.7432-25.37681.7432-19.4307,8.7067-28.3498,6.9017-13.5909.2463-13.5909.2463Z"/><path fill="#ffaca3" d="M374.80959,221.3555c1.7486-1.0352,3.5617,1.2461,4.2892,3.1434,9.171,23.9184,10.8655,50.0426,10.4025,75.6547-.19,10.5104-1.8432,22.8982-11.10629,27.8681-6.71341,3.6019-15.00411,1.8001-22.41421,3.5703-11.0986,2.6514-18.8986,13.2239-21.6445,24.2996s-1.3796,22.7042.0024,34.0311a81.09925,81.09925,0,0,1-18.3453-3.0345c-19.485-5.952-48.51739-15.0195-68.50229-18.981,10.30969-25.6351,28.5959-47.1251,30.93419-74.6565,1.1361-13.3756.3435-26.9516,2.8963-40.1305s9.2173-26.4736,21.1165-32.6871a54.67415,54.67415,0,0,1,10.9407-3.9639C335.15579,210.4956,354.10029,212.3528,374.80959,221.3555Z"/><path fill="#171b36" d="M381.20409,197.2482c-5.4012-1.2619-10.957-1.7961-16.3314-3.1675-6.1375-1.5661-11.9412-4.198-17.9022-6.3399-17.751-6.3783-38.35949-8.1209-54.8713.9972-13.59519,7.5076-22.6924,21.5215-27.2638,36.3638s-5.095,30.602-5.04439,46.1322c.03669,11.2608.41239,22.8052,4.61959,33.2506s13.0313,19.7165,24.1665,21.3939c11.52,1.7355,23.2443-5.2622,29.1515-15.3035a72.69416,72.69416,0,0,0,4.5406-9.8435q3.28665-8.1711,6.5732-16.3422c2.1217-5.2749,4.4528-10.8272,9.0357-14.1921s12.1443-3.3354,15.0625,1.5441c1.2308,2.0582,1.5321,4.7257,3.3355,6.3065,1.8903,1.657,4.8941,1.4708,7.0447.1691a14.59613,14.59613,0,0,0,4.8259-5.6809,51.07672,51.07672,0,0,0,5.8921-17.5739c.5567-3.936.6556-7.9519,1.6526-11.8001a26.39093,26.39093,0,0,1,9.8755-14.2902c4.2063-3.1608,9.7138-5.3077,12.9698-9.6138C406.72219,208.4327,389.64749,199.2211,381.20409,197.2482Z"/><path fill="#77a0de" d="M560.17,550.5916s-50.55,28.96-68.72,27.26c-18.18-1.7-120.98-53.39-120.98-53.39l-10.22,78.95-164.71,2.27s-20.45-120.41-23.86-147.67c-3.4-27.26,1.14-65.88,9.09-78.38,1.22-1.92,3.72-3.92,7.1-5.93v-.01c18.58-11.07,63.62-22.46,67.46-22.46,0,0-21.43,23.88,78.09,30.69,0,0,5.89,2.41,14.19,6.27h.01c14.47,6.74,36.23,17.89,46.71,28.36,16.47,16.47,77.24,93.14,88.6,98.26,11.36,5.11,56.79,0,56.79,0S566.42,520.4816,560.17,550.5916Z"/><polygon fill="#6891c9" points="370.471 524.462 353.054 513.86 360.248 603.409 370.471 524.462"/><path fill="#6891c9" d="M347.61,388.1916c-12.75,3.68-44.42,1.46-65.52-3.98-46.76-12.04-26.28-21.53-38.98-24.64s-55.24,14.13-55.24,14.13v-.01c18.58-11.07,63.62-22.46,67.46-22.46,0,0-21.43,23.88,78.09,30.69C333.42,381.9216,339.31,384.3316,347.61,388.1916Z"/><path fill="#2f3c5f" d="M325.76779,453.391H170.2986a40.06066,40.06066,0,0,0-39.4657,46.9388l22.5069,129.1418H365.82839v-136.02A40.06061,40.06061,0,0,0,325.76779,453.391Z"/></g></svg>